<svg width="512" height="512" viewBox="0 0 512 512" fill="none" xmlns="http://www.w3.org/2000/svg">
  <title>Beat Match lane board with a center hit zone and three rhythm lanes</title>
  <defs>
    <linearGradient id="beat-match-background" x1="48" y1="36" x2="454" y2="474" gradientUnits="userSpaceOnUse">
      <stop stop-color="#402242" />
      <stop offset="1" stop-color="#190d24" />
    </linearGradient>
  </defs>
  <rect width="512" height="512" rx="44" fill="url(#beat-match-background)" />
  <circle cx="410" cy="92" r="136" fill="rgba(236, 72, 153, 0.16)" />
  <circle cx="104" cy="418" r="118" fill="rgba(56, 189, 248, 0.09)" />
  <rect x="12" y="12" width="488" height="488" rx="42" fill="rgba(48, 31, 55, 0.94)" stroke="rgba(216, 159, 198, 0.16)" stroke-width="2" />
  <g transform="translate(256 256) scale(1.12) translate(-256 -256)"><rect x="56" y="74" width="400" height="118" rx="26" fill="rgba(103, 67, 104, 0.92)" stroke="rgba(216, 159, 198, 0.22)" stroke-width="1.5" /><rect x="92" y="117" width="328" height="18" rx="9" fill="rgba(216, 159, 198, 0.18)" /><rect x="192" y="102" width="128" height="46" rx="23" fill="rgba(56, 189, 248, 0.24)" /><rect x="236" y="92" width="40" height="66" rx="20" fill="#f8fafc" /><rect x="72" y="246" width="108" height="152" rx="26" fill="rgba(68, 47, 73, 0.96)" stroke="rgba(216, 159, 198, 0.22)" stroke-width="1.5" /><rect x="202" y="228" width="108" height="170" rx="26" fill="rgba(236, 72, 153, 0.22)" stroke="rgba(232, 139, 190, 0.72)" stroke-width="1.5" /><rect x="332" y="246" width="108" height="152" rx="26" fill="rgba(68, 47, 73, 0.96)" stroke="rgba(216, 159, 198, 0.22)" stroke-width="1.5" /><text x="126" y="323" font-family="'Avenir Next', 'Trebuchet MS', 'Segoe UI', sans-serif" font-weight="700" text-anchor="middle" dominant-baseline="middle" fill="#cbd5e1" font-size="52">L</text><text x="256" y="314" font-family="'Avenir Next', 'Trebuchet MS', 'Segoe UI', sans-serif" font-weight="700" text-anchor="middle" dominant-baseline="middle" fill="#f8fafc" font-size="34">HIT</text><text x="386" y="323" font-family="'Avenir Next', 'Trebuchet MS', 'Segoe UI', sans-serif" font-weight="700" text-anchor="middle" dominant-baseline="middle" fill="#cbd5e1" font-size="52">R</text></g>
</svg>
