<svg width="640" height="480" viewBox="0 0 640 480" fill="none" xmlns="http://www.w3.org/2000/svg">
  <rect width="640" height="480" rx="36" fill="#FFF7ED"/>
  <rect x="34" y="34" width="572" height="412" rx="28" fill="url(#bg)" stroke="#F59E0B" stroke-opacity="0.22"/>
  <rect x="86" y="96" width="282" height="288" rx="24" fill="#FFFBEB" stroke="#D97706" stroke-opacity="0.22"/>
  <g opacity="0.52">
    <rect x="112" y="122" width="42" height="42" rx="12" fill="#FDE68A" stroke="#D97706" stroke-dasharray="6 6"/>
    <rect x="158" y="122" width="42" height="42" rx="12" fill="#FDE68A" stroke="#D97706" stroke-dasharray="6 6"/>
    <rect x="204" y="122" width="42" height="42" rx="12" fill="#FDE68A" stroke="#D97706" stroke-dasharray="6 6"/>
    <rect x="250" y="122" width="42" height="42" rx="12" fill="#FDE68A" stroke="#D97706" stroke-dasharray="6 6"/>
    <rect x="112" y="168" width="42" height="42" rx="12" fill="#FDE68A" stroke="#D97706" stroke-dasharray="6 6"/>
    <rect x="158" y="168" width="42" height="42" rx="12" fill="#FDE68A" stroke="#D97706" stroke-dasharray="6 6"/>
    <rect x="204" y="168" width="42" height="42" rx="12" fill="#FDE68A" stroke="#D97706" stroke-dasharray="6 6"/>
    <rect x="250" y="168" width="42" height="42" rx="12" fill="#FDE68A" stroke="#D97706" stroke-dasharray="6 6"/>
    <rect x="204" y="214" width="42" height="42" rx="12" fill="#FDE68A" stroke="#D97706" stroke-dasharray="6 6"/>
    <rect x="250" y="214" width="42" height="42" rx="12" fill="#FDE68A" stroke="#D97706" stroke-dasharray="6 6"/>
    <rect x="204" y="260" width="42" height="42" rx="12" fill="#FDE68A" stroke="#D97706" stroke-dasharray="6 6"/>
    <rect x="250" y="260" width="42" height="42" rx="12" fill="#FDE68A" stroke="#D97706" stroke-dasharray="6 6"/>
    <rect x="296" y="260" width="42" height="42" rx="12" fill="#FDE68A" stroke="#D97706" stroke-dasharray="6 6"/>
  </g>
  <g>
    <rect x="204" y="168" width="42" height="42" rx="12" fill="#A5F3FC"/>
    <rect x="250" y="168" width="42" height="42" rx="12" fill="#A5F3FC"/>
    <rect x="204" y="214" width="42" height="42" rx="12" fill="#A5F3FC"/>
    <rect x="250" y="214" width="42" height="42" rx="12" fill="#A5F3FC"/>
  </g>
  <g opacity="0.8">
    <rect x="158" y="76" width="42" height="42" rx="12" fill="#E9D5FF"/>
    <rect x="204" y="76" width="42" height="42" rx="12" fill="#E9D5FF"/>
    <rect x="158" y="30" width="42" height="42" rx="12" fill="#E9D5FF"/>
    <rect x="158" y="-16" width="42" height="42" rx="12" fill="#E9D5FF"/>
  </g>
  <rect x="402" y="96" width="154" height="108" rx="22" fill="#FFFFFF" stroke="#F59E0B" stroke-opacity="0.18"/>
  <text x="430" y="132" fill="#92400E" font-family="sans-serif" font-size="18" font-weight="700">Active piece</text>
  <text x="430" y="170" fill="#431407" font-family="sans-serif" font-size="40" font-weight="800">A</text>
  <text x="430" y="194" fill="#92400E" font-family="sans-serif" font-size="16">Rotation 2/4</text>
  <rect x="402" y="220" width="154" height="108" rx="22" fill="#FFFFFF" stroke="#F59E0B" stroke-opacity="0.18"/>
  <text x="430" y="256" fill="#92400E" font-family="sans-serif" font-size="18" font-weight="700">Next piece</text>
  <text x="430" y="294" fill="#431407" font-family="sans-serif" font-size="40" font-weight="800">B</text>
  <text x="430" y="318" fill="#92400E" font-family="sans-serif" font-size="16">Hard drop ghost live</text>
  <g>
    <rect x="402" y="348" width="72" height="56" rx="18" fill="#FFFFFF" stroke="#F59E0B" stroke-opacity="0.22"/>
    <rect x="484" y="348" width="72" height="56" rx="18" fill="#FFFFFF" stroke="#F59E0B" stroke-opacity="0.22"/>
    <text x="426" y="382" fill="#7C2D12" font-family="sans-serif" font-size="18" font-weight="700">Left</text>
    <text x="500" y="382" fill="#7C2D12" font-family="sans-serif" font-size="18" font-weight="700">Rotate</text>
    <rect x="402" y="412" width="154" height="56" rx="18" fill="#D97706"/>
    <text x="451" y="447" fill="#FFF7ED" font-family="sans-serif" font-size="18" font-weight="700">Hard drop</text>
  </g>
  <defs>
    <linearGradient id="bg" x1="88" y1="58" x2="566" y2="428" gradientUnits="userSpaceOnUse">
      <stop stop-color="#FFF7ED"/>
      <stop offset="1" stop-color="#FFFBEB"/>
    </linearGradient>
  </defs>
</svg>
