<svg width="512" height="512" viewBox="0 0 512 512" fill="none" xmlns="http://www.w3.org/2000/svg">
  <title>Bounce Angle ricochet board with a traced bank shot, target pocket, and fixed angle chooser</title>
  <defs>
    <linearGradient id="bounce-angle-background" x1="48" y1="36" x2="454" y2="474" gradientUnits="userSpaceOnUse">
      <stop stop-color="#192f57" />
      <stop offset="1" stop-color="#08122d" />
    </linearGradient>
  </defs>
  <rect width="512" height="512" rx="44" fill="url(#bounce-angle-background)" />
  <circle cx="410" cy="92" r="136" fill="rgba(59, 130, 246, 0.16)" />
  <circle cx="104" cy="418" r="118" fill="rgba(56, 189, 248, 0.09)" />
  <rect x="12" y="12" width="488" height="488" rx="42" fill="rgba(23, 39, 68, 0.94)" stroke="rgba(148, 181, 233, 0.16)" stroke-width="2" />
  <g transform="translate(256 256) scale(1.12) translate(-256 -256)"><rect x="62" y="64" width="388" height="356" rx="26" fill="rgba(36, 57, 89, 0.96)" stroke="rgba(148, 181, 233, 0.22)" stroke-width="1.5" /><line x1="94" y1="88" x2="94" y2="388" stroke="rgba(148, 181, 233, 0.28)" stroke-width="4" /><line x1="418" y1="88" x2="418" y2="388" stroke="rgba(148, 181, 233, 0.28)" stroke-width="4" /><circle cx="164" cy="100" r="18" fill="rgba(251, 113, 133, 0.9)" /><circle cx="256" cy="100" r="18" fill="rgba(34, 197, 94, 0.94)" /><circle cx="348" cy="100" r="18" fill="rgba(251, 113, 133, 0.9)" /><path d="M156 342 L212 254 L136 182 L256 102" fill="none" stroke="#5a96f7" stroke-linecap="round" stroke-linejoin="round" stroke-width="10" /><circle cx="156" cy="342" r="18" fill="#f59e0b" /><rect x="110" y="388" width="84" height="40" rx="16" fill="rgba(53, 83, 130, 0.92)" stroke="rgba(148, 181, 233, 0.24)" stroke-width="1.5" /><text x="152" y="409" font-family="'Avenir Next', 'Trebuchet MS', 'Segoe UI', sans-serif" font-weight="700" text-anchor="middle" dominant-baseline="middle" fill="#cbd5e1" font-size="23.520000000000003">30</text><rect x="214" y="388" width="84" height="40" rx="16" fill="rgba(59, 130, 246, 0.28)" stroke="rgba(129, 173, 243, 0.85)" stroke-width="1.5" /><text x="256" y="409" font-family="'Avenir Next', 'Trebuchet MS', 'Segoe UI', sans-serif" font-weight="700" text-anchor="middle" dominant-baseline="middle" fill="#f8fafc" font-size="23.520000000000003">45</text><rect x="318" y="388" width="84" height="40" rx="16" fill="rgba(53, 83, 130, 0.92)" stroke="rgba(148, 181, 233, 0.24)" stroke-width="1.5" /><text x="360" y="409" font-family="'Avenir Next', 'Trebuchet MS', 'Segoe UI', sans-serif" font-weight="700" text-anchor="middle" dominant-baseline="middle" fill="#cbd5e1" font-size="23.520000000000003">60</text></g>
</svg>
