<svg width="640" height="360" viewBox="0 0 640 360" fill="none" xmlns="http://www.w3.org/2000/svg">
  <rect width="640" height="360" rx="36" fill="#0F172A"/>
  <rect x="28" y="28" width="584" height="304" rx="28" fill="#111827" stroke="#334155" stroke-width="2"/>
  <rect x="52" y="56" width="172" height="248" rx="20" fill="#0F172A" stroke="#334155"/>
  <text x="76" y="88" fill="#E2E8F0" font-family="sans-serif" font-size="20" font-weight="700">Piece tray</text>
  <rect x="74" y="112" width="128" height="44" rx="14" fill="#FBBF24"/>
  <rect x="74" y="170" width="128" height="44" rx="14" fill="#67E8F9"/>
  <rect x="74" y="228" width="128" height="44" rx="14" fill="#A3E635"/>
  <text x="94" y="141" fill="#0F172A" font-family="sans-serif" font-size="18" font-weight="800">A</text>
  <text x="94" y="199" fill="#0F172A" font-family="sans-serif" font-size="18" font-weight="800">B</text>
  <text x="94" y="257" fill="#0F172A" font-family="sans-serif" font-size="18" font-weight="800">C</text>
  <g transform="translate(262 56)">
    <rect width="326" height="248" rx="20" fill="#0F172A" stroke="#334155"/>
    <text x="24" y="32" fill="#E2E8F0" font-family="sans-serif" font-size="20" font-weight="700">Target box</text>
    <g transform="translate(24 54)">
      <g fill="#1E293B">
        <rect width="48" height="48" rx="12"/>
        <rect x="58" width="48" height="48" rx="12"/>
        <rect x="116" width="48" height="48" rx="12"/>
        <rect x="174" width="48" height="48" rx="12"/>
        <rect x="232" width="48" height="48" rx="12"/>
        <rect y="58" width="48" height="48" rx="12"/>
        <rect x="58" y="58" width="48" height="48" rx="12"/>
        <rect x="116" y="58" width="48" height="48" rx="12"/>
        <rect x="174" y="58" width="48" height="48" rx="12"/>
        <rect x="232" y="58" width="48" height="48" rx="12"/>
        <rect y="116" width="48" height="48" rx="12"/>
        <rect x="58" y="116" width="48" height="48" rx="12"/>
        <rect x="116" y="116" width="48" height="48" rx="12"/>
        <rect x="174" y="116" width="48" height="48" rx="12"/>
        <rect x="232" y="116" width="48" height="48" rx="12"/>
      </g>
      <rect width="48" height="48" rx="12" fill="#FBBF24"/>
      <rect x="58" width="48" height="48" rx="12" fill="#FBBF24"/>
      <rect x="116" width="48" height="48" rx="12" fill="#FBBF24"/>
      <rect x="174" width="48" height="48" rx="12" stroke="#2DD4BF" stroke-width="4"/>
      <rect x="232" width="48" height="48" rx="12" stroke="#2DD4BF" stroke-width="4"/>
      <rect x="58" y="58" width="48" height="48" rx="12" fill="#67E8F9"/>
      <rect x="58" y="116" width="48" height="48" rx="12" fill="#67E8F9"/>
      <rect x="116" y="116" width="48" height="48" rx="12" fill="#67E8F9"/>
      <text x="198" y="28" fill="#2DD4BF" font-family="sans-serif" font-size="13" font-weight="700">Preview</text>
    </g>
  </g>
</svg>
