<svg width="512" height="512" viewBox="0 0 512 512" fill="none" xmlns="http://www.w3.org/2000/svg">
  <title>Bubble Spawn field with growing colored bubbles, dual pressure meters, and a highlighted best burst target</title>
  <defs>
    <linearGradient id="bubble-spawn-background" x1="48" y1="36" x2="454" y2="474" gradientUnits="userSpaceOnUse">
      <stop stop-color="#133d35" />
      <stop offset="1" stop-color="#05191e" />
    </linearGradient>
  </defs>
  <rect width="512" height="512" rx="44" fill="url(#bubble-spawn-background)" />
  <circle cx="410" cy="92" r="136" fill="rgba(34, 197, 94, 0.16)" />
  <circle cx="104" cy="418" r="118" fill="rgba(56, 189, 248, 0.09)" />
  <rect x="12" y="12" width="488" height="488" rx="42" fill="rgba(19, 48, 47, 0.94)" stroke="rgba(139, 207, 175, 0.16)" stroke-width="2" />
  <g transform="translate(256 256) scale(1.12) translate(-256 -256)"><rect x="60" y="72" width="340" height="308" rx="26" fill="rgba(32, 69, 62, 0.96)" stroke="rgba(139, 207, 175, 0.22)" stroke-width="1.5" /><circle cx="142" cy="178" r="42" fill="rgba(34, 197, 94, 0.42)" /><circle cx="228" cy="156" r="26" fill="rgba(56, 189, 248, 0.68)" /><circle cx="316" cy="182" r="34" fill="rgba(245, 158, 11, 0.7)" /><circle cx="360" cy="274" r="48" fill="rgba(34, 197, 94, 0.42)" stroke="rgba(34, 197, 94, 0.9)" stroke-width="5" /><circle cx="190" cy="286" r="58" fill="rgba(251, 113, 133, 0.4)" /><circle cx="118" cy="306" r="24" fill="rgba(56, 189, 248, 0.72)" /><rect x="416" y="116" width="34" height="210" rx="26" fill="rgba(34, 197, 94, 0.16)" stroke="rgba(139, 207, 175, 0.22)" stroke-width="1.5" /><rect x="420" y="178" width="26" height="112" rx="13" fill="rgba(34, 197, 94, 0.88)" /><rect x="52" y="396" width="124" height="36" rx="26" fill="rgba(56, 189, 248, 0.16)" stroke="rgba(139, 207, 175, 0.22)" stroke-width="1.5" /><rect x="58" y="402" width="74" height="24" rx="12" fill="rgba(56, 189, 248, 0.82)" /><circle cx="360" cy="274" r="64" fill="none" stroke="rgba(34, 197, 94, 0.42)" stroke-width="8" /><circle cx="360" cy="274" r="26.88" fill="#22c55e" /></g>
</svg>
