<svg width="640" height="360" viewBox="0 0 640 360" fill="none" xmlns="http://www.w3.org/2000/svg">
  <rect width="640" height="360" rx="36" fill="#0F172A"/>
  <rect x="28" y="28" width="584" height="304" rx="28" fill="#111827" stroke="#334155" stroke-width="2"/>
  <rect x="54" y="54" width="182" height="78" rx="18" fill="#0F172A" stroke="#334155"/>
  <rect x="258" y="54" width="328" height="18" rx="9" fill="#1E293B"/>
  <rect x="258" y="54" width="204" height="18" rx="9" fill="url(#stability)"/>
  <rect x="258" y="88" width="328" height="18" rx="9" fill="#1E293B"/>
  <rect x="258" y="88" width="234" height="18" rx="9" fill="url(#saturation)"/>
  <text x="76" y="86" fill="#E2E8F0" font-family="sans-serif" font-size="20" font-weight="700">Best burst</text>
  <text x="76" y="112" fill="#94A3B8" font-family="sans-serif" font-size="16">Coral x4</text>
  <g transform="translate(54 154)">
    <rect width="532" height="150" rx="26" fill="#0F172A" stroke="#334155"/>
    <g transform="translate(22 20)">
      <g fill="#1E293B">
        <rect width="72" height="72" rx="18"/>
        <rect x="88" width="72" height="72" rx="18"/>
        <rect x="176" width="72" height="72" rx="18"/>
        <rect x="264" width="72" height="72" rx="18"/>
        <rect x="352" width="72" height="72" rx="18"/>
        <rect y="82" width="72" height="72" rx="18"/>
        <rect x="88" y="82" width="72" height="72" rx="18"/>
        <rect x="176" y="82" width="72" height="72" rx="18"/>
        <rect x="264" y="82" width="72" height="72" rx="18"/>
        <rect x="352" y="82" width="72" height="72" rx="18"/>
      </g>
      <circle cx="36" cy="36" r="14" fill="#FACC15"/>
      <circle cx="124" cy="36" r="19" fill="#34D399"/>
      <circle cx="212" cy="36" r="26" fill="#FB7185"/>
      <circle cx="300" cy="36" r="19" fill="#34D399"/>
      <circle cx="388" cy="36" r="28" fill="#A78BFA"/>
      <circle cx="36" cy="118" r="23" fill="#FB7185"/>
      <circle cx="124" cy="118" r="30" fill="#FB7185" stroke="#2DD4BF" stroke-width="5"/>
      <circle cx="212" cy="118" r="14" fill="#FACC15"/>
      <circle cx="300" cy="118" r="24" fill="#34D399"/>
      <circle cx="388" cy="118" r="18" fill="#A78BFA"/>
      <text x="124" y="124" fill="#F8FAFC" font-family="sans-serif" font-size="13" font-weight="700" text-anchor="middle">Best</text>
    </g>
  </g>
  <defs>
    <linearGradient id="stability" x1="258" y1="63" x2="462" y2="63" gradientUnits="userSpaceOnUse">
      <stop stop-color="#22C55E"/>
      <stop offset="1" stop-color="#2DD4BF"/>
    </linearGradient>
    <linearGradient id="saturation" x1="258" y1="97" x2="492" y2="97" gradientUnits="userSpaceOnUse">
      <stop stop-color="#F59E0B"/>
      <stop offset="1" stop-color="#EF4444"/>
    </linearGradient>
  </defs>
</svg>
