<svg width="512" height="512" viewBox="0 0 512 512" fill="none" xmlns="http://www.w3.org/2000/svg">
  <title>Cascade Flip stream with a target order strip above a shifting memory board</title>
  <defs>
    <linearGradient id="cascade-flip-background" x1="48" y1="36" x2="454" y2="474" gradientUnits="userSpaceOnUse">
      <stop stop-color="#312557" />
      <stop offset="1" stop-color="#130e2d" />
    </linearGradient>
  </defs>
  <rect width="512" height="512" rx="44" fill="url(#cascade-flip-background)" />
  <circle cx="410" cy="92" r="136" fill="rgba(168, 85, 247, 0.16)" />
  <circle cx="104" cy="418" r="118" fill="rgba(56, 189, 248, 0.09)" />
  <rect x="12" y="12" width="488" height="488" rx="42" fill="rgba(38, 33, 68, 0.94)" stroke="rgba(190, 164, 233, 0.16)" stroke-width="2" />
  <g transform="translate(256 256) scale(1.12) translate(-256 -256)"><rect x="78" y="68" width="64" height="88" rx="26" fill="rgba(84, 71, 130, 0.92)" stroke="rgba(190, 164, 233, 0.22)" stroke-width="1.5" /><rect x="162" y="68" width="64" height="88" rx="26" fill="rgba(168, 85, 247, 0.26)" stroke="rgba(190, 164, 233, 0.22)" stroke-width="1.5" /><rect x="246" y="68" width="64" height="88" rx="26" fill="rgba(84, 71, 130, 0.92)" stroke="rgba(190, 164, 233, 0.22)" stroke-width="1.5" /><rect x="330" y="68" width="64" height="88" rx="26" fill="rgba(84, 71, 130, 0.92)" stroke="rgba(190, 164, 233, 0.22)" stroke-width="1.5" /><text x="110" y="112" font-family="'Avenir Next', 'Trebuchet MS', 'Segoe UI', sans-serif" font-weight="700" text-anchor="middle" dominant-baseline="middle" fill="#f8fafc" font-size="30">1</text><text x="194" y="112" font-family="'Avenir Next', 'Trebuchet MS', 'Segoe UI', sans-serif" font-weight="700" text-anchor="middle" dominant-baseline="middle" fill="#f8fafc" font-size="30">2</text><text x="278" y="112" font-family="'Avenir Next', 'Trebuchet MS', 'Segoe UI', sans-serif" font-weight="700" text-anchor="middle" dominant-baseline="middle" fill="#f8fafc" font-size="30">3</text><text x="362" y="112" font-family="'Avenir Next', 'Trebuchet MS', 'Segoe UI', sans-serif" font-weight="700" text-anchor="middle" dominant-baseline="middle" fill="#f8fafc" font-size="30">4</text><rect x="112" y="196" width="226" height="226" rx="26" fill="rgba(56, 49, 90, 0.96)" stroke="rgba(190, 164, 233, 0.22)" stroke-width="1.5" /><rect x="130" y="214" width="54" height="54" rx="10" fill="#4d4579" stroke="rgba(190, 164, 233, 0.18)" stroke-width="1.2" /><rect x="198" y="214" width="54" height="54" rx="10" fill="rgba(168, 85, 247, 0.24)" stroke="rgba(190, 164, 233, 0.18)" stroke-width="1.2" /><text x="225" y="242" font-family="'Avenir Next', 'Trebuchet MS', 'Segoe UI', sans-serif" font-weight="700" text-anchor="middle" dominant-baseline="middle" fill="#f8fafc" font-size="24">2</text><rect x="266" y="214" width="54" height="54" rx="10" fill="#4d4579" stroke="rgba(190, 164, 233, 0.18)" stroke-width="1.2" /><rect x="130" y="282" width="54" height="54" rx="10" fill="#4d4579" stroke="rgba(190, 164, 233, 0.18)" stroke-width="1.2" /><text x="157" y="310" font-family="'Avenir Next', 'Trebuchet MS', 'Segoe UI', sans-serif" font-weight="700" text-anchor="middle" dominant-baseline="middle" fill="#cbd5e1" font-size="24">4</text><rect x="198" y="282" width="54" height="54" rx="10" fill="#4d4579" stroke="rgba(190, 164, 233, 0.18)" stroke-width="1.2" /><rect x="266" y="282" width="54" height="54" rx="10" fill="#4d4579" stroke="rgba(190, 164, 233, 0.18)" stroke-width="1.2" /><text x="293" y="310" font-family="'Avenir Next', 'Trebuchet MS', 'Segoe UI', sans-serif" font-weight="700" text-anchor="middle" dominant-baseline="middle" fill="#cbd5e1" font-size="24">1</text><rect x="130" y="350" width="54" height="54" rx="10" fill="#4d4579" stroke="rgba(190, 164, 233, 0.18)" stroke-width="1.2" /><rect x="198" y="350" width="54" height="54" rx="10" fill="#4d4579" stroke="rgba(190, 164, 233, 0.18)" stroke-width="1.2" /><text x="225" y="378" font-family="'Avenir Next', 'Trebuchet MS', 'Segoe UI', sans-serif" font-weight="700" text-anchor="middle" dominant-baseline="middle" fill="#cbd5e1" font-size="24">3</text><rect x="266" y="350" width="54" height="54" rx="10" fill="#4d4579" stroke="rgba(190, 164, 233, 0.18)" stroke-width="1.2" /><line x1="376" y1="246" x2="430" y2="246" stroke="#38bdf8" stroke-linecap="round" stroke-width="5" /><polygon points="430,246 412,238 412,254" fill="#38bdf8" /><line x1="430" y1="246" x2="430" y2="312" stroke="#38bdf8" stroke-linecap="round" stroke-width="5" /><polygon points="430,312 438,294 422,294" fill="#38bdf8" /></g>
</svg>
