<svg width="640" height="480" viewBox="0 0 640 480" fill="none" xmlns="http://www.w3.org/2000/svg">
  <rect width="640" height="480" rx="36" fill="#FAF5FF"/>
  <rect x="34" y="34" width="572" height="412" rx="28" fill="url(#bg)" stroke="#A855F7" stroke-opacity="0.18"/>
  <rect x="84" y="82" width="472" height="78" rx="24" fill="white" stroke="#A855F7" stroke-opacity="0.16"/>
  <text x="112" y="116" fill="#6B21A8" font-family="sans-serif" font-size="18" font-weight="700">Target order</text>
  <g>
    <rect x="112" y="126" width="42" height="42" rx="14" fill="#FDE68A"/><text x="127" y="153" fill="#92400E" font-family="sans-serif" font-size="22" font-weight="800">A</text>
    <rect x="164" y="126" width="42" height="42" rx="14" fill="#DDD6FE"/><text x="180" y="153" fill="#5B21B6" font-family="sans-serif" font-size="22" font-weight="800">E</text>
    <rect x="216" y="126" width="42" height="42" rx="14" fill="#BBF7D0"/><text x="232" y="153" fill="#166534" font-family="sans-serif" font-size="22" font-weight="800">C</text>
    <rect x="268" y="126" width="42" height="42" rx="14" fill="#FFE4E6"/><text x="284" y="153" fill="#9F1239" font-family="sans-serif" font-size="22" font-weight="800">D</text>
  </g>
  <rect x="84" y="188" width="472" height="198" rx="28" fill="white" stroke="#A855F7" stroke-opacity="0.16"/>
  <g>
    <rect x="116" y="216" width="96" height="64" rx="18" fill="#E0F2FE"/><text x="154" y="255" fill="#0369A1" font-family="sans-serif" font-size="26" font-weight="800">B</text>
    <rect x="226" y="216" width="96" height="64" rx="18" fill="#FEF3C7"/><text x="264" y="255" fill="#92400E" font-family="sans-serif" font-size="26" font-weight="800">A</text>
    <rect x="336" y="216" width="96" height="64" rx="18" fill="#CCFBF1"/><text x="374" y="255" fill="#0F766E" font-family="sans-serif" font-size="26" font-weight="800">F</text>
    <rect x="116" y="292" width="96" height="64" rx="18" fill="#DDD6FE" stroke="#818CF8" stroke-width="4"/><text x="154" y="331" fill="#5B21B6" font-family="sans-serif" font-size="26" font-weight="800">E</text>
    <rect x="226" y="292" width="96" height="64" rx="18" fill="#BBF7D0"/><text x="264" y="331" fill="#166534" font-family="sans-serif" font-size="26" font-weight="800">C</text>
    <rect x="336" y="292" width="96" height="64" rx="18" fill="#FFE4E6"/><text x="374" y="331" fill="#9F1239" font-family="sans-serif" font-size="26" font-weight="800">D</text>
  </g>
  <text x="456" y="236" fill="#6B21A8" font-family="sans-serif" font-size="18" font-weight="700">Reveal, then track</text>
  <text x="456" y="268" fill="#581C87" font-family="sans-serif" font-size="16">Moving stream stays live.</text>
  <text x="456" y="294" fill="#581C87" font-family="sans-serif" font-size="16">Tap only the next card.</text>
  <defs>
    <linearGradient id="bg" x1="90" y1="58" x2="556" y2="426" gradientUnits="userSpaceOnUse">
      <stop stop-color="#FAF5FF"/>
      <stop offset="1" stop-color="#F5F3FF"/>
    </linearGradient>
  </defs>
</svg>
