<svg width="640" height="360" viewBox="0 0 640 360" fill="none" xmlns="http://www.w3.org/2000/svg">
  <rect width="640" height="360" rx="28" fill="#ECFEFF"/>
  <rect x="44" y="48" width="80" height="48" rx="16" fill="white"/>
  <text x="84" y="78" text-anchor="middle" fill="#0F766E" font-size="20" font-family="Arial, sans-serif" font-weight="700">C1</text>
  <rect x="140" y="48" width="80" height="48" rx="16" fill="white"/>
  <text x="180" y="78" text-anchor="middle" fill="#0F766E" font-size="20" font-family="Arial, sans-serif" font-weight="700">C2</text>
  <rect x="236" y="48" width="80" height="48" rx="16" fill="white"/>
  <text x="276" y="78" text-anchor="middle" fill="#0F766E" font-size="20" font-family="Arial, sans-serif" font-weight="700">C3</text>
  <rect x="332" y="48" width="80" height="48" rx="16" fill="white"/>
  <text x="372" y="78" text-anchor="middle" fill="#0F766E" font-size="20" font-family="Arial, sans-serif" font-weight="700">C4</text>
  <rect x="428" y="48" width="80" height="48" rx="16" fill="white"/>
  <text x="468" y="78" text-anchor="middle" fill="#0F766E" font-size="20" font-family="Arial, sans-serif" font-weight="700">C5</text>
  <rect x="44" y="114" width="80" height="48" rx="16" fill="white"/>
  <text x="84" y="144" text-anchor="middle" fill="#0F766E" font-size="20" font-family="Arial, sans-serif" font-weight="700">R1</text>
  <rect x="140" y="114" width="56" height="56" rx="18" fill="#38BDF8"/>
  <rect x="206" y="114" width="56" height="56" rx="18" fill="#34D399"/>
  <rect x="272" y="114" width="56" height="56" rx="18" fill="#A855F7"/>
  <rect x="338" y="114" width="56" height="56" rx="18" fill="#FB923C"/>
  <rect x="404" y="114" width="56" height="56" rx="18" fill="#A855F7"/>
  <rect x="44" y="180" width="80" height="48" rx="16" fill="white"/>
  <text x="84" y="210" text-anchor="middle" fill="#0F766E" font-size="20" font-family="Arial, sans-serif" font-weight="700">R2</text>
  <rect x="140" y="180" width="56" height="56" rx="18" fill="#38BDF8"/>
  <rect x="206" y="180" width="56" height="56" rx="18" fill="#38BDF8"/>
  <rect x="272" y="180" width="56" height="56" rx="18" fill="#38BDF8"/>
  <rect x="338" y="180" width="56" height="56" rx="18" fill="#A855F7"/>
  <rect x="404" y="180" width="56" height="56" rx="18" fill="#38BDF8"/>
  <rect x="494" y="114" width="102" height="122" rx="22" fill="white"/>
  <text x="516" y="146" fill="#0F766E" font-size="18" font-family="Arial, sans-serif" font-weight="700">TARGET</text>
  <text x="516" y="182" fill="#164E63" font-size="28" font-family="Arial, sans-serif" font-weight="700">2200</text>
  <text x="516" y="214" fill="#0F766E" font-size="18" font-family="Arial, sans-serif" font-weight="700">BEST 14</text>
</svg>
