<svg width="512" height="512" viewBox="0 0 512 512" fill="none" xmlns="http://www.w3.org/2000/svg">
  <title>Color Census mosaic with a hidden query asking which color appeared most</title>
  <defs>
    <linearGradient id="color-census-background" x1="48" y1="36" x2="454" y2="474" gradientUnits="userSpaceOnUse">
      <stop stop-color="#402242" />
      <stop offset="1" stop-color="#190d24" />
    </linearGradient>
  </defs>
  <rect width="512" height="512" rx="44" fill="url(#color-census-background)" />
  <circle cx="410" cy="92" r="136" fill="rgba(236, 72, 153, 0.16)" />
  <circle cx="104" cy="418" r="118" fill="rgba(56, 189, 248, 0.09)" />
  <rect x="12" y="12" width="488" height="488" rx="42" fill="rgba(48, 31, 55, 0.94)" stroke="rgba(216, 159, 198, 0.16)" stroke-width="2" />
  <g transform="translate(256 256) scale(1.12) translate(-256 -256)"><rect x="60" y="158" width="236" height="184" rx="26" fill="rgba(68, 47, 73, 0.96)" stroke="rgba(216, 159, 198, 0.22)" stroke-width="1.5" /><rect x="78" y="176" width="44" height="44" rx="8" fill="#f97316" stroke="rgba(216, 159, 198, 0.18)" stroke-width="1.2" /><rect x="130" y="176" width="44" height="44" rx="8" fill="#22c55e" stroke="rgba(216, 159, 198, 0.18)" stroke-width="1.2" /><rect x="182" y="176" width="44" height="44" rx="8" fill="#f97316" stroke="rgba(216, 159, 198, 0.18)" stroke-width="1.2" /><rect x="234" y="176" width="44" height="44" rx="8" fill="#ec4899" stroke="rgba(216, 159, 198, 0.18)" stroke-width="1.2" /><rect x="78" y="228" width="44" height="44" rx="8" fill="#22c55e" stroke="rgba(216, 159, 198, 0.18)" stroke-width="1.2" /><rect x="130" y="228" width="44" height="44" rx="8" fill="#f97316" stroke="rgba(216, 159, 198, 0.18)" stroke-width="1.2" /><rect x="182" y="228" width="44" height="44" rx="8" fill="#38bdf8" stroke="rgba(216, 159, 198, 0.18)" stroke-width="1.2" /><rect x="234" y="228" width="44" height="44" rx="8" fill="#f97316" stroke="rgba(216, 159, 198, 0.18)" stroke-width="1.2" /><rect x="78" y="280" width="44" height="44" rx="8" fill="#f97316" stroke="rgba(216, 159, 198, 0.18)" stroke-width="1.2" /><rect x="130" y="280" width="44" height="44" rx="8" fill="#ec4899" stroke="rgba(216, 159, 198, 0.18)" stroke-width="1.2" /><rect x="182" y="280" width="44" height="44" rx="8" fill="#f97316" stroke="rgba(216, 159, 198, 0.18)" stroke-width="1.2" /><rect x="234" y="280" width="44" height="44" rx="8" fill="#22c55e" stroke="rgba(216, 159, 198, 0.18)" stroke-width="1.2" /><rect x="318" y="118" width="124" height="120" rx="26" fill="rgba(236, 72, 153, 0.18)" stroke="rgba(216, 159, 198, 0.22)" stroke-width="1.5" /><text x="380" y="154" font-family="'Avenir Next', 'Trebuchet MS', 'Segoe UI', sans-serif" font-weight="700" text-anchor="middle" dominant-baseline="middle" fill="#f8fafc" font-size="28">MOST</text><rect x="338" y="186" width="84" height="34" rx="16" fill="rgba(236, 72, 153, 0.28)" stroke="rgba(232, 139, 190, 0.85)" stroke-width="1.5" /><text x="380" y="204" font-family="'Avenir Next', 'Trebuchet MS', 'Segoe UI', sans-serif" font-weight="700" text-anchor="middle" dominant-baseline="middle" fill="#f8fafc" font-size="23.520000000000003">OR?</text></g>
</svg>
