<svg width="640" height="360" viewBox="0 0 640 360" fill="none" xmlns="http://www.w3.org/2000/svg">
  <rect width="640" height="360" rx="32" fill="#0F172A"/>
  <rect x="32" y="32" width="576" height="296" rx="28" fill="#111827"/>
  <rect x="56" y="56" width="248" height="40" rx="20" fill="#1E293B"/>
  <text x="80" y="81" fill="#E2E8F0" font-family="Arial, sans-serif" font-size="18" font-weight="700">Color Census</text>
  <text x="328" y="82" fill="#94A3B8" font-family="Arial, sans-serif" font-size="16">Which color appeared most?</text>
  <g transform="translate(56 116)">
    <rect x="0" y="0" width="52" height="52" rx="12" fill="#FB7185"/>
    <rect x="62" y="0" width="52" height="52" rx="12" fill="#F97316"/>
    <rect x="124" y="0" width="52" height="52" rx="12" fill="#22C55E"/>
    <rect x="186" y="0" width="52" height="52" rx="12" fill="#FB7185"/>
    <rect x="0" y="62" width="52" height="52" rx="12" fill="#2563EB"/>
    <rect x="62" y="62" width="52" height="52" rx="12" fill="#FB7185"/>
    <rect x="124" y="62" width="52" height="52" rx="12" fill="#F97316"/>
    <rect x="186" y="62" width="52" height="52" rx="12" fill="#FB7185"/>
    <rect x="0" y="124" width="52" height="52" rx="12" fill="#22C55E"/>
    <rect x="62" y="124" width="52" height="52" rx="12" fill="#2563EB"/>
    <rect x="124" y="124" width="52" height="52" rx="12" fill="#FB7185"/>
    <rect x="186" y="124" width="52" height="52" rx="12" fill="#F97316"/>
    <rect x="0" y="186" width="52" height="52" rx="12" fill="#FB7185"/>
    <rect x="62" y="186" width="52" height="52" rx="12" fill="#22C55E"/>
    <rect x="124" y="186" width="52" height="52" rx="12" fill="#F97316"/>
    <rect x="186" y="186" width="52" height="52" rx="12" fill="#2563EB"/>
  </g>
  <g transform="translate(352 132)">
    <rect x="0" y="0" width="104" height="72" rx="18" fill="#1E293B" stroke="#334155"/>
    <rect x="124" y="0" width="104" height="72" rx="18" fill="#1E293B" stroke="#334155"/>
    <rect x="0" y="92" width="104" height="72" rx="18" fill="#1E293B" stroke="#334155"/>
    <rect x="124" y="92" width="104" height="72" rx="18" fill="#1E293B" stroke="#334155"/>
    <rect x="18" y="16" width="68" height="24" rx="12" fill="#FB7185"/>
    <text x="35" y="57" fill="#F8FAFC" font-family="Arial, sans-serif" font-size="18" font-weight="700">Rose</text>
    <rect x="142" y="16" width="68" height="24" rx="12" fill="#F97316"/>
    <text x="156" y="57" fill="#F8FAFC" font-family="Arial, sans-serif" font-size="18" font-weight="700">Coral</text>
    <rect x="18" y="108" width="68" height="24" rx="12" fill="#22C55E"/>
    <text x="39" y="149" fill="#F8FAFC" font-family="Arial, sans-serif" font-size="18" font-weight="700">Mint</text>
    <rect x="142" y="108" width="68" height="24" rx="12" fill="#2563EB"/>
    <text x="167" y="149" fill="#F8FAFC" font-family="Arial, sans-serif" font-size="18" font-weight="700">Sky</text>
  </g>
</svg>
