<svg width="640" height="480" viewBox="0 0 640 480" fill="none" xmlns="http://www.w3.org/2000/svg">
  <rect width="640" height="480" rx="36" fill="#F0FDF4"/>
  <rect x="34" y="34" width="572" height="412" rx="28" fill="url(#bg)" stroke="#22C55E" stroke-opacity="0.18"/>
  <rect x="92" y="78" width="276" height="324" rx="28" fill="#F7FEE7" stroke="#15803D" stroke-width="3"/>
  <path d="M147.2 78V402" stroke="#15803D" stroke-opacity="0.12"/>
  <path d="M202.4 78V402" stroke="#15803D" stroke-opacity="0.12"/>
  <path d="M257.6 78V402" stroke="#15803D" stroke-opacity="0.12"/>
  <path d="M312.8 78V402" stroke="#15803D" stroke-opacity="0.12"/>
  <rect x="92" y="140" width="80" height="46" rx="16" fill="#166534"/>
  <rect x="244" y="140" width="124" height="46" rx="16" fill="#166534"/>
  <rect x="92" y="214" width="150" height="38" rx="16" fill="#166534" fill-opacity="0.42"/>
  <rect x="304" y="214" width="64" height="38" rx="16" fill="#166534" fill-opacity="0.42"/>
  <circle cx="257.6" cy="336" r="16" fill="url(#runner)" stroke="#F0FDF4" stroke-width="5"/>
  <rect x="412" y="92" width="148" height="82" rx="22" fill="white" stroke="#22C55E" stroke-opacity="0.18"/>
  <text x="440" y="126" fill="#15803D" font-family="sans-serif" font-size="18" font-weight="700">Walls cleared</text>
  <text x="440" y="156" fill="#14532D" font-family="sans-serif" font-size="36" font-weight="800">5 / 8</text>
  <rect x="412" y="194" width="148" height="82" rx="22" fill="white" stroke="#22C55E" stroke-opacity="0.18"/>
  <text x="440" y="228" fill="#15803D" font-family="sans-serif" font-size="18" font-weight="700">Perfect passes</text>
  <text x="440" y="258" fill="#14532D" font-family="sans-serif" font-size="36" font-weight="800">3</text>
  <g>
    <rect x="412" y="306" width="68" height="50" rx="16" fill="white" stroke="#22C55E" stroke-opacity="0.24"/>
    <rect x="492" y="306" width="68" height="50" rx="16" fill="white" stroke="#22C55E" stroke-opacity="0.24"/>
    <text x="430" y="338" fill="#15803D" font-family="sans-serif" font-size="16" font-weight="700">Lane 2</text>
    <text x="510" y="338" fill="#15803D" font-family="sans-serif" font-size="16" font-weight="700">Lane 3</text>
  </g>
  <defs>
    <linearGradient id="bg" x1="90" y1="58" x2="560" y2="428" gradientUnits="userSpaceOnUse">
      <stop stop-color="#F0FDF4"/>
      <stop offset="1" stop-color="#ECFCCB"/>
    </linearGradient>
    <radialGradient id="runner" cx="0" cy="0" r="1" gradientUnits="userSpaceOnUse" gradientTransform="translate(257.6 324) rotate(90) scale(28)">
      <stop stop-color="#BEF264"/>
      <stop offset="1" stop-color="#166534"/>
    </radialGradient>
  </defs>
</svg>
