<svg width="512" height="512" viewBox="0 0 512 512" fill="none" xmlns="http://www.w3.org/2000/svg">
  <title>Gap Rush corridor with a drifting runner, live wall opening, and lane target pads</title>
  <defs>
    <linearGradient id="gap-rush-background" x1="48" y1="36" x2="454" y2="474" gradientUnits="userSpaceOnUse">
      <stop stop-color="#113631" />
      <stop offset="1" stop-color="#04161c" />
    </linearGradient>
  </defs>
  <rect width="512" height="512" rx="44" fill="url(#gap-rush-background)" />
  <circle cx="410" cy="92" r="136" fill="rgba(22, 163, 74, 0.16)" />
  <circle cx="104" cy="418" r="118" fill="rgba(56, 189, 248, 0.09)" />
  <rect x="12" y="12" width="488" height="488" rx="42" fill="rgba(18, 43, 44, 0.94)" stroke="rgba(134, 194, 168, 0.16)" stroke-width="2" />
  <g transform="translate(256 256) scale(1.12) translate(-256 -256)"><rect x="168" y="56" width="176" height="364" rx="26" fill="rgba(29, 63, 58, 0.96)" stroke="rgba(134, 194, 168, 0.22)" stroke-width="1.5" /><rect x="200" y="92" width="112" height="36" rx="18" fill="rgba(134, 194, 168, 0.12)" /><rect x="200" y="164" width="56" height="40" rx="18" fill="rgba(251, 113, 133, 0.84)" /><rect x="200" y="238" width="112" height="40" rx="18" fill="rgba(134, 194, 168, 0.12)" /><rect x="256" y="312" width="56" height="40" rx="18" fill="rgba(251, 113, 133, 0.84)" /><circle cx="256" cy="356" r="18" fill="#3bb267" /><rect x="88" y="388" width="90" height="42" rx="16" fill="rgba(43, 92, 82, 0.92)" stroke="rgba(134, 194, 168, 0.24)" stroke-width="1.5" /><text x="133" y="410" font-family="'Avenir Next', 'Trebuchet MS', 'Segoe UI', sans-serif" font-weight="700" text-anchor="middle" dominant-baseline="middle" fill="#cbd5e1" font-size="24">L1</text><rect x="211" y="388" width="90" height="42" rx="16" fill="rgba(22, 163, 74, 0.28)" stroke="rgba(108, 192, 144, 0.85)" stroke-width="1.5" /><text x="256" y="410" font-family="'Avenir Next', 'Trebuchet MS', 'Segoe UI', sans-serif" font-weight="700" text-anchor="middle" dominant-baseline="middle" fill="#f8fafc" font-size="24">L2</text><rect x="334" y="388" width="90" height="42" rx="16" fill="rgba(43, 92, 82, 0.92)" stroke="rgba(134, 194, 168, 0.24)" stroke-width="1.5" /><text x="379" y="410" font-family="'Avenir Next', 'Trebuchet MS', 'Segoe UI', sans-serif" font-weight="700" text-anchor="middle" dominant-baseline="middle" fill="#cbd5e1" font-size="24">L3</text></g>
</svg>
