<svg width="512" height="512" viewBox="0 0 512 512" fill="none" xmlns="http://www.w3.org/2000/svg">
  <title>Glow Cycle node grid with a highlighted target orb and a shared sync meter</title>
  <defs>
    <linearGradient id="glow-cycle-background" x1="48" y1="36" x2="454" y2="474" gradientUnits="userSpaceOnUse">
      <stop stop-color="#134055" />
      <stop offset="1" stop-color="#051b2d" />
    </linearGradient>
  </defs>
  <rect width="512" height="512" rx="44" fill="url(#glow-cycle-background)" />
  <circle cx="410" cy="92" r="136" fill="rgba(34, 211, 238, 0.16)" />
  <circle cx="104" cy="418" r="118" fill="rgba(56, 189, 248, 0.09)" />
  <rect x="12" y="12" width="488" height="488" rx="42" fill="rgba(19, 50, 67, 0.94)" stroke="rgba(139, 212, 230, 0.16)" stroke-width="2" />
  <g transform="translate(256 256) scale(1.12) translate(-256 -256)"><rect x="84" y="114" width="226" height="226" rx="26" fill="rgba(32, 72, 88, 0.96)" stroke="rgba(139, 212, 230, 0.22)" stroke-width="1.5" /><rect x="102" y="132" width="58" height="58" rx="11" fill="#2f6177" stroke="rgba(139, 212, 230, 0.18)" stroke-width="1.2" /><circle cx="131" cy="161" r="10" fill="#cbd5e1" /><rect x="168" y="132" width="58" height="58" rx="11" fill="#2f6177" stroke="rgba(139, 212, 230, 0.18)" stroke-width="1.2" /><circle cx="197" cy="161" r="10" fill="#cbd5e1" /><rect x="234" y="132" width="58" height="58" rx="11" fill="#2f6177" stroke="rgba(139, 212, 230, 0.18)" stroke-width="1.2" /><circle cx="263" cy="161" r="10" fill="#cbd5e1" /><rect x="102" y="198" width="58" height="58" rx="11" fill="#2f6177" stroke="rgba(139, 212, 230, 0.18)" stroke-width="1.2" /><circle cx="131" cy="227" r="10" fill="#cbd5e1" /><rect x="168" y="198" width="58" height="58" rx="11" fill="#2f6177" stroke="rgba(139, 212, 230, 0.18)" stroke-width="1.2" /><circle cx="197" cy="227" r="15" fill="#45daf1" /><rect x="234" y="198" width="58" height="58" rx="11" fill="#2f6177" stroke="rgba(139, 212, 230, 0.18)" stroke-width="1.2" /><circle cx="263" cy="227" r="10" fill="#cbd5e1" /><rect x="102" y="264" width="58" height="58" rx="11" fill="#2f6177" stroke="rgba(139, 212, 230, 0.18)" stroke-width="1.2" /><circle cx="131" cy="293" r="10" fill="#cbd5e1" /><rect x="168" y="264" width="58" height="58" rx="11" fill="#2f6177" stroke="rgba(139, 212, 230, 0.18)" stroke-width="1.2" /><circle cx="197" cy="293" r="10" fill="#cbd5e1" /><rect x="234" y="264" width="58" height="58" rx="11" fill="#2f6177" stroke="rgba(139, 212, 230, 0.18)" stroke-width="1.2" /><circle cx="263" cy="293" r="10" fill="#cbd5e1" /><rect x="334" y="162" width="72" height="176" rx="26" fill="rgba(34, 197, 94, 0.14)" stroke="rgba(139, 212, 230, 0.22)" stroke-width="1.5" /><rect x="346" y="220" width="48" height="96" rx="18" fill="rgba(34, 197, 94, 0.86)" /></g>
</svg>
