<svg width="512" height="512" viewBox="0 0 512 512" fill="none" xmlns="http://www.w3.org/2000/svg">
  <title>Hidden Find scene filled with lookalike symbols and one highlighted target motif</title>
  <defs>
    <linearGradient id="hidden-find-background" x1="48" y1="36" x2="454" y2="474" gradientUnits="userSpaceOnUse">
      <stop stop-color="#433f25" />
      <stop offset="1" stop-color="#1b1a17" />
    </linearGradient>
  </defs>
  <rect width="512" height="512" rx="44" fill="url(#hidden-find-background)" />
  <circle cx="410" cy="92" r="136" fill="rgba(250, 204, 21, 0.16)" />
  <circle cx="104" cy="418" r="118" fill="rgba(56, 189, 248, 0.09)" />
  <rect x="12" y="12" width="488" height="488" rx="42" fill="rgba(50, 49, 36, 0.94)" stroke="rgba(221, 210, 147, 0.16)" stroke-width="2" />
  <g transform="translate(256 256) scale(1.12) translate(-256 -256)"><rect x="66" y="70" width="110" height="48" rx="16" fill="rgba(250, 204, 21, 0.28)" stroke="rgba(240, 216, 113, 0.85)" stroke-width="1.5" /><text x="121" y="95" font-family="'Avenir Next', 'Trebuchet MS', 'Segoe UI', sans-serif" font-weight="700" text-anchor="middle" dominant-baseline="middle" fill="#f8fafc" font-size="24">TARGET</text><rect x="194" y="64" width="88" height="60" rx="26" fill="rgba(250, 204, 21, 0.2)" stroke="rgba(221, 210, 147, 0.22)" stroke-width="1.5" /><polygon points="238,80 224,94 238,108 252,94" fill="#fbd43a" /><polygon points="238,102 230.8,118 245.2,118" fill="#cbd5e1" /><rect x="74" y="130" width="196" height="196" rx="26" fill="rgba(70, 70, 49, 0.96)" stroke="rgba(221, 210, 147, 0.22)" stroke-width="1.5" /><rect x="92" y="148" width="48" height="48" rx="9" fill="#5f6047" stroke="rgba(221, 210, 147, 0.18)" stroke-width="1.2" /><g><polygon points="120,166 110,176 120,186 130,176" fill="#cbd5e1" /><polygon points="120,184 114.6,196 125.4,196" fill="#cbd5e1" /></g><rect x="148" y="148" width="48" height="48" rx="9" fill="#5f6047" stroke="rgba(221, 210, 147, 0.18)" stroke-width="1.2" /><g><circle cx="176" cy="176" r="10" fill="#cbd5e1" /><polygon points="176,184 170.6,196 181.4,196" fill="#cbd5e1" /></g><rect x="204" y="148" width="48" height="48" rx="9" fill="#5f6047" stroke="rgba(221, 210, 147, 0.18)" stroke-width="1.2" /><g><polygon points="232,166 222,176 232,186 242,176" fill="#cbd5e1" /><rect x="226" y="184" width="12" height="12" rx="2.64" fill="#cbd5e1" /></g><rect x="92" y="204" width="48" height="48" rx="9" fill="#5f6047" stroke="rgba(221, 210, 147, 0.18)" stroke-width="1.2" /><g><rect x="110" y="222" width="20" height="20" rx="4.4" fill="#cbd5e1" /><polygon points="120,240 114.6,252 125.4,252" fill="#cbd5e1" /></g><rect x="148" y="204" width="48" height="48" rx="9" fill="#5f6047" stroke="rgba(221, 210, 147, 0.18)" stroke-width="1.2" /><g><polygon points="176,222 166,232 176,242 186,232" fill="#fbd43a" /><polygon points="176,240 170.6,252 181.4,252" fill="#cbd5e1" /></g><rect x="204" y="204" width="48" height="48" rx="9" fill="#5f6047" stroke="rgba(221, 210, 147, 0.18)" stroke-width="1.2" /><g><circle cx="232" cy="232" r="10" fill="#cbd5e1" /><rect x="226" y="240" width="12" height="12" rx="2.64" fill="#cbd5e1" /></g><rect x="92" y="260" width="48" height="48" rx="9" fill="#5f6047" stroke="rgba(221, 210, 147, 0.18)" stroke-width="1.2" /><g><polygon points="120,278 110,288 120,298 130,288" fill="#cbd5e1" /><circle cx="120" cy="302" r="6" fill="#cbd5e1" /></g><rect x="148" y="260" width="48" height="48" rx="9" fill="#5f6047" stroke="rgba(221, 210, 147, 0.18)" stroke-width="1.2" /><g><rect x="166" y="278" width="20" height="20" rx="4.4" fill="#cbd5e1" /><polygon points="176,296 170.6,308 181.4,308" fill="#cbd5e1" /></g><rect x="204" y="260" width="48" height="48" rx="9" fill="#5f6047" stroke="rgba(221, 210, 147, 0.18)" stroke-width="1.2" /><g><circle cx="232" cy="288" r="10" fill="none" stroke="#cbd5e1" stroke-width="3.4000000000000004" /><polygon points="232,296 226.6,308 237.4,308" fill="#cbd5e1" /></g><circle cx="176" cy="232" r="28" fill="none" stroke="rgba(251, 212, 58, 0.42)" stroke-width="8" /><circle cx="176" cy="232" r="11.76" fill="#fbd43a" /></g>
</svg>
