<svg width="320" height="200" viewBox="0 0 320 200" fill="none" xmlns="http://www.w3.org/2000/svg">
  <rect width="320" height="200" rx="24" fill="#020617"/>
  <rect x="18" y="18" width="284" height="164" rx="20" fill="#0F172A"/>
  <rect x="32" y="30" width="256" height="36" rx="14" fill="#111827"/>
  <rect x="42" y="40" width="40" height="16" rx="8" fill="#F59E0B"/>
  <rect x="90" y="40" width="40" height="16" rx="8" fill="#22C55E"/>
  <rect x="138" y="40" width="40" height="16" rx="8" fill="#38BDF8"/>
  <rect x="186" y="40" width="40" height="16" rx="8" fill="#A78BFA"/>
  <rect x="234" y="40" width="40" height="16" rx="8" fill="#14B8A6"/>
  <rect x="32" y="80" width="120" height="42" rx="14" fill="#111827" stroke="#334155"/>
  <rect x="168" y="80" width="120" height="42" rx="14" fill="#111827" stroke="#334155"/>
  <rect x="32" y="132" width="120" height="42" rx="14" fill="#111827" stroke="#334155"/>
  <rect x="168" y="132" width="120" height="42" rx="14" fill="#111827" stroke="#334155"/>
  <rect x="42" y="93" width="28" height="16" rx="8" fill="#F59E0B"/>
  <rect x="178" y="93" width="28" height="16" rx="8" fill="#A78BFA"/>
  <rect x="42" y="145" width="28" height="16" rx="8" fill="#38BDF8"/>
  <rect x="178" y="145" width="28" height="16" rx="8" fill="#14B8A6"/>
  <rect x="82" y="93" width="58" height="8" rx="4" fill="#CBD5E1" fill-opacity="0.9"/>
  <rect x="82" y="106" width="42" height="6" rx="3" fill="#64748B"/>
  <rect x="218" y="93" width="58" height="8" rx="4" fill="#CBD5E1" fill-opacity="0.9"/>
  <rect x="218" y="106" width="42" height="6" rx="3" fill="#64748B"/>
  <rect x="82" y="145" width="58" height="8" rx="4" fill="#CBD5E1" fill-opacity="0.9"/>
  <rect x="82" y="158" width="42" height="6" rx="3" fill="#64748B"/>
  <rect x="218" y="145" width="58" height="8" rx="4" fill="#CBD5E1" fill-opacity="0.9"/>
  <rect x="218" y="158" width="42" height="6" rx="3" fill="#64748B"/>
</svg>
