<svg width="640" height="360" viewBox="0 0 640 360" fill="none" xmlns="http://www.w3.org/2000/svg">
  <rect width="640" height="360" rx="28" fill="#0F172A"/>
  <rect x="22" y="22" width="596" height="316" rx="22" fill="url(#bg)"/>
  <rect x="48" y="56" width="236" height="248" rx="18" fill="#F8FAFC" fill-opacity="0.94"/>
  <rect x="306" y="56" width="286" height="248" rx="18" fill="#E2E8F0" fill-opacity="0.92"/>
  <rect x="68" y="78" width="124" height="20" rx="10" fill="#0EA5E9" fill-opacity="0.22"/>
  <rect x="68" y="112" width="172" height="14" rx="7" fill="#1E293B" fill-opacity="0.15"/>
  <rect x="68" y="136" width="190" height="14" rx="7" fill="#1E293B" fill-opacity="0.12"/>
  <rect x="68" y="160" width="170" height="14" rx="7" fill="#1E293B" fill-opacity="0.12"/>
  <rect x="68" y="196" width="68" height="68" rx="14" fill="#DBEAFE"/>
  <path d="M87 227H117" stroke="#2563EB" stroke-width="8" stroke-linecap="round"/>
  <path d="M102 212V242" stroke="#2563EB" stroke-width="8" stroke-linecap="round"/>
  <rect x="150" y="196" width="108" height="68" rx="14" fill="#E0F2FE"/>
  <rect x="326" y="78" width="102" height="18" rx="9" fill="#334155" fill-opacity="0.14"/>
  <rect x="326" y="110" width="246" height="48" rx="16" fill="#F8FAFC"/>
  <rect x="326" y="172" width="118" height="44" rx="14" fill="#ECFCCB"/>
  <rect x="454" y="172" width="118" height="44" rx="14" fill="#FEE2E2"/>
  <rect x="326" y="226" width="118" height="44" rx="14" fill="#DBEAFE"/>
  <rect x="454" y="226" width="118" height="44" rx="14" fill="#FEF3C7"/>
  <rect x="358" y="287" width="182" height="10" rx="5" fill="#0F172A" fill-opacity="0.10"/>
  <path d="M340 126H561" stroke="#0F172A" stroke-width="8" stroke-linecap="round" opacity="0.12"/>
  <path d="M340 141H504" stroke="#0F172A" stroke-width="8" stroke-linecap="round" opacity="0.08"/>
  <defs>
    <linearGradient id="bg" x1="60" y1="44" x2="570" y2="320" gradientUnits="userSpaceOnUse">
      <stop stop-color="#082F49"/>
      <stop offset="1" stop-color="#134E4A"/>
    </linearGradient>
  </defs>
</svg>