<svg width="512" height="512" viewBox="0 0 512 512" fill="none" xmlns="http://www.w3.org/2000/svg">
  <title>Light Grid target and live boards shown side by side</title>
  <defs>
    <linearGradient id="light-grid-background" x1="48" y1="36" x2="454" y2="474" gradientUnits="userSpaceOnUse">
      <stop stop-color="#0d3a4f" />
      <stop offset="1" stop-color="#02182a" />
    </linearGradient>
  </defs>
  <rect width="512" height="512" rx="44" fill="url(#light-grid-background)" />
  <circle cx="410" cy="92" r="136" fill="rgba(6, 182, 212, 0.16)" />
  <circle cx="104" cy="418" r="118" fill="rgba(56, 189, 248, 0.09)" />
  <rect x="12" y="12" width="488" height="488" rx="42" fill="rgba(15, 46, 63, 0.94)" stroke="rgba(128, 201, 220, 0.16)" stroke-width="2" />
  <g transform="translate(256 256) scale(1.12) translate(-256 -256)"><rect x="74" y="142" width="160" height="160" rx="26" fill="rgba(27, 66, 83, 0.96)" stroke="rgba(128, 201, 220, 0.22)" stroke-width="1.5" /><rect x="92" y="160" width="36" height="36" rx="7" fill="#295b71" stroke="rgba(128, 201, 220, 0.18)" stroke-width="1.2" /><rect x="136" y="160" width="36" height="36" rx="7" fill="rgba(6, 182, 212, 0.26)" stroke="rgba(128, 201, 220, 0.18)" stroke-width="1.2" /><rect x="180" y="160" width="36" height="36" rx="7" fill="#295b71" stroke="rgba(128, 201, 220, 0.18)" stroke-width="1.2" /><rect x="92" y="204" width="36" height="36" rx="7" fill="rgba(6, 182, 212, 0.26)" stroke="rgba(128, 201, 220, 0.18)" stroke-width="1.2" /><rect x="136" y="204" width="36" height="36" rx="7" fill="#295b71" stroke="rgba(128, 201, 220, 0.18)" stroke-width="1.2" /><rect x="180" y="204" width="36" height="36" rx="7" fill="rgba(6, 182, 212, 0.26)" stroke="rgba(128, 201, 220, 0.18)" stroke-width="1.2" /><rect x="92" y="248" width="36" height="36" rx="7" fill="#295b71" stroke="rgba(128, 201, 220, 0.18)" stroke-width="1.2" /><rect x="136" y="248" width="36" height="36" rx="7" fill="rgba(6, 182, 212, 0.26)" stroke="rgba(128, 201, 220, 0.18)" stroke-width="1.2" /><rect x="180" y="248" width="36" height="36" rx="7" fill="#295b71" stroke="rgba(128, 201, 220, 0.18)" stroke-width="1.2" /><rect x="272" y="142" width="160" height="160" rx="26" fill="rgba(27, 66, 83, 0.96)" stroke="rgba(128, 201, 220, 0.22)" stroke-width="1.5" /><rect x="290" y="160" width="36" height="36" rx="7" fill="#295b71" stroke="rgba(128, 201, 220, 0.18)" stroke-width="1.2" /><rect x="334" y="160" width="36" height="36" rx="7" fill="rgba(6, 182, 212, 0.26)" stroke="rgba(128, 201, 220, 0.18)" stroke-width="1.2" /><rect x="378" y="160" width="36" height="36" rx="7" fill="#295b71" stroke="rgba(128, 201, 220, 0.18)" stroke-width="1.2" /><rect x="290" y="204" width="36" height="36" rx="7" fill="rgba(6, 182, 212, 0.26)" stroke="rgba(128, 201, 220, 0.18)" stroke-width="1.2" /><rect x="334" y="204" width="36" height="36" rx="7" fill="rgba(6, 182, 212, 0.26)" stroke="rgba(128, 201, 220, 0.18)" stroke-width="1.2" /><rect x="378" y="204" width="36" height="36" rx="7" fill="rgba(6, 182, 212, 0.26)" stroke="rgba(128, 201, 220, 0.18)" stroke-width="1.2" /><rect x="290" y="248" width="36" height="36" rx="7" fill="#295b71" stroke="rgba(128, 201, 220, 0.18)" stroke-width="1.2" /><rect x="334" y="248" width="36" height="36" rx="7" fill="rgba(6, 182, 212, 0.26)" stroke="rgba(128, 201, 220, 0.18)" stroke-width="1.2" /><rect x="378" y="248" width="36" height="36" rx="7" fill="#295b71" stroke="rgba(128, 201, 220, 0.18)" stroke-width="1.2" /><line x1="232" y1="220" x2="280" y2="220" stroke="#38bdf8" stroke-linecap="round" stroke-width="6" /><polygon points="280,220 262,212 262,228" fill="#38bdf8" /></g>
</svg>
