<svg xmlns="http://www.w3.org/2000/svg" viewBox="60 0 200 200" role="img" aria-labelledby="title desc">
  <title id="title">Light Grid preview</title>
  <desc id="desc">Two small light grids shown side by side for target and live states.</desc>
  <rect width="320" height="200" rx="28" fill="#083344"/>
  <g transform="translate(46 44)">
    <g fill="#0f172a">
      <rect x="0" y="0" width="34" height="34" rx="8"/><rect x="42" y="0" width="34" height="34" rx="8"/><rect x="84" y="0" width="34" height="34" rx="8"/>
      <rect x="0" y="42" width="34" height="34" rx="8"/><rect x="42" y="42" width="34" height="34" rx="8"/><rect x="84" y="42" width="34" height="34" rx="8"/>
      <rect x="0" y="84" width="34" height="34" rx="8"/><rect x="42" y="84" width="34" height="34" rx="8"/><rect x="84" y="84" width="34" height="34" rx="8"/>
    </g>
    <g fill="#67e8f9">
      <rect x="0" y="0" width="34" height="34" rx="8"/><rect x="84" y="0" width="34" height="34" rx="8"/>
      <rect x="42" y="42" width="34" height="34" rx="8"/><rect x="0" y="84" width="34" height="34" rx="8"/><rect x="84" y="84" width="34" height="34" rx="8"/>
    </g>
  </g>
  <g transform="translate(176 44)">
    <g fill="#0f172a">
      <rect x="0" y="0" width="34" height="34" rx="8"/><rect x="42" y="0" width="34" height="34" rx="8"/><rect x="84" y="0" width="34" height="34" rx="8"/>
      <rect x="0" y="42" width="34" height="34" rx="8"/><rect x="42" y="42" width="34" height="34" rx="8"/><rect x="84" y="42" width="34" height="34" rx="8"/>
      <rect x="0" y="84" width="34" height="34" rx="8"/><rect x="42" y="84" width="34" height="34" rx="8"/><rect x="84" y="84" width="34" height="34" rx="8"/>
    </g>
    <g fill="#22d3ee">
      <rect x="42" y="0" width="34" height="34" rx="8"/><rect x="42" y="42" width="34" height="34" rx="8"/>
      <rect x="0" y="84" width="34" height="34" rx="8"/><rect x="84" y="84" width="34" height="34" rx="8"/>
    </g>
  </g>
</svg>
