<svg width="512" height="512" viewBox="0 0 512 512" fill="none" xmlns="http://www.w3.org/2000/svg">
  <title>Line Connect grid with labeled node pairs, an active route, and a step-by-step path build</title>
  <defs>
    <linearGradient id="line-connect-background" x1="48" y1="36" x2="454" y2="474" gradientUnits="userSpaceOnUse">
      <stop stop-color="#183c57" />
      <stop offset="1" stop-color="#07182e" />
    </linearGradient>
  </defs>
  <rect width="512" height="512" rx="44" fill="url(#line-connect-background)" />
  <circle cx="410" cy="92" r="136" fill="rgba(56, 189, 248, 0.16)" />
  <circle cx="104" cy="418" r="118" fill="rgba(56, 189, 248, 0.09)" />
  <rect x="12" y="12" width="488" height="488" rx="42" fill="rgba(22, 47, 68, 0.94)" stroke="rgba(147, 204, 234, 0.16)" stroke-width="2" />
  <g transform="translate(256 256) scale(1.12) translate(-256 -256)"><rect x="82" y="100" width="254" height="254" rx="26" fill="rgba(36, 68, 90, 0.96)" stroke="rgba(147, 204, 234, 0.22)" stroke-width="1.5" /><rect x="100" y="118" width="50" height="50" rx="10" fill="#345c79" stroke="rgba(147, 204, 234, 0.18)" stroke-width="1.2" /><circle cx="126" cy="144" r="16" fill="none" stroke="rgba(56, 189, 248, 0.42)" stroke-width="8" /><circle cx="126" cy="144" r="6.72" fill="#38bdf8" /><rect x="156" y="118" width="50" height="50" rx="10" fill="#345c79" stroke="rgba(147, 204, 234, 0.18)" stroke-width="1.2" /><rect x="212" y="118" width="50" height="50" rx="10" fill="#345c79" stroke="rgba(147, 204, 234, 0.18)" stroke-width="1.2" /><rect x="268" y="118" width="50" height="50" rx="10" fill="#345c79" stroke="rgba(147, 204, 234, 0.18)" stroke-width="1.2" /><circle cx="294" cy="144" r="16" fill="none" stroke="rgba(245, 158, 11, 0.42)" stroke-width="8" /><circle cx="294" cy="144" r="6.72" fill="#f59e0b" /><rect x="100" y="174" width="50" height="50" rx="10" fill="#345c79" stroke="rgba(147, 204, 234, 0.18)" stroke-width="1.2" /><rect x="156" y="174" width="50" height="50" rx="10" fill="#345c79" stroke="rgba(147, 204, 234, 0.18)" stroke-width="1.2" /><rect x="212" y="174" width="50" height="50" rx="10" fill="#345c79" stroke="rgba(147, 204, 234, 0.18)" stroke-width="1.2" /><rect x="268" y="174" width="50" height="50" rx="10" fill="#345c79" stroke="rgba(147, 204, 234, 0.18)" stroke-width="1.2" /><rect x="100" y="230" width="50" height="50" rx="10" fill="#345c79" stroke="rgba(147, 204, 234, 0.18)" stroke-width="1.2" /><rect x="156" y="230" width="50" height="50" rx="10" fill="#345c79" stroke="rgba(147, 204, 234, 0.18)" stroke-width="1.2" /><rect x="212" y="230" width="50" height="50" rx="10" fill="#345c79" stroke="rgba(147, 204, 234, 0.18)" stroke-width="1.2" /><rect x="268" y="230" width="50" height="50" rx="10" fill="#345c79" stroke="rgba(147, 204, 234, 0.18)" stroke-width="1.2" /><rect x="100" y="286" width="50" height="50" rx="10" fill="#345c79" stroke="rgba(147, 204, 234, 0.18)" stroke-width="1.2" /><circle cx="126" cy="312" r="16" fill="none" stroke="rgba(56, 189, 248, 0.42)" stroke-width="8" /><circle cx="126" cy="312" r="6.72" fill="#38bdf8" /><rect x="156" y="286" width="50" height="50" rx="10" fill="#345c79" stroke="rgba(147, 204, 234, 0.18)" stroke-width="1.2" /><rect x="212" y="286" width="50" height="50" rx="10" fill="#345c79" stroke="rgba(147, 204, 234, 0.18)" stroke-width="1.2" /><rect x="268" y="286" width="50" height="50" rx="10" fill="#345c79" stroke="rgba(147, 204, 234, 0.18)" stroke-width="1.2" /><circle cx="294" cy="312" r="16" fill="none" stroke="rgba(245, 158, 11, 0.42)" stroke-width="8" /><circle cx="294" cy="312" r="6.72" fill="#f59e0b" /><path d="M126 144 L180 144 L180 222 L238 222 L238 312 L294 312" fill="none" stroke="#58c8f9" stroke-linecap="round" stroke-linejoin="round" stroke-width="10" /></g>
</svg>
