<svg width="640" height="360" viewBox="0 0 640 360" fill="none" xmlns="http://www.w3.org/2000/svg">
  <rect width="640" height="360" rx="36" fill="#0F172A"/>
  <rect x="28" y="28" width="584" height="304" rx="28" fill="#111827" stroke="#334155" stroke-width="2"/>
  <rect x="52" y="52" width="200" height="72" rx="18" fill="#0F172A" stroke="#334155"/>
  <text x="76" y="84" fill="#E2E8F0" font-family="sans-serif" font-size="20" font-weight="700">Active pair A</text>
  <text x="76" y="108" fill="#94A3B8" font-family="sans-serif" font-size="16">Next segment S6</text>
  <g transform="translate(298 52)">
    <rect width="290" height="72" rx="18" fill="#0F172A" stroke="#334155"/>
    <rect x="22" y="22" width="42" height="28" rx="14" fill="#FBBF24"/>
    <rect x="80" y="22" width="42" height="28" rx="14" fill="#67E8F9"/>
    <rect x="138" y="22" width="42" height="28" rx="14" fill="#A3E635"/>
    <rect x="196" y="22" width="42" height="28" rx="14" fill="#F9A8D4"/>
    <text x="43" y="42" fill="#0F172A" font-family="sans-serif" font-size="14" font-weight="700" text-anchor="middle">A</text>
    <text x="101" y="42" fill="#0F172A" font-family="sans-serif" font-size="14" font-weight="700" text-anchor="middle">B</text>
    <text x="159" y="42" fill="#0F172A" font-family="sans-serif" font-size="14" font-weight="700" text-anchor="middle">C</text>
    <text x="217" y="42" fill="#0F172A" font-family="sans-serif" font-size="14" font-weight="700" text-anchor="middle">D</text>
  </g>
  <g transform="translate(84 150)">
    <rect width="472" height="150" rx="26" fill="#0F172A" stroke="#334155"/>
    <g fill="#1E293B">
      <rect x="18" y="18" width="72" height="72" rx="18"/>
      <rect x="106" y="18" width="72" height="72" rx="18"/>
      <rect x="194" y="18" width="72" height="72" rx="18"/>
      <rect x="282" y="18" width="72" height="72" rx="18"/>
      <rect x="370" y="18" width="72" height="72" rx="18"/>
      <rect x="18" y="100" width="72" height="72" rx="18"/>
      <rect x="106" y="100" width="72" height="72" rx="18"/>
      <rect x="194" y="100" width="72" height="72" rx="18"/>
      <rect x="282" y="100" width="72" height="72" rx="18"/>
      <rect x="370" y="100" width="72" height="72" rx="18"/>
    </g>
    <rect x="34" y="34" width="40" height="40" rx="20" fill="#FBBF24"/>
    <rect x="34" y="116" width="40" height="40" rx="20" fill="#FBBF24"/>
    <rect x="122" y="34" width="40" height="40" rx="20" fill="#0EA5E9"/>
    <rect x="210" y="34" width="40" height="40" rx="20" fill="#0EA5E9"/>
    <rect x="122" y="116" width="40" height="40" rx="20" fill="#A3E635"/>
    <rect x="210" y="116" width="40" height="40" rx="20" fill="#A3E635"/>
    <rect x="78" y="49" width="52" height="10" rx="5" fill="#FBBF24"/>
    <rect x="78" y="131" width="52" height="10" rx="5" fill="#A3E635"/>
    <rect x="122" y="72" width="10" height="58" rx="5" fill="#FBBF24"/>
    <text x="54" y="58" fill="#0F172A" font-family="sans-serif" font-size="16" font-weight="700" text-anchor="middle">A</text>
    <text x="54" y="140" fill="#0F172A" font-family="sans-serif" font-size="16" font-weight="700" text-anchor="middle">A</text>
    <text x="142" y="58" fill="#0F172A" font-family="sans-serif" font-size="16" font-weight="700" text-anchor="middle">B</text>
    <text x="230" y="58" fill="#0F172A" font-family="sans-serif" font-size="16" font-weight="700" text-anchor="middle">B</text>
    <text x="142" y="140" fill="#0F172A" font-family="sans-serif" font-size="16" font-weight="700" text-anchor="middle">C</text>
    <text x="230" y="140" fill="#0F172A" font-family="sans-serif" font-size="16" font-weight="700" text-anchor="middle">C</text>
  </g>
</svg>
