<svg width="512" height="512" viewBox="0 0 512 512" fill="none" xmlns="http://www.w3.org/2000/svg">
  <title>Merge Climb number board with directional controls, a goal tile, and a next spawn panel</title>
  <defs>
    <linearGradient id="merge-climb-background" x1="48" y1="36" x2="454" y2="474" gradientUnits="userSpaceOnUse">
      <stop stop-color="#422b26" />
      <stop offset="1" stop-color="#1b1117" />
    </linearGradient>
  </defs>
  <rect width="512" height="512" rx="44" fill="url(#merge-climb-background)" />
  <circle cx="410" cy="92" r="136" fill="rgba(249, 115, 22, 0.16)" />
  <circle cx="104" cy="418" r="118" fill="rgba(56, 189, 248, 0.09)" />
  <rect x="12" y="12" width="488" height="488" rx="42" fill="rgba(49, 37, 37, 0.94)" stroke="rgba(220, 176, 148, 0.16)" stroke-width="2" />
  <g transform="translate(256 256) scale(1.12) translate(-256 -256)"><rect x="72" y="94" width="260" height="260" rx="26" fill="rgba(70, 54, 49, 0.96)" stroke="rgba(220, 176, 148, 0.22)" stroke-width="1.5" /><rect x="90" y="112" width="50" height="50" rx="10" fill="rgba(245, 158, 11, 0.28)" stroke="rgba(220, 176, 148, 0.18)" stroke-width="1.2" /><text x="115" y="138" font-family="'Avenir Next', 'Trebuchet MS', 'Segoe UI', sans-serif" font-weight="700" text-anchor="middle" dominant-baseline="middle" fill="#f8fafc" font-size="23">2</text><rect x="148" y="112" width="50" height="50" rx="10" fill="rgba(56, 189, 248, 0.24)" stroke="rgba(220, 176, 148, 0.18)" stroke-width="1.2" /><text x="173" y="138" font-family="'Avenir Next', 'Trebuchet MS', 'Segoe UI', sans-serif" font-weight="700" text-anchor="middle" dominant-baseline="middle" fill="#f8fafc" font-size="23">4</text><rect x="206" y="112" width="50" height="50" rx="10" fill="#5f4c47" stroke="rgba(220, 176, 148, 0.18)" stroke-width="1.2" /><rect x="264" y="112" width="50" height="50" rx="10" fill="#5f4c47" stroke="rgba(220, 176, 148, 0.18)" stroke-width="1.2" /><rect x="90" y="170" width="50" height="50" rx="10" fill="#5f4c47" stroke="rgba(220, 176, 148, 0.18)" stroke-width="1.2" /><rect x="148" y="170" width="50" height="50" rx="10" fill="rgba(249, 115, 22, 0.22)" stroke="rgba(220, 176, 148, 0.18)" stroke-width="1.2" /><text x="173" y="196" font-family="'Avenir Next', 'Trebuchet MS', 'Segoe UI', sans-serif" font-weight="700" text-anchor="middle" dominant-baseline="middle" fill="#f8fafc" font-size="23">8</text><rect x="206" y="170" width="50" height="50" rx="10" fill="#5f4c47" stroke="rgba(220, 176, 148, 0.18)" stroke-width="1.2" /><rect x="264" y="170" width="50" height="50" rx="10" fill="#5f4c47" stroke="rgba(220, 176, 148, 0.18)" stroke-width="1.2" /><rect x="90" y="228" width="50" height="50" rx="10" fill="#5f4c47" stroke="rgba(220, 176, 148, 0.18)" stroke-width="1.2" /><rect x="148" y="228" width="50" height="50" rx="10" fill="#5f4c47" stroke="rgba(220, 176, 148, 0.18)" stroke-width="1.2" /><rect x="206" y="228" width="50" height="50" rx="10" fill="rgba(34, 197, 94, 0.22)" stroke="rgba(220, 176, 148, 0.18)" stroke-width="1.2" /><text x="231" y="254" font-family="'Avenir Next', 'Trebuchet MS', 'Segoe UI', sans-serif" font-weight="700" text-anchor="middle" dominant-baseline="middle" fill="#f8fafc" font-size="18">16</text><rect x="264" y="228" width="50" height="50" rx="10" fill="#5f4c47" stroke="rgba(220, 176, 148, 0.18)" stroke-width="1.2" /><rect x="90" y="286" width="50" height="50" rx="10" fill="#5f4c47" stroke="rgba(220, 176, 148, 0.18)" stroke-width="1.2" /><rect x="148" y="286" width="50" height="50" rx="10" fill="#5f4c47" stroke="rgba(220, 176, 148, 0.18)" stroke-width="1.2" /><rect x="206" y="286" width="50" height="50" rx="10" fill="#5f4c47" stroke="rgba(220, 176, 148, 0.18)" stroke-width="1.2" /><rect x="264" y="286" width="50" height="50" rx="10" fill="rgba(245, 158, 11, 0.32)" stroke="rgba(220, 176, 148, 0.18)" stroke-width="1.2" /><text x="289" y="312" font-family="'Avenir Next', 'Trebuchet MS', 'Segoe UI', sans-serif" font-weight="700" text-anchor="middle" dominant-baseline="middle" fill="#f8fafc" font-size="18">32</text><rect x="370" y="134" width="64" height="42" rx="16" fill="rgba(106, 79, 67, 0.92)" stroke="rgba(220, 176, 148, 0.24)" stroke-width="1.5" /><text x="402" y="156" font-family="'Avenir Next', 'Trebuchet MS', 'Segoe UI', sans-serif" font-weight="700" text-anchor="middle" dominant-baseline="middle" fill="#cbd5e1" font-size="17.92">UP</text><rect x="370" y="188" width="64" height="42" rx="16" fill="rgba(249, 115, 22, 0.28)" stroke="rgba(239, 164, 114, 0.85)" stroke-width="1.5" /><text x="402" y="210" font-family="'Avenir Next', 'Trebuchet MS', 'Segoe UI', sans-serif" font-weight="700" text-anchor="middle" dominant-baseline="middle" fill="#f8fafc" font-size="17.92">RT</text><rect x="370" y="242" width="64" height="42" rx="16" fill="rgba(106, 79, 67, 0.92)" stroke="rgba(220, 176, 148, 0.24)" stroke-width="1.5" /><text x="402" y="264" font-family="'Avenir Next', 'Trebuchet MS', 'Segoe UI', sans-serif" font-weight="700" text-anchor="middle" dominant-baseline="middle" fill="#cbd5e1" font-size="17.92">DN</text><rect x="370" y="296" width="64" height="42" rx="16" fill="rgba(106, 79, 67, 0.92)" stroke="rgba(220, 176, 148, 0.24)" stroke-width="1.5" /><text x="402" y="318" font-family="'Avenir Next', 'Trebuchet MS', 'Segoe UI', sans-serif" font-weight="700" text-anchor="middle" dominant-baseline="middle" fill="#cbd5e1" font-size="17.92">NX</text></g>
</svg>
