<svg width="512" height="512" viewBox="0 0 512 512" fill="none" xmlns="http://www.w3.org/2000/svg">
  <title>Minesweeper board with opened cells and numbered hints</title>
  <defs>
    <linearGradient id="minesweeper-background" x1="48" y1="36" x2="454" y2="474" gradientUnits="userSpaceOnUse">
      <stop stop-color="#3f2523" />
      <stop offset="1" stop-color="#190e16" />
    </linearGradient>
  </defs>
  <rect width="512" height="512" rx="44" fill="url(#minesweeper-background)" />
  <circle cx="410" cy="92" r="136" fill="rgba(234, 88, 12, 0.16)" />
  <circle cx="104" cy="418" r="118" fill="rgba(56, 189, 248, 0.09)" />
  <rect x="12" y="12" width="488" height="488" rx="42" fill="rgba(47, 33, 35, 0.94)" stroke="rgba(215, 166, 144, 0.16)" stroke-width="2" />
  <g transform="translate(256 256) scale(1.12) translate(-256 -256)"><rect x="88" y="76" width="308" height="308" rx="26" fill="rgba(68, 49, 47, 0.96)" stroke="rgba(215, 166, 144, 0.22)" stroke-width="1.5" /><rect x="106" y="94" width="42" height="42" rx="8" fill="#cbd5e1" stroke="rgba(215, 166, 144, 0.18)" stroke-width="1.2" /><text x="127" y="116" font-family="'Avenir Next', 'Trebuchet MS', 'Segoe UI', sans-serif" font-weight="700" text-anchor="middle" dominant-baseline="middle" fill="#38bdf8" font-size="19">1</text><rect x="152" y="94" width="42" height="42" rx="8" fill="#e2e8f0" stroke="rgba(215, 166, 144, 0.18)" stroke-width="1.2" /><text x="173" y="116" font-family="'Avenir Next', 'Trebuchet MS', 'Segoe UI', sans-serif" font-weight="700" text-anchor="middle" dominant-baseline="middle" fill="#22c55e" font-size="19">1</text><rect x="198" y="94" width="42" height="42" rx="8" fill="#5b4645" stroke="rgba(215, 166, 144, 0.18)" stroke-width="1.2" /><rect x="244" y="94" width="42" height="42" rx="8" fill="#5b4645" stroke="rgba(215, 166, 144, 0.18)" stroke-width="1.2" /><rect x="290" y="94" width="42" height="42" rx="8" fill="#5b4645" stroke="rgba(215, 166, 144, 0.18)" stroke-width="1.2" /><rect x="336" y="94" width="42" height="42" rx="8" fill="#5b4645" stroke="rgba(215, 166, 144, 0.18)" stroke-width="1.2" /><rect x="106" y="140" width="42" height="42" rx="8" fill="#e2e8f0" stroke="rgba(215, 166, 144, 0.18)" stroke-width="1.2" /><text x="127" y="162" font-family="'Avenir Next', 'Trebuchet MS', 'Segoe UI', sans-serif" font-weight="700" text-anchor="middle" dominant-baseline="middle" fill="#f59e0b" font-size="19">2</text><rect x="152" y="140" width="42" height="42" rx="8" fill="#cbd5e1" stroke="rgba(215, 166, 144, 0.18)" stroke-width="1.2" /><text x="191" y="191" font-family="'Avenir Next', 'Trebuchet MS', 'Segoe UI', sans-serif" font-weight="700" text-anchor="middle" dominant-baseline="middle" fill="#fb7185" font-size="30">*</text><rect x="198" y="140" width="42" height="42" rx="8" fill="#5b4645" stroke="rgba(215, 166, 144, 0.18)" stroke-width="1.2" /><rect x="244" y="140" width="42" height="42" rx="8" fill="#5b4645" stroke="rgba(215, 166, 144, 0.18)" stroke-width="1.2" /><rect x="290" y="140" width="42" height="42" rx="8" fill="#5b4645" stroke="rgba(215, 166, 144, 0.18)" stroke-width="1.2" /><rect x="336" y="140" width="42" height="42" rx="8" fill="#5b4645" stroke="rgba(215, 166, 144, 0.18)" stroke-width="1.2" /><rect x="106" y="186" width="42" height="42" rx="8" fill="#cbd5e1" stroke="rgba(215, 166, 144, 0.18)" stroke-width="1.2" /><text x="127" y="208" font-family="'Avenir Next', 'Trebuchet MS', 'Segoe UI', sans-serif" font-weight="700" text-anchor="middle" dominant-baseline="middle" fill="#38bdf8" font-size="19">1</text><rect x="152" y="186" width="42" height="42" rx="8" fill="#e2e8f0" stroke="rgba(215, 166, 144, 0.18)" stroke-width="1.2" /><text x="173" y="208" font-family="'Avenir Next', 'Trebuchet MS', 'Segoe UI', sans-serif" font-weight="700" text-anchor="middle" dominant-baseline="middle" fill="#f59e0b" font-size="19">2</text><rect x="198" y="186" width="42" height="42" rx="8" fill="#5b4645" stroke="rgba(215, 166, 144, 0.18)" stroke-width="1.2" /><text x="239" y="239" font-family="'Avenir Next', 'Trebuchet MS', 'Segoe UI', sans-serif" font-weight="700" text-anchor="middle" dominant-baseline="middle" fill="#ed7333" font-size="24">F</text><rect x="244" y="186" width="42" height="42" rx="8" fill="#5b4645" stroke="rgba(215, 166, 144, 0.18)" stroke-width="1.2" /><rect x="290" y="186" width="42" height="42" rx="8" fill="#5b4645" stroke="rgba(215, 166, 144, 0.18)" stroke-width="1.2" /><rect x="336" y="186" width="42" height="42" rx="8" fill="#5b4645" stroke="rgba(215, 166, 144, 0.18)" stroke-width="1.2" /><rect x="106" y="232" width="42" height="42" rx="8" fill="#5b4645" stroke="rgba(215, 166, 144, 0.18)" stroke-width="1.2" /><rect x="152" y="232" width="42" height="42" rx="8" fill="#5b4645" stroke="rgba(215, 166, 144, 0.18)" stroke-width="1.2" /><rect x="198" y="232" width="42" height="42" rx="8" fill="#5b4645" stroke="rgba(215, 166, 144, 0.18)" stroke-width="1.2" /><rect x="244" y="232" width="42" height="42" rx="8" fill="#5b4645" stroke="rgba(215, 166, 144, 0.18)" stroke-width="1.2" /><rect x="290" y="232" width="42" height="42" rx="8" fill="#5b4645" stroke="rgba(215, 166, 144, 0.18)" stroke-width="1.2" /><rect x="336" y="232" width="42" height="42" rx="8" fill="#5b4645" stroke="rgba(215, 166, 144, 0.18)" stroke-width="1.2" /><rect x="106" y="278" width="42" height="42" rx="8" fill="#5b4645" stroke="rgba(215, 166, 144, 0.18)" stroke-width="1.2" /><rect x="152" y="278" width="42" height="42" rx="8" fill="#5b4645" stroke="rgba(215, 166, 144, 0.18)" stroke-width="1.2" /><rect x="198" y="278" width="42" height="42" rx="8" fill="#5b4645" stroke="rgba(215, 166, 144, 0.18)" stroke-width="1.2" /><rect x="244" y="278" width="42" height="42" rx="8" fill="#5b4645" stroke="rgba(215, 166, 144, 0.18)" stroke-width="1.2" /><rect x="290" y="278" width="42" height="42" rx="8" fill="#5b4645" stroke="rgba(215, 166, 144, 0.18)" stroke-width="1.2" /><rect x="336" y="278" width="42" height="42" rx="8" fill="#5b4645" stroke="rgba(215, 166, 144, 0.18)" stroke-width="1.2" /><rect x="106" y="324" width="42" height="42" rx="8" fill="#5b4645" stroke="rgba(215, 166, 144, 0.18)" stroke-width="1.2" /><rect x="152" y="324" width="42" height="42" rx="8" fill="#5b4645" stroke="rgba(215, 166, 144, 0.18)" stroke-width="1.2" /><rect x="198" y="324" width="42" height="42" rx="8" fill="#5b4645" stroke="rgba(215, 166, 144, 0.18)" stroke-width="1.2" /><rect x="244" y="324" width="42" height="42" rx="8" fill="#5b4645" stroke="rgba(215, 166, 144, 0.18)" stroke-width="1.2" /><rect x="290" y="324" width="42" height="42" rx="8" fill="#5b4645" stroke="rgba(215, 166, 144, 0.18)" stroke-width="1.2" /><rect x="336" y="324" width="42" height="42" rx="8" fill="#5b4645" stroke="rgba(215, 166, 144, 0.18)" stroke-width="1.2" /></g>
</svg>
