<svg width="512" height="512" viewBox="0 0 512 512" fill="none" xmlns="http://www.w3.org/2000/svg">
  <title>Mirror Match target pattern next to an editable mirror board</title>
  <defs>
    <linearGradient id="mirror-match-background" x1="48" y1="36" x2="454" y2="474" gradientUnits="userSpaceOnUse">
      <stop stop-color="#293f26" />
      <stop offset="1" stop-color="#0f1a17" />
    </linearGradient>
  </defs>
  <rect width="512" height="512" rx="44" fill="url(#mirror-match-background)" />
  <circle cx="410" cy="92" r="136" fill="rgba(132, 204, 22, 0.16)" />
  <circle cx="104" cy="418" r="118" fill="rgba(56, 189, 248, 0.09)" />
  <rect x="12" y="12" width="488" height="488" rx="42" fill="rgba(33, 49, 37, 0.94)" stroke="rgba(176, 210, 148, 0.16)" stroke-width="2" />
  <g transform="translate(256 256) scale(1.12) translate(-256 -256)"><rect x="62" y="146" width="160" height="160" rx="26" fill="rgba(49, 70, 49, 0.96)" stroke="rgba(176, 210, 148, 0.22)" stroke-width="1.5" /><rect x="80" y="164" width="36" height="36" rx="7" fill="rgba(132, 204, 22, 0.24)" stroke="rgba(176, 210, 148, 0.18)" stroke-width="1.2" /><rect x="124" y="164" width="36" height="36" rx="7" fill="#456047" stroke="rgba(176, 210, 148, 0.18)" stroke-width="1.2" /><rect x="168" y="164" width="36" height="36" rx="7" fill="#456047" stroke="rgba(176, 210, 148, 0.18)" stroke-width="1.2" /><rect x="80" y="208" width="36" height="36" rx="7" fill="#456047" stroke="rgba(176, 210, 148, 0.18)" stroke-width="1.2" /><rect x="124" y="208" width="36" height="36" rx="7" fill="rgba(132, 204, 22, 0.24)" stroke="rgba(176, 210, 148, 0.18)" stroke-width="1.2" /><rect x="168" y="208" width="36" height="36" rx="7" fill="#456047" stroke="rgba(176, 210, 148, 0.18)" stroke-width="1.2" /><rect x="80" y="252" width="36" height="36" rx="7" fill="#456047" stroke="rgba(176, 210, 148, 0.18)" stroke-width="1.2" /><rect x="124" y="252" width="36" height="36" rx="7" fill="#456047" stroke="rgba(176, 210, 148, 0.18)" stroke-width="1.2" /><rect x="168" y="252" width="36" height="36" rx="7" fill="rgba(132, 204, 22, 0.24)" stroke="rgba(176, 210, 148, 0.18)" stroke-width="1.2" /><rect x="236" y="146" width="160" height="160" rx="26" fill="rgba(49, 70, 49, 0.96)" stroke="rgba(176, 210, 148, 0.22)" stroke-width="1.5" /><rect x="254" y="164" width="36" height="36" rx="7" fill="#456047" stroke="rgba(176, 210, 148, 0.18)" stroke-width="1.2" /><rect x="298" y="164" width="36" height="36" rx="7" fill="#456047" stroke="rgba(176, 210, 148, 0.18)" stroke-width="1.2" /><rect x="342" y="164" width="36" height="36" rx="7" fill="rgba(132, 204, 22, 0.24)" stroke="rgba(176, 210, 148, 0.18)" stroke-width="1.2" /><rect x="254" y="208" width="36" height="36" rx="7" fill="#456047" stroke="rgba(176, 210, 148, 0.18)" stroke-width="1.2" /><rect x="298" y="208" width="36" height="36" rx="7" fill="rgba(132, 204, 22, 0.24)" stroke="rgba(176, 210, 148, 0.18)" stroke-width="1.2" /><rect x="342" y="208" width="36" height="36" rx="7" fill="#456047" stroke="rgba(176, 210, 148, 0.18)" stroke-width="1.2" /><rect x="254" y="252" width="36" height="36" rx="7" fill="rgba(132, 204, 22, 0.24)" stroke="rgba(176, 210, 148, 0.18)" stroke-width="1.2" /><rect x="298" y="252" width="36" height="36" rx="7" fill="#456047" stroke="rgba(176, 210, 148, 0.18)" stroke-width="1.2" /><rect x="342" y="252" width="36" height="36" rx="7" fill="#456047" stroke="rgba(176, 210, 148, 0.18)" stroke-width="1.2" /><line x1="332" y1="150" x2="332" y2="310" stroke="rgba(176, 210, 148, 0.6)" stroke-dasharray="8 8" stroke-width="4" /></g>
</svg>
