<svg width="720" height="520" viewBox="0 0 720 520" fill="none" xmlns="http://www.w3.org/2000/svg">
  <defs>
    <linearGradient id="bg" x1="68" y1="52" x2="648" y2="472" gradientUnits="userSpaceOnUse">
      <stop stop-color="#F7F9FC"/>
      <stop offset="1" stop-color="#D7E3EC"/>
    </linearGradient>
    <linearGradient id="panel" x1="136" y1="104" x2="584" y2="420" gradientUnits="userSpaceOnUse">
      <stop stop-color="#FDFEFE"/>
      <stop offset="1" stop-color="#EAF0F5"/>
    </linearGradient>
  </defs>
  <rect width="720" height="520" rx="40" fill="url(#bg)"/>
  <rect x="136" y="104" width="448" height="370" rx="30" fill="url(#panel)" stroke="#C1CFDA" stroke-width="4"/>
  <text x="184" y="166" fill="#536270" font-family="ui-sans-serif, system-ui" font-size="26" font-weight="700">Next 12</text>
  <g transform="translate(164 214)">
    <rect x="0" y="0" width="76" height="76" rx="18" fill="#E6EEF7"/>
    <text x="24" y="48" fill="#374151" font-family="ui-sans-serif, system-ui" font-size="28" font-weight="800">4</text>
    <rect x="88" y="0" width="76" height="76" rx="18" fill="#E6EEF7"/>
    <text x="110" y="48" fill="#374151" font-family="ui-sans-serif, system-ui" font-size="28" font-weight="800">17</text>
    <rect x="176" y="0" width="76" height="76" rx="18" fill="#BDE5FF"/>
    <text x="204" y="48" fill="#0F3B5F" font-family="ui-sans-serif, system-ui" font-size="28" font-weight="800">12</text>
    <rect x="264" y="0" width="76" height="76" rx="18" fill="#E6EEF7"/>
    <text x="290" y="48" fill="#374151" font-family="ui-sans-serif, system-ui" font-size="28" font-weight="800">9</text>
    <rect x="0" y="88" width="76" height="76" rx="18" fill="#E6EEF7"/>
    <text x="18" y="136" fill="#374151" font-family="ui-sans-serif, system-ui" font-size="28" font-weight="800">23</text>
    <rect x="88" y="88" width="76" height="76" rx="18" fill="#E6EEF7"/>
    <text x="118" y="136" fill="#374151" font-family="ui-sans-serif, system-ui" font-size="28" font-weight="800">1</text>
    <rect x="176" y="88" width="76" height="76" rx="18" fill="#E6EEF7"/>
    <text x="206" y="136" fill="#374151" font-family="ui-sans-serif, system-ui" font-size="28" font-weight="800">7</text>
    <rect x="264" y="88" width="76" height="76" rx="18" fill="#E6EEF7"/>
    <text x="286" y="136" fill="#374151" font-family="ui-sans-serif, system-ui" font-size="28" font-weight="800">18</text>
    <rect x="0" y="176" width="76" height="76" rx="18" fill="#E6EEF7"/>
    <text x="24" y="224" fill="#374151" font-family="ui-sans-serif, system-ui" font-size="28" font-weight="800">6</text>
    <rect x="88" y="176" width="76" height="76" rx="18" fill="#E6EEF7"/>
    <text x="110" y="224" fill="#374151" font-family="ui-sans-serif, system-ui" font-size="28" font-weight="800">14</text>
    <rect x="176" y="176" width="76" height="76" rx="18" fill="#E6EEF7"/>
    <text x="198" y="224" fill="#374151" font-family="ui-sans-serif, system-ui" font-size="28" font-weight="800">3</text>
    <rect x="264" y="176" width="76" height="76" rx="18" fill="#E6EEF7"/>
    <text x="290" y="224" fill="#374151" font-family="ui-sans-serif, system-ui" font-size="28" font-weight="800">21</text>
  </g>
</svg>
