<svg width="512" height="512" viewBox="0 0 512 512" fill="none" xmlns="http://www.w3.org/2000/svg">
  <title>Number Chain board with numbered tiles that must be tapped in order</title>
  <defs>
    <linearGradient id="number-chain-background" x1="48" y1="36" x2="454" y2="474" gradientUnits="userSpaceOnUse">
      <stop stop-color="#192f57" />
      <stop offset="1" stop-color="#08122d" />
    </linearGradient>
  </defs>
  <rect width="512" height="512" rx="44" fill="url(#number-chain-background)" />
  <circle cx="410" cy="92" r="136" fill="rgba(59, 130, 246, 0.16)" />
  <circle cx="104" cy="418" r="118" fill="rgba(56, 189, 248, 0.09)" />
  <rect x="12" y="12" width="488" height="488" rx="42" fill="rgba(23, 39, 68, 0.94)" stroke="rgba(148, 181, 233, 0.16)" stroke-width="2" />
  <g transform="translate(256 256) scale(1.12) translate(-256 -256)"><rect x="100" y="100" width="242" height="242" rx="26" fill="rgba(36, 57, 89, 0.96)" stroke="rgba(148, 181, 233, 0.22)" stroke-width="1.5" /><rect x="118" y="118" width="62" height="62" rx="12" fill="rgba(59, 130, 246, 0.24)" stroke="rgba(148, 181, 233, 0.18)" stroke-width="1.2" /><text x="149" y="150" font-family="'Avenir Next', 'Trebuchet MS', 'Segoe UI', sans-serif" font-weight="700" text-anchor="middle" dominant-baseline="middle" fill="#f8fafc" font-size="28">1</text><rect x="190" y="118" width="62" height="62" rx="12" fill="#354f78" stroke="rgba(148, 181, 233, 0.18)" stroke-width="1.2" /><rect x="262" y="118" width="62" height="62" rx="12" fill="#354f78" stroke="rgba(148, 181, 233, 0.18)" stroke-width="1.2" /><rect x="118" y="190" width="62" height="62" rx="12" fill="rgba(56, 189, 248, 0.22)" stroke="rgba(148, 181, 233, 0.18)" stroke-width="1.2" /><text x="149" y="222" font-family="'Avenir Next', 'Trebuchet MS', 'Segoe UI', sans-serif" font-weight="700" text-anchor="middle" dominant-baseline="middle" fill="#f8fafc" font-size="28">2</text><rect x="190" y="190" width="62" height="62" rx="12" fill="rgba(245, 158, 11, 0.22)" stroke="rgba(148, 181, 233, 0.18)" stroke-width="1.2" /><text x="221" y="222" font-family="'Avenir Next', 'Trebuchet MS', 'Segoe UI', sans-serif" font-weight="700" text-anchor="middle" dominant-baseline="middle" fill="#f8fafc" font-size="28">3</text><rect x="262" y="190" width="62" height="62" rx="12" fill="#354f78" stroke="rgba(148, 181, 233, 0.18)" stroke-width="1.2" /><rect x="118" y="262" width="62" height="62" rx="12" fill="#354f78" stroke="rgba(148, 181, 233, 0.18)" stroke-width="1.2" /><rect x="190" y="262" width="62" height="62" rx="12" fill="rgba(34, 197, 94, 0.22)" stroke="rgba(148, 181, 233, 0.18)" stroke-width="1.2" /><text x="221" y="294" font-family="'Avenir Next', 'Trebuchet MS', 'Segoe UI', sans-serif" font-weight="700" text-anchor="middle" dominant-baseline="middle" fill="#f8fafc" font-size="28">4</text><rect x="262" y="262" width="62" height="62" rx="12" fill="#354f78" stroke="rgba(148, 181, 233, 0.18)" stroke-width="1.2" /><path d="M149 149 L149 221 L221 221 L221 293" fill="none" stroke="#cbd5e1" stroke-dasharray="10 12" stroke-linecap="round" stroke-linejoin="round" stroke-width="6" /></g>
</svg>
