<svg width="512" height="512" viewBox="0 0 512 512" fill="none" xmlns="http://www.w3.org/2000/svg">
  <title>Path Recall board showing a remembered route across a grid</title>
  <defs>
    <linearGradient id="path-recall-background" x1="48" y1="36" x2="454" y2="474" gradientUnits="userSpaceOnUse">
      <stop stop-color="#0f3b3d" />
      <stop offset="1" stop-color="#031822" />
    </linearGradient>
  </defs>
  <rect width="512" height="512" rx="44" fill="url(#path-recall-background)" />
  <circle cx="410" cy="92" r="136" fill="rgba(16, 185, 129, 0.16)" />
  <circle cx="104" cy="418" r="118" fill="rgba(56, 189, 248, 0.09)" />
  <rect x="12" y="12" width="488" height="488" rx="42" fill="rgba(17, 47, 52, 0.94)" stroke="rgba(132, 202, 189, 0.16)" stroke-width="2" />
  <g transform="translate(256 256) scale(1.12) translate(-256 -256)"><rect x="96" y="98" width="244" height="244" rx="26" fill="rgba(28, 67, 68, 0.96)" stroke="rgba(132, 202, 189, 0.22)" stroke-width="1.5" /><rect x="114" y="116" width="46" height="46" rx="9" fill="rgba(16, 185, 129, 0.22)" stroke="rgba(132, 202, 189, 0.18)" stroke-width="1.2" /><rect x="168" y="116" width="46" height="46" rx="9" fill="rgba(16, 185, 129, 0.22)" stroke="rgba(132, 202, 189, 0.18)" stroke-width="1.2" /><rect x="222" y="116" width="46" height="46" rx="9" fill="#2b5b5f" stroke="rgba(132, 202, 189, 0.18)" stroke-width="1.2" /><rect x="276" y="116" width="46" height="46" rx="9" fill="#2b5b5f" stroke="rgba(132, 202, 189, 0.18)" stroke-width="1.2" /><rect x="114" y="170" width="46" height="46" rx="9" fill="#2b5b5f" stroke="rgba(132, 202, 189, 0.18)" stroke-width="1.2" /><rect x="168" y="170" width="46" height="46" rx="9" fill="rgba(16, 185, 129, 0.22)" stroke="rgba(132, 202, 189, 0.18)" stroke-width="1.2" /><rect x="222" y="170" width="46" height="46" rx="9" fill="#2b5b5f" stroke="rgba(132, 202, 189, 0.18)" stroke-width="1.2" /><rect x="276" y="170" width="46" height="46" rx="9" fill="#2b5b5f" stroke="rgba(132, 202, 189, 0.18)" stroke-width="1.2" /><rect x="114" y="224" width="46" height="46" rx="9" fill="#2b5b5f" stroke="rgba(132, 202, 189, 0.18)" stroke-width="1.2" /><rect x="168" y="224" width="46" height="46" rx="9" fill="rgba(16, 185, 129, 0.22)" stroke="rgba(132, 202, 189, 0.18)" stroke-width="1.2" /><rect x="222" y="224" width="46" height="46" rx="9" fill="rgba(16, 185, 129, 0.22)" stroke="rgba(132, 202, 189, 0.18)" stroke-width="1.2" /><rect x="276" y="224" width="46" height="46" rx="9" fill="#2b5b5f" stroke="rgba(132, 202, 189, 0.18)" stroke-width="1.2" /><rect x="114" y="278" width="46" height="46" rx="9" fill="#2b5b5f" stroke="rgba(132, 202, 189, 0.18)" stroke-width="1.2" /><rect x="168" y="278" width="46" height="46" rx="9" fill="#2b5b5f" stroke="rgba(132, 202, 189, 0.18)" stroke-width="1.2" /><rect x="222" y="278" width="46" height="46" rx="9" fill="rgba(16, 185, 129, 0.22)" stroke="rgba(132, 202, 189, 0.18)" stroke-width="1.2" /><rect x="276" y="278" width="46" height="46" rx="9" fill="#2b5b5f" stroke="rgba(132, 202, 189, 0.18)" stroke-width="1.2" /><path d="M137 139 L191 139 L191 193 L191 247 L245 247 L245 301" fill="none" stroke="#36c495" stroke-dasharray="12 10" stroke-linecap="round" stroke-linejoin="round" stroke-width="8" /></g>
</svg>
