<svg width="512" height="512" viewBox="0 0 512 512" fill="none" xmlns="http://www.w3.org/2000/svg">
  <title>Pattern Echo board with a 3x3 grid of coloured pads</title>
  <defs>
    <linearGradient id="pattern-echo-background" x1="48" y1="36" x2="454" y2="474" gradientUnits="userSpaceOnUse">
      <stop stop-color="#2a2657" />
      <stop offset="1" stop-color="#100f2d" />
    </linearGradient>
  </defs>
  <rect width="512" height="512" rx="44" fill="url(#pattern-echo-background)" />
  <circle cx="410" cy="92" r="136" fill="rgba(139, 92, 246, 0.16)" />
  <circle cx="104" cy="418" r="118" fill="rgba(56, 189, 248, 0.09)" />
  <rect x="12" y="12" width="488" height="488" rx="42" fill="rgba(34, 34, 68, 0.94)" stroke="rgba(179, 167, 233, 0.16)" stroke-width="2" />
  <g transform="translate(256 256) scale(1.12) translate(-256 -256)"><rect x="96" y="80" width="290" height="290" rx="26" fill="rgba(50, 50, 89, 0.96)" stroke="rgba(179, 167, 233, 0.22)" stroke-width="1.5" /><rect x="114" y="98" width="78" height="78" rx="15" fill="#38bdf8" stroke="rgba(179, 167, 233, 0.18)" stroke-width="1.2" /><text x="153" y="138" font-family="'Avenir Next', 'Trebuchet MS', 'Segoe UI', sans-serif" font-weight="700" text-anchor="middle" dominant-baseline="middle" fill="#f8fafc" font-size="35">1</text><rect x="202" y="98" width="78" height="78" rx="15" fill="#464778" stroke="rgba(179, 167, 233, 0.18)" stroke-width="1.2" /><rect x="290" y="98" width="78" height="78" rx="15" fill="#464778" stroke="rgba(179, 167, 233, 0.18)" stroke-width="1.2" /><rect x="114" y="186" width="78" height="78" rx="15" fill="#464778" stroke="rgba(179, 167, 233, 0.18)" stroke-width="1.2" /><rect x="202" y="186" width="78" height="78" rx="15" fill="#f59e0b" stroke="rgba(179, 167, 233, 0.18)" stroke-width="1.2" /><text x="241" y="226" font-family="'Avenir Next', 'Trebuchet MS', 'Segoe UI', sans-serif" font-weight="700" text-anchor="middle" dominant-baseline="middle" fill="#f8fafc" font-size="35">2</text><rect x="290" y="186" width="78" height="78" rx="15" fill="#464778" stroke="rgba(179, 167, 233, 0.18)" stroke-width="1.2" /><rect x="114" y="274" width="78" height="78" rx="15" fill="#464778" stroke="rgba(179, 167, 233, 0.18)" stroke-width="1.2" /><rect x="202" y="274" width="78" height="78" rx="15" fill="#464778" stroke="rgba(179, 167, 233, 0.18)" stroke-width="1.2" /><rect x="290" y="274" width="78" height="78" rx="15" fill="#ec4899" stroke="rgba(179, 167, 233, 0.18)" stroke-width="1.2" /><text x="329" y="314" font-family="'Avenir Next', 'Trebuchet MS', 'Segoe UI', sans-serif" font-weight="700" text-anchor="middle" dominant-baseline="middle" fill="#f8fafc" font-size="35">3</text></g>
</svg>
