<svg width="512" height="512" viewBox="0 0 512 512" fill="none" xmlns="http://www.w3.org/2000/svg">
  <title>Phase Lock wheel stack with rotating markers and glowing target bands</title>
  <defs>
    <linearGradient id="phase-lock-background" x1="48" y1="36" x2="454" y2="474" gradientUnits="userSpaceOnUse">
      <stop stop-color="#2a2657" />
      <stop offset="1" stop-color="#100f2d" />
    </linearGradient>
  </defs>
  <rect width="512" height="512" rx="44" fill="url(#phase-lock-background)" />
  <circle cx="410" cy="92" r="136" fill="rgba(139, 92, 246, 0.16)" />
  <circle cx="104" cy="418" r="118" fill="rgba(56, 189, 248, 0.09)" />
  <rect x="12" y="12" width="488" height="488" rx="42" fill="rgba(34, 34, 68, 0.94)" stroke="rgba(179, 167, 233, 0.16)" stroke-width="2" />
  <g transform="translate(256 256) scale(1.12) translate(-256 -256)"><circle cx="256" cy="256" r="122" fill="none" stroke="rgba(179, 167, 233, 0.16)" stroke-width="28" /><circle cx="256" cy="256" r="82" fill="none" stroke="rgba(179, 167, 233, 0.16)" stroke-width="28" /><circle cx="256" cy="256" r="42" fill="none" stroke="rgba(179, 167, 233, 0.16)" stroke-width="28" /><path d="M256 106 A150 150 0 0 1 354 144" fill="none" stroke="#9e76f7" stroke-linecap="round" stroke-width="20" /><path d="M174 322 A98 98 0 0 0 338 322" fill="none" stroke="#38bdf8" stroke-linecap="round" stroke-width="18" /><path d="M230 256 A54 54 0 0 1 282 256" fill="none" stroke="#f59e0b" stroke-linecap="round" stroke-width="16" /><circle cx="256" cy="134" r="10" fill="#f8fafc" /><circle cx="338" cy="322" r="10" fill="#f8fafc" /><circle cx="282" cy="256" r="10" fill="#f8fafc" /></g>
</svg>
