<svg width="640" height="360" viewBox="0 0 640 360" fill="none" xmlns="http://www.w3.org/2000/svg">
  <rect width="640" height="360" rx="36" fill="#020617"/>
  <rect x="28" y="28" width="584" height="304" rx="28" fill="url(#bg)"/>
  <g transform="translate(148 94)">
    <circle cx="68" cy="68" r="52" stroke="#475569" stroke-width="14"/>
    <g transform="rotate(28 68 68)">
      <rect x="56" y="6" width="24" height="16" rx="8" fill="url(#target)"/>
    </g>
    <g transform="rotate(126 68 68)">
      <rect x="64" y="20" width="8" height="48" rx="4" fill="url(#marker)"/>
      <circle cx="68" cy="20" r="8" fill="#38BDF8"/>
    </g>
    <circle cx="68" cy="68" r="16" fill="url(#hub)"/>
  </g>
  <g transform="translate(286 84)">
    <circle cx="68" cy="68" r="52" stroke="#475569" stroke-width="14"/>
    <g transform="rotate(152 68 68)">
      <rect x="56" y="6" width="24" height="16" rx="8" fill="url(#target)"/>
    </g>
    <g transform="rotate(212 68 68)">
      <rect x="64" y="20" width="8" height="48" rx="4" fill="url(#marker)"/>
      <circle cx="68" cy="20" r="8" fill="#A855F7"/>
    </g>
    <circle cx="68" cy="68" r="16" fill="url(#hub)"/>
  </g>
  <g transform="translate(424 94)">
    <circle cx="68" cy="68" r="52" stroke="#475569" stroke-width="14"/>
    <g transform="rotate(302 68 68)">
      <rect x="56" y="6" width="24" height="16" rx="8" fill="url(#target)"/>
    </g>
    <g transform="rotate(26 68 68)">
      <rect x="64" y="20" width="8" height="48" rx="4" fill="url(#marker)"/>
      <circle cx="68" cy="20" r="8" fill="#38BDF8"/>
    </g>
    <circle cx="68" cy="68" r="16" fill="url(#hub)"/>
  </g>
  <rect x="186" y="286" width="268" height="44" rx="22" fill="#082F49" stroke="#38BDF8" stroke-opacity="0.35"/>
  <text x="320" y="313" fill="#E0F2FE" font-family="Arial, sans-serif" font-size="17" font-weight="700" text-anchor="middle">Lock Current Wheel</text>
  <defs>
    <linearGradient id="bg" x1="88" y1="28" x2="552" y2="332" gradientUnits="userSpaceOnUse">
      <stop stop-color="#111827"/>
      <stop offset="1" stop-color="#0F172A"/>
    </linearGradient>
    <linearGradient id="target" x1="68" y1="6" x2="68" y2="22" gradientUnits="userSpaceOnUse">
      <stop stop-color="#86EFAC"/>
      <stop offset="1" stop-color="#22C55E"/>
    </linearGradient>
    <linearGradient id="marker" x1="68" y1="20" x2="68" y2="68" gradientUnits="userSpaceOnUse">
      <stop stop-color="#F8FAFC"/>
      <stop offset="1" stop-color="#38BDF8"/>
    </linearGradient>
    <radialGradient id="hub" cx="0" cy="0" r="1" gradientUnits="userSpaceOnUse" gradientTransform="translate(62 62) rotate(45) scale(25.4558)">
      <stop stop-color="#E0F2FE"/>
      <stop offset="1" stop-color="#0F172A"/>
    </radialGradient>
  </defs>
</svg>
