<svg width="360" height="360" viewBox="140 0 360 360" fill="none" xmlns="http://www.w3.org/2000/svg">
  <rect width="640" height="360" rx="36" fill="#020617"/>
  <rect x="26" y="26" width="588" height="308" rx="28" fill="url(#bg)"/>
  <rect x="72" y="64" width="312" height="232" rx="24" fill="#0F172A" stroke="rgba(148,163,184,0.2)"/>
  <g opacity="0.44" stroke="#334155" stroke-width="2">
    <path d="M150 64V296"/>
    <path d="M228 64V296"/>
    <path d="M306 64V296"/>
    <path d="M72 122H384"/>
    <path d="M72 180H384"/>
    <path d="M72 238H384"/>
  </g>
  <path d="M462 98C490 98 516 112 534 134" stroke="#38BDF8" stroke-width="10" stroke-linecap="round" stroke-dasharray="8 18"/>
  <path d="M458 176C494 176 520 194 540 228" stroke="#34D399" stroke-width="10" stroke-linecap="round" stroke-dasharray="8 18"/>
  <path d="M458 250C488 246 508 232 522 206" stroke="#FB7185" stroke-width="10" stroke-linecap="round" stroke-dasharray="8 18"/>
  <g>
    <rect x="102" y="86" width="42" height="42" rx="14" fill="url(#amberToken)"/>
    <text x="123" y="113" fill="#F8FAFC" font-family="Arial, sans-serif" font-size="20" font-weight="700" text-anchor="middle">A</text>
    <rect x="258" y="144" width="42" height="42" rx="14" fill="url(#skyToken)"/>
    <text x="279" y="171" fill="#F8FAFC" font-family="Arial, sans-serif" font-size="20" font-weight="700" text-anchor="middle">B</text>
    <rect x="180" y="202" width="42" height="42" rx="14" fill="url(#roseToken)"/>
    <text x="201" y="229" fill="#F8FAFC" font-family="Arial, sans-serif" font-size="20" font-weight="700" text-anchor="middle">D</text>
  </g>
  <g>
    <rect x="434" y="82" width="146" height="54" rx="27" fill="#111827" stroke="rgba(148,163,184,0.2)"/>
    <circle cx="466" cy="109" r="11" fill="#F59E0B"/>
    <text x="489" y="115" fill="#E2E8F0" font-family="Arial, sans-serif" font-size="20" font-weight="700">A</text>
    <text x="560" y="115" fill="#38BDF8" font-family="Arial, sans-serif" font-size="16" font-weight="700">1:3</text>
  </g>
  <g>
    <rect x="434" y="160" width="146" height="54" rx="27" fill="#111827" stroke="rgba(148,163,184,0.2)"/>
    <circle cx="466" cy="187" r="11" fill="#38BDF8"/>
    <text x="489" y="193" fill="#E2E8F0" font-family="Arial, sans-serif" font-size="20" font-weight="700">B</text>
    <text x="560" y="193" fill="#34D399" font-family="Arial, sans-serif" font-size="16" font-weight="700">2:4</text>
  </g>
  <g>
    <rect x="434" y="238" width="146" height="54" rx="27" fill="#111827" stroke="rgba(148,163,184,0.2)"/>
    <circle cx="466" cy="265" r="11" fill="#FB7185"/>
    <text x="489" y="271" fill="#E2E8F0" font-family="Arial, sans-serif" font-size="20" font-weight="700">D</text>
    <text x="560" y="271" fill="#F8FAFC" font-family="Arial, sans-serif" font-size="16" font-weight="700">3:2</text>
  </g>
  <defs>
    <linearGradient id="bg" x1="58" y1="26" x2="582" y2="334" gradientUnits="userSpaceOnUse">
      <stop stop-color="#0F172A"/>
      <stop offset="1" stop-color="#111827"/>
    </linearGradient>
    <linearGradient id="amberToken" x1="123" y1="86" x2="123" y2="128" gradientUnits="userSpaceOnUse">
      <stop stop-color="#F59E0B"/>
      <stop offset="1" stop-color="#78350F"/>
    </linearGradient>
    <linearGradient id="skyToken" x1="279" y1="144" x2="279" y2="186" gradientUnits="userSpaceOnUse">
      <stop stop-color="#38BDF8"/>
      <stop offset="1" stop-color="#0C4A6E"/>
    </linearGradient>
    <linearGradient id="roseToken" x1="201" y1="202" x2="201" y2="244" gradientUnits="userSpaceOnUse">
      <stop stop-color="#FB7185"/>
      <stop offset="1" stop-color="#881337"/>
    </linearGradient>
  </defs>
</svg>
