<svg width="512" height="512" viewBox="0 0 512 512" fill="none" xmlns="http://www.w3.org/2000/svg">
  <title>Position Lock board with labeled tokens returning to remembered final cells</title>
  <defs>
    <linearGradient id="position-lock-background" x1="48" y1="36" x2="454" y2="474" gradientUnits="userSpaceOnUse">
      <stop stop-color="#103a45" />
      <stop offset="1" stop-color="#041825" />
    </linearGradient>
  </defs>
  <rect width="512" height="512" rx="44" fill="url(#position-lock-background)" />
  <circle cx="410" cy="92" r="136" fill="rgba(20, 184, 166, 0.16)" />
  <circle cx="104" cy="418" r="118" fill="rgba(56, 189, 248, 0.09)" />
  <rect x="12" y="12" width="488" height="488" rx="42" fill="rgba(17, 46, 57, 0.94)" stroke="rgba(133, 202, 203, 0.16)" stroke-width="2" />
  <g transform="translate(256 256) scale(1.12) translate(-256 -256)"><rect x="82" y="94" width="252" height="252" rx="26" fill="rgba(29, 67, 75, 0.96)" stroke="rgba(133, 202, 203, 0.22)" stroke-width="1.5" /><rect x="100" y="112" width="48" height="48" rx="9" fill="#2c5b67" stroke="rgba(133, 202, 203, 0.18)" stroke-width="1.2" /><rect x="156" y="112" width="48" height="48" rx="9" fill="#2c5b67" stroke="rgba(133, 202, 203, 0.18)" stroke-width="1.2" /><circle cx="180" cy="136" r="16" fill="none" stroke="rgba(20, 184, 166, 0.52)" stroke-width="4" /><rect x="212" y="112" width="48" height="48" rx="9" fill="#2c5b67" stroke="rgba(133, 202, 203, 0.18)" stroke-width="1.2" /><rect x="268" y="112" width="48" height="48" rx="9" fill="#2c5b67" stroke="rgba(133, 202, 203, 0.18)" stroke-width="1.2" /><rect x="100" y="168" width="48" height="48" rx="9" fill="#2c5b67" stroke="rgba(133, 202, 203, 0.18)" stroke-width="1.2" /><rect x="156" y="168" width="48" height="48" rx="9" fill="#2c5b67" stroke="rgba(133, 202, 203, 0.18)" stroke-width="1.2" /><rect x="212" y="168" width="48" height="48" rx="9" fill="#2c5b67" stroke="rgba(133, 202, 203, 0.18)" stroke-width="1.2" /><circle cx="236" cy="192" r="16" fill="none" stroke="rgba(56, 189, 248, 0.52)" stroke-width="4" /><rect x="268" y="168" width="48" height="48" rx="9" fill="#2c5b67" stroke="rgba(133, 202, 203, 0.18)" stroke-width="1.2" /><rect x="100" y="224" width="48" height="48" rx="9" fill="#2c5b67" stroke="rgba(133, 202, 203, 0.18)" stroke-width="1.2" /><rect x="156" y="224" width="48" height="48" rx="9" fill="#2c5b67" stroke="rgba(133, 202, 203, 0.18)" stroke-width="1.2" /><circle cx="180" cy="248" r="16" fill="none" stroke="rgba(245, 158, 11, 0.52)" stroke-width="4" /><rect x="212" y="224" width="48" height="48" rx="9" fill="#2c5b67" stroke="rgba(133, 202, 203, 0.18)" stroke-width="1.2" /><rect x="268" y="224" width="48" height="48" rx="9" fill="#2c5b67" stroke="rgba(133, 202, 203, 0.18)" stroke-width="1.2" /><rect x="100" y="280" width="48" height="48" rx="9" fill="#2c5b67" stroke="rgba(133, 202, 203, 0.18)" stroke-width="1.2" /><rect x="156" y="280" width="48" height="48" rx="9" fill="#2c5b67" stroke="rgba(133, 202, 203, 0.18)" stroke-width="1.2" /><rect x="212" y="280" width="48" height="48" rx="9" fill="#2c5b67" stroke="rgba(133, 202, 203, 0.18)" stroke-width="1.2" /><rect x="268" y="280" width="48" height="48" rx="9" fill="#2c5b67" stroke="rgba(133, 202, 203, 0.18)" stroke-width="1.2" /><circle cx="292" cy="304" r="16" fill="none" stroke="rgba(34, 197, 94, 0.52)" stroke-width="4" /><circle cx="124" cy="304" r="18" fill="#3ac3b4" /><circle cx="236" cy="136" r="18" fill="#38bdf8" /><circle cx="292" cy="248" r="18" fill="#f59e0b" /><text x="124" y="304" font-family="'Avenir Next', 'Trebuchet MS', 'Segoe UI', sans-serif" font-weight="700" text-anchor="middle" dominant-baseline="middle" fill="#f8fafc" font-size="20">1</text><text x="236" y="136" font-family="'Avenir Next', 'Trebuchet MS', 'Segoe UI', sans-serif" font-weight="700" text-anchor="middle" dominant-baseline="middle" fill="#f8fafc" font-size="20">2</text><text x="292" y="248" font-family="'Avenir Next', 'Trebuchet MS', 'Segoe UI', sans-serif" font-weight="700" text-anchor="middle" dominant-baseline="middle" fill="#f8fafc" font-size="20">3</text></g>
</svg>
