<svg width="512" height="512" viewBox="0 0 512 512" fill="none" xmlns="http://www.w3.org/2000/svg">
  <title>Relative Pitch panel with replay controls and four candidate pads around a current round prompt</title>
  <defs>
    <linearGradient id="relative-pitch-background" x1="48" y1="36" x2="454" y2="474" gradientUnits="userSpaceOnUse">
      <stop stop-color="#271f55" />
      <stop offset="1" stop-color="#0e0b2c" />
    </linearGradient>
  </defs>
  <rect width="512" height="512" rx="44" fill="url(#relative-pitch-background)" />
  <circle cx="410" cy="92" r="136" fill="rgba(124, 58, 237, 0.16)" />
  <circle cx="104" cy="418" r="118" fill="rgba(56, 189, 248, 0.09)" />
  <rect x="12" y="12" width="488" height="488" rx="42" fill="rgba(32, 29, 67, 0.94)" stroke="rgba(173, 154, 230, 0.16)" stroke-width="2" />
  <g transform="translate(256 256) scale(1.12) translate(-256 -256)"><rect x="152" y="78" width="208" height="142" rx="26" fill="rgba(48, 44, 88, 0.96)" stroke="rgba(173, 154, 230, 0.22)" stroke-width="1.5" /><circle cx="256" cy="132" r="30" fill="rgba(124, 58, 237, 0.24)" stroke="rgba(167, 131, 238, 0.8)" stroke-width="4" /><path d="M292 132 C310 118 316 108 326 90" fill="none" stroke="#cbd5e1" stroke-width="4" stroke-linecap="round" /><path d="M294 132 C320 120 334 106 348 78" fill="none" stroke="#cbd5e1" stroke-width="4" stroke-linecap="round" /><rect x="84" y="282" width="110" height="54" rx="16" fill="rgba(71, 63, 128, 0.92)" stroke="rgba(173, 154, 230, 0.24)" stroke-width="1.5" /><text x="139" y="310" font-family="'Avenir Next', 'Trebuchet MS', 'Segoe UI', sans-serif" font-weight="700" text-anchor="middle" dominant-baseline="middle" fill="#cbd5e1" font-size="24">LOW</text><rect x="201" y="282" width="110" height="54" rx="16" fill="rgba(124, 58, 237, 0.28)" stroke="rgba(167, 131, 238, 0.85)" stroke-width="1.5" /><text x="256" y="310" font-family="'Avenir Next', 'Trebuchet MS', 'Segoe UI', sans-serif" font-weight="700" text-anchor="middle" dominant-baseline="middle" fill="#f8fafc" font-size="24">SAME</text><rect x="318" y="282" width="110" height="54" rx="16" fill="rgba(71, 63, 128, 0.92)" stroke="rgba(173, 154, 230, 0.24)" stroke-width="1.5" /><text x="373" y="310" font-family="'Avenir Next', 'Trebuchet MS', 'Segoe UI', sans-serif" font-weight="700" text-anchor="middle" dominant-baseline="middle" fill="#cbd5e1" font-size="24">HIGH</text><rect x="201" y="346" width="110" height="54" rx="16" fill="rgba(71, 63, 128, 0.92)" stroke="rgba(173, 154, 230, 0.24)" stroke-width="1.5" /><text x="256" y="374" font-family="'Avenir Next', 'Trebuchet MS', 'Segoe UI', sans-serif" font-weight="700" text-anchor="middle" dominant-baseline="middle" fill="#cbd5e1" font-size="24">REPLAY</text></g>
</svg>
