<svg width="512" height="512" viewBox="0 0 512 512" fill="none" xmlns="http://www.w3.org/2000/svg">
  <title>Rotate Align path board with rotatable route tiles between start and end</title>
  <defs>
    <linearGradient id="rotate-align-background" x1="48" y1="36" x2="454" y2="474" gradientUnits="userSpaceOnUse">
      <stop stop-color="#0d3a4f" />
      <stop offset="1" stop-color="#02182a" />
    </linearGradient>
  </defs>
  <rect width="512" height="512" rx="44" fill="url(#rotate-align-background)" />
  <circle cx="410" cy="92" r="136" fill="rgba(6, 182, 212, 0.16)" />
  <circle cx="104" cy="418" r="118" fill="rgba(56, 189, 248, 0.09)" />
  <rect x="12" y="12" width="488" height="488" rx="42" fill="rgba(15, 46, 63, 0.94)" stroke="rgba(128, 201, 220, 0.16)" stroke-width="2" />
  <g transform="translate(256 256) scale(1.12) translate(-256 -256)"><rect x="76" y="110" width="214" height="214" rx="26" fill="rgba(27, 66, 83, 0.96)" stroke="rgba(128, 201, 220, 0.22)" stroke-width="1.5" /><rect x="94" y="128" width="54" height="54" rx="10" fill="#295b71" stroke="rgba(128, 201, 220, 0.18)" stroke-width="1.2" /><path d="M112 146 L146 146 L146 180" fill="none" stroke="#cbd5e1" stroke-width="8" stroke-linecap="round" stroke-linejoin="round" /><rect x="156" y="128" width="54" height="54" rx="10" fill="#295b71" stroke="rgba(128, 201, 220, 0.18)" stroke-width="1.2" /><path d="M174 146 L174 180" fill="none" stroke="#cbd5e1" stroke-width="8" stroke-linecap="round" /><rect x="218" y="128" width="54" height="54" rx="10" fill="#295b71" stroke="rgba(128, 201, 220, 0.18)" stroke-width="1.2" /><path d="M236 146 L236 180 L270 180" fill="none" stroke="#cbd5e1" stroke-width="8" stroke-linecap="round" stroke-linejoin="round" /><rect x="94" y="190" width="54" height="54" rx="10" fill="#295b71" stroke="rgba(128, 201, 220, 0.18)" stroke-width="1.2" /><rect x="156" y="190" width="54" height="54" rx="10" fill="#295b71" stroke="rgba(128, 201, 220, 0.18)" stroke-width="1.2" /><rect x="218" y="190" width="54" height="54" rx="10" fill="rgba(6, 182, 212, 0.18)" stroke="rgba(128, 201, 220, 0.18)" stroke-width="1.2" /><path d="M236 210 L270 210 L270 244" fill="none" stroke="#2ec2db" stroke-width="8" stroke-linecap="round" stroke-linejoin="round" /><rect x="94" y="252" width="54" height="54" rx="10" fill="#295b71" stroke="rgba(128, 201, 220, 0.18)" stroke-width="1.2" /><rect x="156" y="252" width="54" height="54" rx="10" fill="#295b71" stroke="rgba(128, 201, 220, 0.18)" stroke-width="1.2" /><rect x="218" y="252" width="54" height="54" rx="10" fill="#295b71" stroke="rgba(128, 201, 220, 0.18)" stroke-width="1.2" /><path d="M270 274 L270 308" fill="none" stroke="#cbd5e1" stroke-width="8" stroke-linecap="round" /><circle cx="112" cy="146" r="10" fill="#22c55e" /><circle cx="270" cy="308" r="10" fill="#f59e0b" /><rect x="352" y="198" width="72" height="52" rx="16" fill="rgba(6, 182, 212, 0.28)" stroke="rgba(98, 203, 224, 0.85)" stroke-width="1.5" /><text x="388" y="225" font-family="'Avenir Next', 'Trebuchet MS', 'Segoe UI', sans-serif" font-weight="700" text-anchor="middle" dominant-baseline="middle" fill="#f8fafc" font-size="20.160000000000004">ROT</text></g>
</svg>
