<svg width="512" height="512" viewBox="0 0 512 512" fill="none" xmlns="http://www.w3.org/2000/svg">
  <title>Sequence Point grid showing a fast memory sequence across lit points</title>
  <defs>
    <linearGradient id="sequence-point-background" x1="48" y1="36" x2="454" y2="474" gradientUnits="userSpaceOnUse">
      <stop stop-color="#213658" />
      <stop offset="1" stop-color="#0b162e" />
    </linearGradient>
  </defs>
  <rect width="512" height="512" rx="44" fill="url(#sequence-point-background)" />
  <circle cx="410" cy="92" r="136" fill="rgba(96, 165, 250, 0.16)" />
  <circle cx="104" cy="418" r="118" fill="rgba(56, 189, 248, 0.09)" />
  <rect x="12" y="12" width="488" height="488" rx="42" fill="rgba(28, 44, 69, 0.94)" stroke="rgba(162, 195, 235, 0.16)" stroke-width="2" />
  <g transform="translate(256 256) scale(1.12) translate(-256 -256)"><rect x="72" y="94" width="260" height="260" rx="26" fill="rgba(43, 63, 90, 0.96)" stroke="rgba(162, 195, 235, 0.22)" stroke-width="1.5" /><rect x="90" y="112" width="50" height="50" rx="10" fill="#3d5779" stroke="rgba(162, 195, 235, 0.18)" stroke-width="1.2" /><rect x="148" y="112" width="50" height="50" rx="10" fill="#3d5779" stroke="rgba(162, 195, 235, 0.18)" stroke-width="1.2" /><circle cx="177" cy="141" r="14" fill="none" stroke="rgba(121, 179, 251, 0.42)" stroke-width="8" /><circle cx="177" cy="141" r="5.88" fill="#79b3fb" /><rect x="206" y="112" width="50" height="50" rx="10" fill="#3d5779" stroke="rgba(162, 195, 235, 0.18)" stroke-width="1.2" /><rect x="264" y="112" width="50" height="50" rx="10" fill="#3d5779" stroke="rgba(162, 195, 235, 0.18)" stroke-width="1.2" /><rect x="90" y="170" width="50" height="50" rx="10" fill="#3d5779" stroke="rgba(162, 195, 235, 0.18)" stroke-width="1.2" /><rect x="148" y="170" width="50" height="50" rx="10" fill="#3d5779" stroke="rgba(162, 195, 235, 0.18)" stroke-width="1.2" /><rect x="206" y="170" width="50" height="50" rx="10" fill="#3d5779" stroke="rgba(162, 195, 235, 0.18)" stroke-width="1.2" /><circle cx="235" cy="199" r="14" fill="none" stroke="rgba(56, 189, 248, 0.42)" stroke-width="8" /><circle cx="235" cy="199" r="5.88" fill="#38bdf8" /><rect x="264" y="170" width="50" height="50" rx="10" fill="#3d5779" stroke="rgba(162, 195, 235, 0.18)" stroke-width="1.2" /><rect x="90" y="228" width="50" height="50" rx="10" fill="#3d5779" stroke="rgba(162, 195, 235, 0.18)" stroke-width="1.2" /><rect x="148" y="228" width="50" height="50" rx="10" fill="#3d5779" stroke="rgba(162, 195, 235, 0.18)" stroke-width="1.2" /><circle cx="177" cy="257" r="14" fill="none" stroke="rgba(245, 158, 11, 0.42)" stroke-width="8" /><circle cx="177" cy="257" r="5.88" fill="#f59e0b" /><rect x="206" y="228" width="50" height="50" rx="10" fill="#3d5779" stroke="rgba(162, 195, 235, 0.18)" stroke-width="1.2" /><rect x="264" y="228" width="50" height="50" rx="10" fill="#3d5779" stroke="rgba(162, 195, 235, 0.18)" stroke-width="1.2" /><rect x="90" y="286" width="50" height="50" rx="10" fill="#3d5779" stroke="rgba(162, 195, 235, 0.18)" stroke-width="1.2" /><rect x="148" y="286" width="50" height="50" rx="10" fill="#3d5779" stroke="rgba(162, 195, 235, 0.18)" stroke-width="1.2" /><rect x="206" y="286" width="50" height="50" rx="10" fill="#3d5779" stroke="rgba(162, 195, 235, 0.18)" stroke-width="1.2" /><circle cx="235" cy="315" r="14" fill="none" stroke="rgba(34, 197, 94, 0.42)" stroke-width="8" /><circle cx="235" cy="315" r="5.88" fill="#22c55e" /><rect x="264" y="286" width="50" height="50" rx="10" fill="#3d5779" stroke="rgba(162, 195, 235, 0.18)" stroke-width="1.2" /><path d="M177 141 L235 199 L177 257 L235 315" fill="none" stroke="#cbd5e1" stroke-dasharray="8 10" stroke-linecap="round" stroke-linejoin="round" stroke-width="6" /></g>
</svg>
