<svg width="1200" height="720" viewBox="0 0 1200 720" fill="none" xmlns="http://www.w3.org/2000/svg">
  <rect width="1200" height="720" rx="40" fill="#0F172A"/>
  <rect x="116" y="96" width="968" height="528" rx="36" fill="#111827" stroke="#334155" stroke-width="2"/>
  <text x="160" y="158" fill="#E2E8F0" font-family="sans-serif" font-size="30" font-weight="700">Sequence Point</text>
  <text x="160" y="196" fill="#94A3B8" font-family="sans-serif" font-size="20">Watch the flash order, then replay the same points.</text>
  <g>
    <path d="M350 290L530 234L718 326L880 266" stroke="#60A5FA" stroke-width="12" stroke-linecap="round" stroke-dasharray="18 16"/>
    <path d="M880 266L796 434L608 490" stroke="#22C55E" stroke-width="12" stroke-linecap="round" stroke-dasharray="18 16"/>
  </g>
  <g font-family="sans-serif" font-size="24" font-weight="700" text-anchor="middle" dominant-baseline="middle">
    <circle cx="350" cy="290" r="54" fill="#2563EB" fill-opacity="0.22" stroke="#60A5FA" stroke-width="4"/>
    <circle cx="530" cy="234" r="54" fill="#2563EB" fill-opacity="0.22" stroke="#60A5FA" stroke-width="4"/>
    <circle cx="718" cy="326" r="54" fill="#2563EB" fill-opacity="0.22" stroke="#60A5FA" stroke-width="4"/>
    <circle cx="880" cy="266" r="54" fill="#2563EB" fill-opacity="0.22" stroke="#60A5FA" stroke-width="4"/>
    <circle cx="796" cy="434" r="54" fill="#14532D" fill-opacity="0.42" stroke="#22C55E" stroke-width="4"/>
    <circle cx="608" cy="490" r="54" fill="#14532D" fill-opacity="0.42" stroke="#22C55E" stroke-width="4"/>
    <circle cx="444" cy="418" r="54" fill="#1E293B" stroke="#475569" stroke-width="4"/>
    <circle cx="972" cy="430" r="54" fill="#1E293B" stroke="#475569" stroke-width="4"/>
    <text x="350" y="290" fill="#DBEAFE">1</text>
    <text x="530" y="234" fill="#DBEAFE">2</text>
    <text x="718" y="326" fill="#DBEAFE">3</text>
    <text x="880" y="266" fill="#DBEAFE">4</text>
    <text x="796" y="434" fill="#DCFCE7">5</text>
    <text x="608" y="490" fill="#DCFCE7">6</text>
  </g>
</svg>
