<svg width="512" height="512" viewBox="0 0 512 512" fill="none" xmlns="http://www.w3.org/2000/svg">
  <title>Shape Morph prompt showing a sequence of evolving glyphs and four answer choices</title>
  <defs>
    <linearGradient id="shape-morph-background" x1="48" y1="36" x2="454" y2="474" gradientUnits="userSpaceOnUse">
      <stop stop-color="#2a2657" />
      <stop offset="1" stop-color="#100f2d" />
    </linearGradient>
  </defs>
  <rect width="512" height="512" rx="44" fill="url(#shape-morph-background)" />
  <circle cx="410" cy="92" r="136" fill="rgba(139, 92, 246, 0.16)" />
  <circle cx="104" cy="418" r="118" fill="rgba(56, 189, 248, 0.09)" />
  <rect x="12" y="12" width="488" height="488" rx="42" fill="rgba(34, 34, 68, 0.94)" stroke="rgba(179, 167, 233, 0.16)" stroke-width="2" />
  <g transform="translate(256 256) scale(1.12) translate(-256 -256)"><rect x="56" y="82" width="400" height="122" rx="26" fill="rgba(50, 50, 89, 0.96)" stroke="rgba(179, 167, 233, 0.22)" stroke-width="1.5" /><rect x="94" y="122" width="44" height="44" rx="9.68" fill="#cbd5e1" /><line x1="144" y1="144" x2="196" y2="144" stroke="#cbd5e1" stroke-linecap="round" stroke-width="4" /><polygon points="196,144 178,136 178,152" fill="#cbd5e1" /><polygon points="228,120 204,144 228,168 252,144" fill="#cbd5e1" /><line x1="256" y1="144" x2="308" y2="144" stroke="#cbd5e1" stroke-linecap="round" stroke-width="4" /><polygon points="308,144 290,136 290,152" fill="#cbd5e1" /><polygon points="338,118 370,118 392,144 370,170 338,170 320,144" fill="#9e76f7" /><rect x="72" y="286" width="84" height="54" rx="16" fill="rgba(76, 73, 130, 0.92)" stroke="rgba(179, 167, 233, 0.24)" stroke-width="1.5" /><text x="114" y="314" font-family="'Avenir Next', 'Trebuchet MS', 'Segoe UI', sans-serif" font-weight="700" text-anchor="middle" dominant-baseline="middle" fill="#cbd5e1" font-size="23.520000000000003">A</text><rect x="170" y="286" width="84" height="54" rx="16" fill="rgba(76, 73, 130, 0.92)" stroke="rgba(179, 167, 233, 0.24)" stroke-width="1.5" /><text x="212" y="314" font-family="'Avenir Next', 'Trebuchet MS', 'Segoe UI', sans-serif" font-weight="700" text-anchor="middle" dominant-baseline="middle" fill="#cbd5e1" font-size="23.520000000000003">B</text><rect x="268" y="286" width="84" height="54" rx="16" fill="rgba(139, 92, 246, 0.28)" stroke="rgba(176, 151, 243, 0.85)" stroke-width="1.5" /><text x="310" y="314" font-family="'Avenir Next', 'Trebuchet MS', 'Segoe UI', sans-serif" font-weight="700" text-anchor="middle" dominant-baseline="middle" fill="#f8fafc" font-size="23.520000000000003">C</text><rect x="366" y="286" width="84" height="54" rx="16" fill="rgba(76, 73, 130, 0.92)" stroke="rgba(179, 167, 233, 0.24)" stroke-width="1.5" /><text x="408" y="314" font-family="'Avenir Next', 'Trebuchet MS', 'Segoe UI', sans-serif" font-weight="700" text-anchor="middle" dominant-baseline="middle" fill="#cbd5e1" font-size="23.520000000000003">D</text></g>
</svg>
