<svg width="640" height="360" viewBox="0 0 640 360" fill="none" xmlns="http://www.w3.org/2000/svg">
  <rect width="640" height="360" rx="36" fill="#020617"/>
  <rect x="28" y="28" width="584" height="304" rx="28" fill="url(#bg)"/>
  <circle cx="320" cy="180" r="108" stroke="#475569" stroke-width="16"/>
  <g transform="rotate(34 320 180)">
    <rect x="304" y="52" width="32" height="20" rx="10" fill="url(#targetArc)"/>
  </g>
  <g transform="rotate(214 320 180)">
    <rect x="304" y="52" width="32" height="20" rx="10" fill="url(#hazardArc)"/>
  </g>
  <g transform="rotate(122 320 180)">
    <rect x="316" y="84" width="8" height="96" rx="4" fill="url(#launcher)"/>
    <circle cx="320" cy="84" r="12" fill="#38BDF8"/>
  </g>
  <circle cx="320" cy="180" r="28" fill="url(#hub)"/>
  <circle cx="320" cy="180" r="7" fill="#0F172A"/>
  <rect x="106" y="286" width="140" height="12" rx="6" fill="#1E293B"/>
  <rect x="106" y="286" width="94" height="12" rx="6" fill="#22C55E"/>
  <text x="262" y="296" fill="#E2E8F0" font-family="Arial, sans-serif" font-size="12" font-weight="700">Hits 4 / 6</text>
  <text x="420" y="296" fill="#F8FAFC" font-family="Arial, sans-serif" font-size="12" font-weight="700">Accuracy 80%</text>
  <defs>
    <linearGradient id="bg" x1="80" y1="28" x2="560" y2="332" gradientUnits="userSpaceOnUse">
      <stop stop-color="#111827"/>
      <stop offset="1" stop-color="#0F172A"/>
    </linearGradient>
    <linearGradient id="targetArc" x1="320" y1="52" x2="320" y2="72" gradientUnits="userSpaceOnUse">
      <stop stop-color="#86EFAC"/>
      <stop offset="1" stop-color="#22C55E"/>
    </linearGradient>
    <linearGradient id="hazardArc" x1="320" y1="52" x2="320" y2="72" gradientUnits="userSpaceOnUse">
      <stop stop-color="#FDA4AF"/>
      <stop offset="1" stop-color="#FB7185"/>
    </linearGradient>
    <linearGradient id="launcher" x1="320" y1="84" x2="320" y2="180" gradientUnits="userSpaceOnUse">
      <stop stop-color="#F8FAFC"/>
      <stop offset="1" stop-color="#38BDF8"/>
    </linearGradient>
    <radialGradient id="hub" cx="0" cy="0" r="1" gradientUnits="userSpaceOnUse" gradientTransform="translate(310 170) rotate(45) scale(44.5477)">
      <stop stop-color="#E0F2FE"/>
      <stop offset="1" stop-color="#0F172A"/>
    </radialGradient>
  </defs>
</svg>
