<svg width="512" height="512" viewBox="0 0 512 512" fill="none" xmlns="http://www.w3.org/2000/svg">
  <title>Spinner Aim ring with a rotating launcher, target arc, and hazard arc</title>
  <defs>
    <linearGradient id="spinner-aim-background" x1="48" y1="36" x2="454" y2="474" gradientUnits="userSpaceOnUse">
      <stop stop-color="#0d3a4f" />
      <stop offset="1" stop-color="#02182a" />
    </linearGradient>
  </defs>
  <rect width="512" height="512" rx="44" fill="url(#spinner-aim-background)" />
  <circle cx="410" cy="92" r="136" fill="rgba(6, 182, 212, 0.16)" />
  <circle cx="104" cy="418" r="118" fill="rgba(56, 189, 248, 0.09)" />
  <rect x="12" y="12" width="488" height="488" rx="42" fill="rgba(15, 46, 63, 0.94)" stroke="rgba(128, 201, 220, 0.16)" stroke-width="2" />
  <g transform="translate(256 256) scale(1.12) translate(-256 -256)"><circle cx="256" cy="236" r="126" fill="none" stroke="rgba(128, 201, 220, 0.18)" stroke-width="26" /><path d="M182 130 A126 126 0 0 1 330 132" fill="none" stroke="#22c55e" stroke-linecap="round" stroke-width="22" /><path d="M154 274 A126 126 0 0 0 208 344" fill="none" stroke="#fb7185" stroke-linecap="round" stroke-width="22" /><line x1="256" y1="236" x2="348" y2="164" stroke="#2ec2db" stroke-linecap="round" stroke-width="8" /><circle cx="256" cy="236" r="16" fill="#f8fafc" /><rect x="194" y="392" width="124" height="44" rx="16" fill="rgba(6, 182, 212, 0.28)" stroke="rgba(98, 203, 224, 0.85)" stroke-width="1.5" /><text x="256" y="415" font-family="'Avenir Next', 'Trebuchet MS', 'Segoe UI', sans-serif" font-weight="700" text-anchor="middle" dominant-baseline="middle" fill="#f8fafc" font-size="24">AIM</text></g>
</svg>
