<svg width="512" height="512" viewBox="0 0 512 512" fill="none" xmlns="http://www.w3.org/2000/svg">
  <title>Stack Sort puzzle with colored token columns</title>
  <defs>
    <linearGradient id="stack-sort-background" x1="48" y1="36" x2="454" y2="474" gradientUnits="userSpaceOnUse">
      <stop stop-color="#432b3e" />
      <stop offset="1" stop-color="#1b1122" />
    </linearGradient>
  </defs>
  <rect width="512" height="512" rx="44" fill="url(#stack-sort-background)" />
  <circle cx="410" cy="92" r="136" fill="rgba(251, 113, 133, 0.16)" />
  <circle cx="104" cy="418" r="118" fill="rgba(56, 189, 248, 0.09)" />
  <rect x="12" y="12" width="488" height="488" rx="42" fill="rgba(50, 36, 52, 0.94)" stroke="rgba(221, 175, 190, 0.16)" stroke-width="2" />
  <g transform="translate(256 256) scale(1.12) translate(-256 -256)"><rect x="96" y="118" width="56" height="222" rx="26" fill="rgba(221, 175, 190, 0.08)" stroke="rgba(221, 175, 190, 0.22)" stroke-width="1.5" /><rect x="176" y="118" width="56" height="222" rx="26" fill="rgba(221, 175, 190, 0.08)" stroke="rgba(221, 175, 190, 0.22)" stroke-width="1.5" /><rect x="256" y="118" width="56" height="222" rx="26" fill="rgba(221, 175, 190, 0.08)" stroke="rgba(221, 175, 190, 0.22)" stroke-width="1.5" /><rect x="336" y="118" width="56" height="222" rx="26" fill="rgba(221, 175, 190, 0.08)" stroke="rgba(221, 175, 190, 0.22)" stroke-width="1.5" /><circle cx="124" cy="310" r="18" fill="#fb7185" /><circle cx="124" cy="266" r="18" fill="#f59e0b" /><circle cx="204" cy="310" r="18" fill="#38bdf8" /><circle cx="204" cy="266" r="18" fill="#fb7185" /><circle cx="284" cy="310" r="18" fill="#f59e0b" /><circle cx="284" cy="266" r="18" fill="#38bdf8" /></g>
</svg>
