<svg xmlns="http://www.w3.org/2000/svg" viewBox="60 0 200 200" role="img" aria-labelledby="title desc">
  <title id="title">Stack Sort preview</title>
  <desc id="desc">Colored token stacks for a sorting puzzle.</desc>
  <rect width="320" height="200" rx="28" fill="#0f172a"/>
  <g transform="translate(56 34)">
    <g>
      <rect x="0" y="24" width="34" height="110" rx="16" fill="#1e293b"/>
      <rect x="50" y="24" width="34" height="110" rx="16" fill="#1e293b"/>
      <rect x="100" y="24" width="34" height="110" rx="16" fill="#1e293b"/>
      <rect x="150" y="24" width="34" height="110" rx="16" fill="#1e293b"/>
    </g>
    <g>
      <rect x="5" y="96" width="24" height="24" rx="12" fill="#38bdf8"/>
      <rect x="5" y="66" width="24" height="24" rx="12" fill="#fb7185"/>
      <rect x="5" y="36" width="24" height="24" rx="12" fill="#f59e0b"/>
      <rect x="55" y="96" width="24" height="24" rx="12" fill="#10b981"/>
      <rect x="55" y="66" width="24" height="24" rx="12" fill="#38bdf8"/>
      <rect x="55" y="36" width="24" height="24" rx="12" fill="#8b5cf6"/>
      <rect x="105" y="96" width="24" height="24" rx="12" fill="#fb7185"/>
      <rect x="105" y="66" width="24" height="24" rx="12" fill="#10b981"/>
      <rect x="105" y="36" width="24" height="24" rx="12" fill="#f59e0b"/>
    </g>
  </g>
  <text x="160" y="182" fill="#e2e8f0" font-family="monospace" font-size="16" text-anchor="middle">STACK SORT</text>
</svg>
