<svg width="512" height="512" viewBox="0 0 512 512" fill="none" xmlns="http://www.w3.org/2000/svg">
  <title>Sudoku puzzle board with preset digits and empty cells</title>
  <defs>
    <linearGradient id="sudoku-background" x1="48" y1="36" x2="454" y2="474" gradientUnits="userSpaceOnUse">
      <stop stop-color="#0f2c39" />
      <stop offset="1" stop-color="#031120" />
    </linearGradient>
  </defs>
  <rect width="512" height="512" rx="44" fill="url(#sudoku-background)" />
  <circle cx="410" cy="92" r="136" fill="rgba(15, 118, 110, 0.16)" />
  <circle cx="104" cy="418" r="118" fill="rgba(56, 189, 248, 0.09)" />
  <rect x="12" y="12" width="488" height="488" rx="42" fill="rgba(17, 37, 49, 0.94)" stroke="rgba(132, 177, 181, 0.16)" stroke-width="2" />
  <g transform="translate(256 256) scale(1.12) translate(-256 -256)"><rect x="92" y="80" width="312" height="312" rx="26" fill="rgba(28, 55, 65, 0.96)" stroke="rgba(132, 177, 181, 0.22)" stroke-width="1.5" /><rect x="110" y="98" width="32" height="32" fill="#2b4d5b" stroke="rgba(132, 177, 181, 0.14)" stroke-width="1" /><rect x="142" y="98" width="32" height="32" fill="rgba(132, 177, 181, 0.06)" stroke="rgba(132, 177, 181, 0.14)" stroke-width="1" /><rect x="174" y="98" width="32" height="32" fill="#2b4d5b" stroke="rgba(132, 177, 181, 0.14)" stroke-width="1" /><rect x="206" y="98" width="32" height="32" fill="rgba(132, 177, 181, 0.06)" stroke="rgba(132, 177, 181, 0.14)" stroke-width="1" /><rect x="238" y="98" width="32" height="32" fill="#2b4d5b" stroke="rgba(132, 177, 181, 0.14)" stroke-width="1" /><rect x="270" y="98" width="32" height="32" fill="rgba(132, 177, 181, 0.06)" stroke="rgba(132, 177, 181, 0.14)" stroke-width="1" /><rect x="302" y="98" width="32" height="32" fill="#2b4d5b" stroke="rgba(132, 177, 181, 0.14)" stroke-width="1" /><rect x="334" y="98" width="32" height="32" fill="rgba(132, 177, 181, 0.06)" stroke="rgba(132, 177, 181, 0.14)" stroke-width="1" /><rect x="366" y="98" width="32" height="32" fill="#2b4d5b" stroke="rgba(132, 177, 181, 0.14)" stroke-width="1" /><rect x="110" y="130" width="32" height="32" fill="rgba(132, 177, 181, 0.06)" stroke="rgba(132, 177, 181, 0.14)" stroke-width="1" /><rect x="142" y="130" width="32" height="32" fill="#2b4d5b" stroke="rgba(132, 177, 181, 0.14)" stroke-width="1" /><rect x="174" y="130" width="32" height="32" fill="rgba(132, 177, 181, 0.06)" stroke="rgba(132, 177, 181, 0.14)" stroke-width="1" /><rect x="206" y="130" width="32" height="32" fill="#2b4d5b" stroke="rgba(132, 177, 181, 0.14)" stroke-width="1" /><rect x="238" y="130" width="32" height="32" fill="rgba(132, 177, 181, 0.06)" stroke="rgba(132, 177, 181, 0.14)" stroke-width="1" /><rect x="270" y="130" width="32" height="32" fill="#2b4d5b" stroke="rgba(132, 177, 181, 0.14)" stroke-width="1" /><rect x="302" y="130" width="32" height="32" fill="rgba(132, 177, 181, 0.06)" stroke="rgba(132, 177, 181, 0.14)" stroke-width="1" /><rect x="334" y="130" width="32" height="32" fill="#2b4d5b" stroke="rgba(132, 177, 181, 0.14)" stroke-width="1" /><rect x="366" y="130" width="32" height="32" fill="rgba(132, 177, 181, 0.06)" stroke="rgba(132, 177, 181, 0.14)" stroke-width="1" /><rect x="110" y="162" width="32" height="32" fill="#2b4d5b" stroke="rgba(132, 177, 181, 0.14)" stroke-width="1" /><rect x="142" y="162" width="32" height="32" fill="rgba(132, 177, 181, 0.06)" stroke="rgba(132, 177, 181, 0.14)" stroke-width="1" /><rect x="174" y="162" width="32" height="32" fill="#2b4d5b" stroke="rgba(132, 177, 181, 0.14)" stroke-width="1" /><rect x="206" y="162" width="32" height="32" fill="rgba(132, 177, 181, 0.06)" stroke="rgba(132, 177, 181, 0.14)" stroke-width="1" /><rect x="238" y="162" width="32" height="32" fill="#2b4d5b" stroke="rgba(132, 177, 181, 0.14)" stroke-width="1" /><rect x="270" y="162" width="32" height="32" fill="rgba(132, 177, 181, 0.06)" stroke="rgba(132, 177, 181, 0.14)" stroke-width="1" /><rect x="302" y="162" width="32" height="32" fill="#2b4d5b" stroke="rgba(132, 177, 181, 0.14)" stroke-width="1" /><rect x="334" y="162" width="32" height="32" fill="rgba(132, 177, 181, 0.06)" stroke="rgba(132, 177, 181, 0.14)" stroke-width="1" /><rect x="366" y="162" width="32" height="32" fill="#2b4d5b" stroke="rgba(132, 177, 181, 0.14)" stroke-width="1" /><rect x="110" y="194" width="32" height="32" fill="rgba(132, 177, 181, 0.06)" stroke="rgba(132, 177, 181, 0.14)" stroke-width="1" /><rect x="142" y="194" width="32" height="32" fill="#2b4d5b" stroke="rgba(132, 177, 181, 0.14)" stroke-width="1" /><rect x="174" y="194" width="32" height="32" fill="rgba(132, 177, 181, 0.06)" stroke="rgba(132, 177, 181, 0.14)" stroke-width="1" /><rect x="206" y="194" width="32" height="32" fill="#2b4d5b" stroke="rgba(132, 177, 181, 0.14)" stroke-width="1" /><rect x="238" y="194" width="32" height="32" fill="rgba(132, 177, 181, 0.06)" stroke="rgba(132, 177, 181, 0.14)" stroke-width="1" /><rect x="270" y="194" width="32" height="32" fill="#2b4d5b" stroke="rgba(132, 177, 181, 0.14)" stroke-width="1" /><rect x="302" y="194" width="32" height="32" fill="rgba(132, 177, 181, 0.06)" stroke="rgba(132, 177, 181, 0.14)" stroke-width="1" /><rect x="334" y="194" width="32" height="32" fill="#2b4d5b" stroke="rgba(132, 177, 181, 0.14)" stroke-width="1" /><rect x="366" y="194" width="32" height="32" fill="rgba(132, 177, 181, 0.06)" stroke="rgba(132, 177, 181, 0.14)" stroke-width="1" /><rect x="110" y="226" width="32" height="32" fill="#2b4d5b" stroke="rgba(132, 177, 181, 0.14)" stroke-width="1" /><rect x="142" y="226" width="32" height="32" fill="rgba(132, 177, 181, 0.06)" stroke="rgba(132, 177, 181, 0.14)" stroke-width="1" /><rect x="174" y="226" width="32" height="32" fill="#2b4d5b" stroke="rgba(132, 177, 181, 0.14)" stroke-width="1" /><rect x="206" y="226" width="32" height="32" fill="rgba(132, 177, 181, 0.06)" stroke="rgba(132, 177, 181, 0.14)" stroke-width="1" /><rect x="238" y="226" width="32" height="32" fill="#2b4d5b" stroke="rgba(132, 177, 181, 0.14)" stroke-width="1" /><rect x="270" y="226" width="32" height="32" fill="rgba(132, 177, 181, 0.06)" stroke="rgba(132, 177, 181, 0.14)" stroke-width="1" /><rect x="302" y="226" width="32" height="32" fill="#2b4d5b" stroke="rgba(132, 177, 181, 0.14)" stroke-width="1" /><rect x="334" y="226" width="32" height="32" fill="rgba(132, 177, 181, 0.06)" stroke="rgba(132, 177, 181, 0.14)" stroke-width="1" /><rect x="366" y="226" width="32" height="32" fill="#2b4d5b" stroke="rgba(132, 177, 181, 0.14)" stroke-width="1" /><rect x="110" y="258" width="32" height="32" fill="rgba(132, 177, 181, 0.06)" stroke="rgba(132, 177, 181, 0.14)" stroke-width="1" /><rect x="142" y="258" width="32" height="32" fill="#2b4d5b" stroke="rgba(132, 177, 181, 0.14)" stroke-width="1" /><rect x="174" y="258" width="32" height="32" fill="rgba(132, 177, 181, 0.06)" stroke="rgba(132, 177, 181, 0.14)" stroke-width="1" /><rect x="206" y="258" width="32" height="32" fill="#2b4d5b" stroke="rgba(132, 177, 181, 0.14)" stroke-width="1" /><rect x="238" y="258" width="32" height="32" fill="rgba(132, 177, 181, 0.06)" stroke="rgba(132, 177, 181, 0.14)" stroke-width="1" /><rect x="270" y="258" width="32" height="32" fill="#2b4d5b" stroke="rgba(132, 177, 181, 0.14)" stroke-width="1" /><rect x="302" y="258" width="32" height="32" fill="rgba(132, 177, 181, 0.06)" stroke="rgba(132, 177, 181, 0.14)" stroke-width="1" /><rect x="334" y="258" width="32" height="32" fill="#2b4d5b" stroke="rgba(132, 177, 181, 0.14)" stroke-width="1" /><rect x="366" y="258" width="32" height="32" fill="rgba(132, 177, 181, 0.06)" stroke="rgba(132, 177, 181, 0.14)" stroke-width="1" /><rect x="110" y="290" width="32" height="32" fill="#2b4d5b" stroke="rgba(132, 177, 181, 0.14)" stroke-width="1" /><rect x="142" y="290" width="32" height="32" fill="rgba(132, 177, 181, 0.06)" stroke="rgba(132, 177, 181, 0.14)" stroke-width="1" /><rect x="174" y="290" width="32" height="32" fill="#2b4d5b" stroke="rgba(132, 177, 181, 0.14)" stroke-width="1" /><rect x="206" y="290" width="32" height="32" fill="rgba(132, 177, 181, 0.06)" stroke="rgba(132, 177, 181, 0.14)" stroke-width="1" /><rect x="238" y="290" width="32" height="32" fill="#2b4d5b" stroke="rgba(132, 177, 181, 0.14)" stroke-width="1" /><rect x="270" y="290" width="32" height="32" fill="rgba(132, 177, 181, 0.06)" stroke="rgba(132, 177, 181, 0.14)" stroke-width="1" /><rect x="302" y="290" width="32" height="32" fill="#2b4d5b" stroke="rgba(132, 177, 181, 0.14)" stroke-width="1" /><rect x="334" y="290" width="32" height="32" fill="rgba(132, 177, 181, 0.06)" stroke="rgba(132, 177, 181, 0.14)" stroke-width="1" /><rect x="366" y="290" width="32" height="32" fill="#2b4d5b" stroke="rgba(132, 177, 181, 0.14)" stroke-width="1" /><rect x="110" y="322" width="32" height="32" fill="rgba(132, 177, 181, 0.06)" stroke="rgba(132, 177, 181, 0.14)" stroke-width="1" /><rect x="142" y="322" width="32" height="32" fill="#2b4d5b" stroke="rgba(132, 177, 181, 0.14)" stroke-width="1" /><rect x="174" y="322" width="32" height="32" fill="rgba(132, 177, 181, 0.06)" stroke="rgba(132, 177, 181, 0.14)" stroke-width="1" /><rect x="206" y="322" width="32" height="32" fill="#2b4d5b" stroke="rgba(132, 177, 181, 0.14)" stroke-width="1" /><rect x="238" y="322" width="32" height="32" fill="rgba(132, 177, 181, 0.06)" stroke="rgba(132, 177, 181, 0.14)" stroke-width="1" /><rect x="270" y="322" width="32" height="32" fill="#2b4d5b" stroke="rgba(132, 177, 181, 0.14)" stroke-width="1" /><rect x="302" y="322" width="32" height="32" fill="rgba(132, 177, 181, 0.06)" stroke="rgba(132, 177, 181, 0.14)" stroke-width="1" /><rect x="334" y="322" width="32" height="32" fill="#2b4d5b" stroke="rgba(132, 177, 181, 0.14)" stroke-width="1" /><rect x="366" y="322" width="32" height="32" fill="rgba(132, 177, 181, 0.06)" stroke="rgba(132, 177, 181, 0.14)" stroke-width="1" /><rect x="110" y="354" width="32" height="32" fill="#2b4d5b" stroke="rgba(132, 177, 181, 0.14)" stroke-width="1" /><rect x="142" y="354" width="32" height="32" fill="rgba(132, 177, 181, 0.06)" stroke="rgba(132, 177, 181, 0.14)" stroke-width="1" /><rect x="174" y="354" width="32" height="32" fill="#2b4d5b" stroke="rgba(132, 177, 181, 0.14)" stroke-width="1" /><rect x="206" y="354" width="32" height="32" fill="rgba(132, 177, 181, 0.06)" stroke="rgba(132, 177, 181, 0.14)" stroke-width="1" /><rect x="238" y="354" width="32" height="32" fill="#2b4d5b" stroke="rgba(132, 177, 181, 0.14)" stroke-width="1" /><rect x="270" y="354" width="32" height="32" fill="rgba(132, 177, 181, 0.06)" stroke="rgba(132, 177, 181, 0.14)" stroke-width="1" /><rect x="302" y="354" width="32" height="32" fill="#2b4d5b" stroke="rgba(132, 177, 181, 0.14)" stroke-width="1" /><rect x="334" y="354" width="32" height="32" fill="rgba(132, 177, 181, 0.06)" stroke="rgba(132, 177, 181, 0.14)" stroke-width="1" /><rect x="366" y="354" width="32" height="32" fill="#2b4d5b" stroke="rgba(132, 177, 181, 0.14)" stroke-width="1" /><line x1="110" y1="98" x2="110" y2="386" stroke="rgba(132, 177, 181, 0.38)" stroke-width="3" /><line x1="110" y1="98" x2="398" y2="98" stroke="rgba(132, 177, 181, 0.38)" stroke-width="3" /><line x1="142" y1="98" x2="142" y2="386" stroke="rgba(132, 177, 181, 0.38)" stroke-width="1" /><line x1="110" y1="130" x2="398" y2="130" stroke="rgba(132, 177, 181, 0.38)" stroke-width="1" /><line x1="174" y1="98" x2="174" y2="386" stroke="rgba(132, 177, 181, 0.38)" stroke-width="1" /><line x1="110" y1="162" x2="398" y2="162" stroke="rgba(132, 177, 181, 0.38)" stroke-width="1" /><line x1="206" y1="98" x2="206" y2="386" stroke="rgba(132, 177, 181, 0.38)" stroke-width="3" /><line x1="110" y1="194" x2="398" y2="194" stroke="rgba(132, 177, 181, 0.38)" stroke-width="3" /><line x1="238" y1="98" x2="238" y2="386" stroke="rgba(132, 177, 181, 0.38)" stroke-width="1" /><line x1="110" y1="226" x2="398" y2="226" stroke="rgba(132, 177, 181, 0.38)" stroke-width="1" /><line x1="270" y1="98" x2="270" y2="386" stroke="rgba(132, 177, 181, 0.38)" stroke-width="1" /><line x1="110" y1="258" x2="398" y2="258" stroke="rgba(132, 177, 181, 0.38)" stroke-width="1" /><line x1="302" y1="98" x2="302" y2="386" stroke="rgba(132, 177, 181, 0.38)" stroke-width="3" /><line x1="110" y1="290" x2="398" y2="290" stroke="rgba(132, 177, 181, 0.38)" stroke-width="3" /><line x1="334" y1="98" x2="334" y2="386" stroke="rgba(132, 177, 181, 0.38)" stroke-width="1" /><line x1="110" y1="322" x2="398" y2="322" stroke="rgba(132, 177, 181, 0.38)" stroke-width="1" /><line x1="366" y1="98" x2="366" y2="386" stroke="rgba(132, 177, 181, 0.38)" stroke-width="1" /><line x1="110" y1="354" x2="398" y2="354" stroke="rgba(132, 177, 181, 0.38)" stroke-width="1" /><line x1="398" y1="98" x2="398" y2="386" stroke="rgba(132, 177, 181, 0.38)" stroke-width="3" /><line x1="110" y1="386" x2="398" y2="386" stroke="rgba(132, 177, 181, 0.38)" stroke-width="3" /><text x="126" y="114" font-family="'Avenir Next', 'Trebuchet MS', 'Segoe UI', sans-serif" font-weight="700" text-anchor="middle" dominant-baseline="middle" fill="#f8fafc" font-size="20">5</text><text x="190" y="146" font-family="'Avenir Next', 'Trebuchet MS', 'Segoe UI', sans-serif" font-weight="700" text-anchor="middle" dominant-baseline="middle" fill="#f8fafc" font-size="20">3</text><text x="286" y="178" font-family="'Avenir Next', 'Trebuchet MS', 'Segoe UI', sans-serif" font-weight="700" text-anchor="middle" dominant-baseline="middle" fill="#f8fafc" font-size="20">7</text><text x="350" y="242" font-family="'Avenir Next', 'Trebuchet MS', 'Segoe UI', sans-serif" font-weight="700" text-anchor="middle" dominant-baseline="middle" fill="#cbd5e1" font-size="20">1</text><text x="222" y="306" font-family="'Avenir Next', 'Trebuchet MS', 'Segoe UI', sans-serif" font-weight="700" text-anchor="middle" dominant-baseline="middle" fill="#cbd5e1" font-size="20">9</text><text x="318" y="338" font-family="'Avenir Next', 'Trebuchet MS', 'Segoe UI', sans-serif" font-weight="700" text-anchor="middle" dominant-baseline="middle" fill="#f8fafc" font-size="20">4</text></g>
</svg>
