<svg width="640" height="640" viewBox="0 0 640 640" fill="none" xmlns="http://www.w3.org/2000/svg">
  <rect width="640" height="640" rx="96" fill="#082F49"/>
  <rect x="136" y="128" width="368" height="368" rx="40" fill="#0C4A6E"/>
  <rect x="216" y="208" width="80" height="80" rx="20" fill="#67E8F9"/>
  <rect x="312" y="208" width="80" height="80" rx="20" fill="#22D3EE"/>
  <rect x="216" y="304" width="80" height="80" rx="20" fill="#22D3EE"/>
  <rect x="312" y="304" width="80" height="80" rx="20" fill="#67E8F9"/>
  <text x="247" y="258" fill="#083344" font-size="32" font-family="Arial" font-weight="700">4</text>
  <text x="343" y="258" fill="#083344" font-size="32" font-family="Arial" font-weight="700">7</text>
  <text x="247" y="354" fill="#083344" font-size="32" font-family="Arial" font-weight="700">6</text>
  <text x="343" y="354" fill="#083344" font-size="32" font-family="Arial" font-weight="700">3</text>
  <rect x="216" y="150" width="80" height="38" rx="19" fill="#E0F2FE"/>
  <rect x="312" y="150" width="80" height="38" rx="19" fill="#E0F2FE"/>
  <rect x="150" y="208" width="52" height="80" rx="20" fill="#E0F2FE"/>
  <rect x="150" y="304" width="52" height="80" rx="20" fill="#E0F2FE"/>
  <text x="245" y="177" fill="#0C4A6E" font-size="24" font-family="Arial" font-weight="700">10</text>
  <text x="341" y="177" fill="#0C4A6E" font-size="24" font-family="Arial" font-weight="700">10</text>
  <text x="162" y="257" fill="#0C4A6E" font-size="24" font-family="Arial" font-weight="700">11</text>
  <text x="162" y="353" fill="#0C4A6E" font-size="24" font-family="Arial" font-weight="700">9</text>
</svg>
