<svg width="512" height="512" viewBox="0 0 512 512" fill="none" xmlns="http://www.w3.org/2000/svg">
  <title>Sum Grid board showing row and column targets around a number grid</title>
  <defs>
    <linearGradient id="sum-grid-background" x1="48" y1="36" x2="454" y2="474" gradientUnits="userSpaceOnUse">
      <stop stop-color="#0d3a4f" />
      <stop offset="1" stop-color="#02182a" />
    </linearGradient>
  </defs>
  <rect width="512" height="512" rx="44" fill="url(#sum-grid-background)" />
  <circle cx="410" cy="92" r="136" fill="rgba(6, 182, 212, 0.16)" />
  <circle cx="104" cy="418" r="118" fill="rgba(56, 189, 248, 0.09)" />
  <rect x="12" y="12" width="488" height="488" rx="42" fill="rgba(15, 46, 63, 0.94)" stroke="rgba(128, 201, 220, 0.16)" stroke-width="2" />
  <g transform="translate(256 256) scale(1.12) translate(-256 -256)"><rect x="92" y="102" width="238" height="238" rx="26" fill="rgba(27, 66, 83, 0.96)" stroke="rgba(128, 201, 220, 0.22)" stroke-width="1.5" /><rect x="110" y="120" width="62" height="62" rx="12" fill="#295b71" stroke="rgba(128, 201, 220, 0.18)" stroke-width="1.2" /><text x="141" y="152" font-family="'Avenir Next', 'Trebuchet MS', 'Segoe UI', sans-serif" font-weight="700" text-anchor="middle" dominant-baseline="middle" fill="#cbd5e1" font-size="28">4</text><rect x="180" y="120" width="62" height="62" rx="12" fill="#295b71" stroke="rgba(128, 201, 220, 0.18)" stroke-width="1.2" /><text x="211" y="152" font-family="'Avenir Next', 'Trebuchet MS', 'Segoe UI', sans-serif" font-weight="700" text-anchor="middle" dominant-baseline="middle" fill="#cbd5e1" font-size="28">1</text><rect x="250" y="120" width="62" height="62" rx="12" fill="#295b71" stroke="rgba(128, 201, 220, 0.18)" stroke-width="1.2" /><rect x="110" y="190" width="62" height="62" rx="12" fill="#295b71" stroke="rgba(128, 201, 220, 0.18)" stroke-width="1.2" /><rect x="180" y="190" width="62" height="62" rx="12" fill="#295b71" stroke="rgba(128, 201, 220, 0.18)" stroke-width="1.2" /><text x="211" y="222" font-family="'Avenir Next', 'Trebuchet MS', 'Segoe UI', sans-serif" font-weight="700" text-anchor="middle" dominant-baseline="middle" fill="#f8fafc" font-size="28">3</text><rect x="250" y="190" width="62" height="62" rx="12" fill="#295b71" stroke="rgba(128, 201, 220, 0.18)" stroke-width="1.2" /><rect x="110" y="260" width="62" height="62" rx="12" fill="#295b71" stroke="rgba(128, 201, 220, 0.18)" stroke-width="1.2" /><text x="141" y="292" font-family="'Avenir Next', 'Trebuchet MS', 'Segoe UI', sans-serif" font-weight="700" text-anchor="middle" dominant-baseline="middle" fill="#cbd5e1" font-size="28">2</text><rect x="180" y="260" width="62" height="62" rx="12" fill="#295b71" stroke="rgba(128, 201, 220, 0.18)" stroke-width="1.2" /><rect x="250" y="260" width="62" height="62" rx="12" fill="#295b71" stroke="rgba(128, 201, 220, 0.18)" stroke-width="1.2" /><rect x="332" y="136" width="70" height="42" rx="16" fill="rgba(6, 182, 212, 0.28)" stroke="rgba(98, 203, 224, 0.85)" stroke-width="1.5" /><text x="367" y="158" font-family="'Avenir Next', 'Trebuchet MS', 'Segoe UI', sans-serif" font-weight="700" text-anchor="middle" dominant-baseline="middle" fill="#f8fafc" font-size="19.6">9</text><rect x="332" y="206" width="70" height="42" rx="16" fill="rgba(38, 98, 121, 0.92)" stroke="rgba(128, 201, 220, 0.24)" stroke-width="1.5" /><text x="367" y="228" font-family="'Avenir Next', 'Trebuchet MS', 'Segoe UI', sans-serif" font-weight="700" text-anchor="middle" dominant-baseline="middle" fill="#cbd5e1" font-size="19.6">8</text><rect x="332" y="276" width="70" height="42" rx="16" fill="rgba(38, 98, 121, 0.92)" stroke="rgba(128, 201, 220, 0.24)" stroke-width="1.5" /><text x="367" y="298" font-family="'Avenir Next', 'Trebuchet MS', 'Segoe UI', sans-serif" font-weight="700" text-anchor="middle" dominant-baseline="middle" fill="#cbd5e1" font-size="19.6">7</text><rect x="132" y="336" width="70" height="42" rx="16" fill="rgba(38, 98, 121, 0.92)" stroke="rgba(128, 201, 220, 0.24)" stroke-width="1.5" /><text x="167" y="358" font-family="'Avenir Next', 'Trebuchet MS', 'Segoe UI', sans-serif" font-weight="700" text-anchor="middle" dominant-baseline="middle" fill="#cbd5e1" font-size="19.6">6</text><rect x="206" y="336" width="70" height="42" rx="16" fill="rgba(6, 182, 212, 0.28)" stroke="rgba(98, 203, 224, 0.85)" stroke-width="1.5" /><text x="241" y="358" font-family="'Avenir Next', 'Trebuchet MS', 'Segoe UI', sans-serif" font-weight="700" text-anchor="middle" dominant-baseline="middle" fill="#f8fafc" font-size="19.6">8</text><rect x="280" y="336" width="70" height="42" rx="16" fill="rgba(38, 98, 121, 0.92)" stroke="rgba(128, 201, 220, 0.24)" stroke-width="1.5" /><text x="315" y="358" font-family="'Avenir Next', 'Trebuchet MS', 'Segoe UI', sans-serif" font-weight="700" text-anchor="middle" dominant-baseline="middle" fill="#cbd5e1" font-size="19.6">10</text></g>
</svg>
