<svg width="640" height="640" viewBox="0 0 640 640" fill="none" xmlns="http://www.w3.org/2000/svg">
  <rect width="640" height="640" rx="96" fill="#0F172A"/>
  <rect x="72" y="88" width="220" height="464" rx="32" fill="#1E293B"/>
  <rect x="348" y="88" width="220" height="464" rx="32" fill="#111827"/>
  <g fill="#DBEAFE">
    <rect x="104" y="152" width="56" height="56" rx="16"/>
    <rect x="176" y="152" width="56" height="56" rx="16"/>
    <rect x="104" y="224" width="56" height="56" rx="16"/>
    <rect x="176" y="224" width="56" height="56" rx="16"/>
    <rect x="104" y="296" width="56" height="56" rx="16"/>
    <rect x="176" y="296" width="56" height="56" rx="16"/>
  </g>
  <g fill="#60A5FA">
    <rect x="380" y="152" width="56" height="56" rx="16"/>
    <rect x="452" y="152" width="56" height="56" rx="16"/>
    <rect x="452" y="224" width="56" height="56" rx="16"/>
    <rect x="380" y="296" width="56" height="56" rx="16"/>
    <rect x="452" y="296" width="56" height="56" rx="16"/>
  </g>
  <rect x="380" y="224" width="56" height="56" rx="16" fill="#FDE047"/>
  <path d="M280 320C308 292 332 292 360 320" stroke="#38BDF8" stroke-width="16" stroke-linecap="round"/>
  <path d="M360 320C332 348 308 348 280 320" stroke="#38BDF8" stroke-width="16" stroke-linecap="round"/>
  <path d="M284 320L304 302" stroke="#38BDF8" stroke-width="16" stroke-linecap="round"/>
  <path d="M356 320L336 338" stroke="#38BDF8" stroke-width="16" stroke-linecap="round"/>
</svg>
