<svg width="512" height="512" viewBox="0 0 512 512" fill="none" xmlns="http://www.w3.org/2000/svg">
  <title>Swap Solve board showing target and live grids connected by a swap arrow</title>
  <defs>
    <linearGradient id="swap-solve-background" x1="48" y1="36" x2="454" y2="474" gradientUnits="userSpaceOnUse">
      <stop stop-color="#142854" />
      <stop offset="1" stop-color="#060f2c" />
    </linearGradient>
  </defs>
  <rect width="512" height="512" rx="44" fill="url(#swap-solve-background)" />
  <circle cx="410" cy="92" r="136" fill="rgba(37, 99, 235, 0.16)" />
  <circle cx="104" cy="418" r="118" fill="rgba(56, 189, 248, 0.09)" />
  <rect x="12" y="12" width="488" height="488" rx="42" fill="rgba(20, 35, 66, 0.94)" stroke="rgba(140, 170, 229, 0.16)" stroke-width="2" />
  <g transform="translate(256 256) scale(1.12) translate(-256 -256)"><rect x="74" y="142" width="160" height="160" rx="26" fill="rgba(32, 51, 87, 0.96)" stroke="rgba(140, 170, 229, 0.22)" stroke-width="1.5" /><rect x="92" y="160" width="36" height="36" rx="7" fill="#304876" stroke="rgba(140, 170, 229, 0.18)" stroke-width="1.2" /><rect x="136" y="160" width="36" height="36" rx="7" fill="rgba(37, 99, 235, 0.26)" stroke="rgba(140, 170, 229, 0.18)" stroke-width="1.2" /><rect x="180" y="160" width="36" height="36" rx="7" fill="#304876" stroke="rgba(140, 170, 229, 0.18)" stroke-width="1.2" /><rect x="92" y="204" width="36" height="36" rx="7" fill="#304876" stroke="rgba(140, 170, 229, 0.18)" stroke-width="1.2" /><rect x="136" y="204" width="36" height="36" rx="7" fill="#304876" stroke="rgba(140, 170, 229, 0.18)" stroke-width="1.2" /><rect x="180" y="204" width="36" height="36" rx="7" fill="#304876" stroke="rgba(140, 170, 229, 0.18)" stroke-width="1.2" /><rect x="92" y="248" width="36" height="36" rx="7" fill="#304876" stroke="rgba(140, 170, 229, 0.18)" stroke-width="1.2" /><rect x="136" y="248" width="36" height="36" rx="7" fill="#304876" stroke="rgba(140, 170, 229, 0.18)" stroke-width="1.2" /><rect x="180" y="248" width="36" height="36" rx="7" fill="rgba(56, 189, 248, 0.22)" stroke="rgba(140, 170, 229, 0.18)" stroke-width="1.2" /><rect x="272" y="142" width="160" height="160" rx="26" fill="rgba(32, 51, 87, 0.96)" stroke="rgba(140, 170, 229, 0.22)" stroke-width="1.5" /><rect x="290" y="160" width="36" height="36" rx="7" fill="#304876" stroke="rgba(140, 170, 229, 0.18)" stroke-width="1.2" /><rect x="334" y="160" width="36" height="36" rx="7" fill="rgba(56, 189, 248, 0.22)" stroke="rgba(140, 170, 229, 0.18)" stroke-width="1.2" /><rect x="378" y="160" width="36" height="36" rx="7" fill="#304876" stroke="rgba(140, 170, 229, 0.18)" stroke-width="1.2" /><rect x="290" y="204" width="36" height="36" rx="7" fill="#304876" stroke="rgba(140, 170, 229, 0.18)" stroke-width="1.2" /><rect x="334" y="204" width="36" height="36" rx="7" fill="#304876" stroke="rgba(140, 170, 229, 0.18)" stroke-width="1.2" /><rect x="378" y="204" width="36" height="36" rx="7" fill="#304876" stroke="rgba(140, 170, 229, 0.18)" stroke-width="1.2" /><rect x="290" y="248" width="36" height="36" rx="7" fill="#304876" stroke="rgba(140, 170, 229, 0.18)" stroke-width="1.2" /><rect x="334" y="248" width="36" height="36" rx="7" fill="#304876" stroke="rgba(140, 170, 229, 0.18)" stroke-width="1.2" /><rect x="378" y="248" width="36" height="36" rx="7" fill="rgba(37, 99, 235, 0.26)" stroke="rgba(140, 170, 229, 0.18)" stroke-width="1.2" /><line x1="228" y1="208" x2="280" y2="208" stroke="#cbd5e1" stroke-linecap="round" stroke-width="5" /><polygon points="280,208 262,200 262,216" fill="#cbd5e1" /><line x1="280" y1="248" x2="228" y2="248" stroke="#cbd5e1" stroke-linecap="round" stroke-width="5" /><polygon points="228,248 246,256 246,240" fill="#cbd5e1" /></g>
</svg>
