<svg width="512" height="512" viewBox="0 0 512 512" fill="none" xmlns="http://www.w3.org/2000/svg">
  <title>Symbol Hunt board with a target symbol and a noisy symbol grid</title>
  <defs>
    <linearGradient id="symbol-hunt-background" x1="48" y1="36" x2="454" y2="474" gradientUnits="userSpaceOnUse">
      <stop stop-color="#133d35" />
      <stop offset="1" stop-color="#05191e" />
    </linearGradient>
  </defs>
  <rect width="512" height="512" rx="44" fill="url(#symbol-hunt-background)" />
  <circle cx="410" cy="92" r="136" fill="rgba(34, 197, 94, 0.16)" />
  <circle cx="104" cy="418" r="118" fill="rgba(56, 189, 248, 0.09)" />
  <rect x="12" y="12" width="488" height="488" rx="42" fill="rgba(19, 48, 47, 0.94)" stroke="rgba(139, 207, 175, 0.16)" stroke-width="2" />
  <g transform="translate(256 256) scale(1.12) translate(-256 -256)"><rect x="64" y="76" width="98" height="46" rx="16" fill="rgba(34, 197, 94, 0.28)" stroke="rgba(115, 212, 155, 0.85)" stroke-width="1.5" /><text x="113" y="100" font-family="'Avenir Next', 'Trebuchet MS', 'Segoe UI', sans-serif" font-weight="700" text-anchor="middle" dominant-baseline="middle" fill="#f8fafc" font-size="24">FIND</text><rect x="180" y="70" width="72" height="58" rx="26" fill="rgba(34, 197, 94, 0.2)" stroke="rgba(139, 207, 175, 0.22)" stroke-width="1.5" /><polygon points="216,84 201.6,116 230.4,116" fill="#45ce78" /><rect x="78" y="134" width="220" height="220" rx="26" fill="rgba(32, 69, 62, 0.96)" stroke="rgba(139, 207, 175, 0.22)" stroke-width="1.5" /><rect x="96" y="152" width="56" height="56" rx="11" fill="#2f5e57" stroke="rgba(139, 207, 175, 0.18)" stroke-width="1.2" /><circle cx="124" cy="180" r="12" fill="#cbd5e1" /><rect x="160" y="152" width="56" height="56" rx="11" fill="#2f5e57" stroke="rgba(139, 207, 175, 0.18)" stroke-width="1.2" /><polygon points="188,168 177.2,192 198.8,192" fill="#cbd5e1" /><rect x="224" y="152" width="56" height="56" rx="11" fill="#2f5e57" stroke="rgba(139, 207, 175, 0.18)" stroke-width="1.2" /><polygon points="252,168 240,180 252,192 264,180" fill="#cbd5e1" /><rect x="96" y="216" width="56" height="56" rx="11" fill="#2f5e57" stroke="rgba(139, 207, 175, 0.18)" stroke-width="1.2" /><rect x="112" y="232" width="24" height="24" rx="5.28" fill="#cbd5e1" /><rect x="160" y="216" width="56" height="56" rx="11" fill="#2f5e57" stroke="rgba(139, 207, 175, 0.18)" stroke-width="1.2" /><polygon points="188,230 175.4,258 200.6,258" fill="#45ce78" /><rect x="224" y="216" width="56" height="56" rx="11" fill="#2f5e57" stroke="rgba(139, 207, 175, 0.18)" stroke-width="1.2" /><circle cx="252" cy="244" r="12" fill="#cbd5e1" /><rect x="96" y="280" width="56" height="56" rx="11" fill="#2f5e57" stroke="rgba(139, 207, 175, 0.18)" stroke-width="1.2" /><circle cx="124" cy="308" r="12" fill="none" stroke="#cbd5e1" stroke-width="4.08" /><rect x="160" y="280" width="56" height="56" rx="11" fill="#2f5e57" stroke="rgba(139, 207, 175, 0.18)" stroke-width="1.2" /><rect x="176" y="296" width="24" height="24" rx="5.28" fill="#cbd5e1" /><rect x="224" y="280" width="56" height="56" rx="11" fill="#2f5e57" stroke="rgba(139, 207, 175, 0.18)" stroke-width="1.2" /><polygon points="252,296 240,308 252,320 264,308" fill="#cbd5e1" /><circle cx="188" cy="244" r="28" fill="none" stroke="rgba(69, 206, 120, 0.42)" stroke-width="8" /><circle cx="188" cy="244" r="11.76" fill="#45ce78" /></g>
</svg>
