<svg width="512" height="512" viewBox="0 0 512 512" fill="none" xmlns="http://www.w3.org/2000/svg">
  <title>Sync Pulse dual ring board with two pulse circles collapsing into a shared sync pad</title>
  <defs>
    <linearGradient id="sync-pulse-background" x1="48" y1="36" x2="454" y2="474" gradientUnits="userSpaceOnUse">
      <stop stop-color="#103a45" />
      <stop offset="1" stop-color="#041825" />
    </linearGradient>
  </defs>
  <rect width="512" height="512" rx="44" fill="url(#sync-pulse-background)" />
  <circle cx="410" cy="92" r="136" fill="rgba(20, 184, 166, 0.16)" />
  <circle cx="104" cy="418" r="118" fill="rgba(56, 189, 248, 0.09)" />
  <rect x="12" y="12" width="488" height="488" rx="42" fill="rgba(17, 46, 57, 0.94)" stroke="rgba(133, 202, 203, 0.16)" stroke-width="2" />
  <g transform="translate(256 256) scale(1.12) translate(-256 -256)"><circle cx="170" cy="224" r="72" fill="none" stroke="rgba(56, 189, 248, 0.42)" stroke-width="10" /><circle cx="342" cy="224" r="72" fill="none" stroke="rgba(20, 184, 166, 0.42)" stroke-width="10" /><circle cx="170" cy="224" r="22" fill="#38bdf8" /><circle cx="342" cy="224" r="22" fill="#3ac3b4" /><rect x="210" y="330" width="92" height="48" rx="24" fill="rgba(34, 197, 94, 0.24)" stroke="rgba(34, 197, 94, 0.82)" stroke-width="3" /><line x1="206" y1="224" x2="248" y2="330" stroke="#cbd5e1" stroke-linecap="round" stroke-width="5" /><polygon points="248,330 248.8068933777625,310.31881804675027 233.93198937031525,316.21264793649345" fill="#cbd5e1" /><line x1="306" y1="330" x2="306" y2="252" stroke="#cbd5e1" stroke-linecap="round" stroke-width="5" /><polygon points="306,252 298,270 314,270" fill="#cbd5e1" /></g>
</svg>
