<svg width="512" height="512" viewBox="0 0 512 512" fill="none" xmlns="http://www.w3.org/2000/svg">
  <title>Tap Safe wave board mixing safe targets and hazard objects with short-lived badges</title>
  <defs>
    <linearGradient id="tap-safe-background" x1="48" y1="36" x2="454" y2="474" gradientUnits="userSpaceOnUse">
      <stop stop-color="#422b26" />
      <stop offset="1" stop-color="#1b1117" />
    </linearGradient>
  </defs>
  <rect width="512" height="512" rx="44" fill="url(#tap-safe-background)" />
  <circle cx="410" cy="92" r="136" fill="rgba(249, 115, 22, 0.16)" />
  <circle cx="104" cy="418" r="118" fill="rgba(56, 189, 248, 0.09)" />
  <rect x="12" y="12" width="488" height="488" rx="42" fill="rgba(49, 37, 37, 0.94)" stroke="rgba(220, 176, 148, 0.16)" stroke-width="2" />
  <g transform="translate(256 256) scale(1.12) translate(-256 -256)"><rect x="60" y="110" width="392" height="256" rx="26" fill="rgba(70, 54, 49, 0.96)" stroke="rgba(220, 176, 148, 0.22)" stroke-width="1.5" /><circle cx="116" cy="206" r="28" fill="rgba(34, 197, 94, 0.88)" /><circle cx="192" cy="170" r="24" fill="rgba(34, 197, 94, 0.88)" /><circle cx="260" cy="224" r="30" fill="rgba(251, 113, 133, 0.9)" /><circle cx="340" cy="180" r="26" fill="rgba(34, 197, 94, 0.88)" /><polygon points="404,212 376,240 404,268 432,240" fill="rgba(251, 113, 133, 0.9)" /><line x1="244" y1="208" x2="276" y2="240" stroke="#f8fafc" stroke-width="5" stroke-linecap="round" /><line x1="276" y1="208" x2="244" y2="240" stroke="#f8fafc" stroke-width="5" stroke-linecap="round" /><rect x="86" y="384" width="150" height="44" rx="16" fill="rgba(249, 115, 22, 0.28)" stroke="rgba(239, 164, 114, 0.85)" stroke-width="1.5" /><text x="161" y="407" font-family="'Avenir Next', 'Trebuchet MS', 'Segoe UI', sans-serif" font-weight="700" text-anchor="middle" dominant-baseline="middle" fill="#f8fafc" font-size="24">SAFE</text><rect x="276" y="384" width="150" height="44" rx="16" fill="rgba(106, 79, 67, 0.92)" stroke="rgba(220, 176, 148, 0.24)" stroke-width="1.5" /><text x="351" y="407" font-family="'Avenir Next', 'Trebuchet MS', 'Segoe UI', sans-serif" font-weight="700" text-anchor="middle" dominant-baseline="middle" fill="#cbd5e1" font-size="24">AVOID</text></g>
</svg>
