<svg width="360" height="360" viewBox="140 0 360 360" fill="none" xmlns="http://www.w3.org/2000/svg">
  <rect width="640" height="360" rx="32" fill="#0F172A"/>
  <rect x="30" y="42" width="276" height="276" rx="28" fill="#111827"/>
  <rect x="334" y="42" width="276" height="276" rx="28" fill="#111827"/>
  <rect x="60" y="154" width="216" height="16" rx="8" fill="#334155"/>
  <rect x="364" y="154" width="216" height="16" rx="8" fill="#334155"/>
  <rect x="143" y="148" width="52" height="28" rx="14" fill="#38BDF8" fill-opacity="0.26"/>
  <rect x="447" y="148" width="52" height="28" rx="14" fill="#F472B6" fill-opacity="0.26"/>
  <rect x="165" y="143" width="8" height="38" rx="4" fill="#F8FAFC"/>
  <rect x="469" y="143" width="8" height="38" rx="4" fill="#F8FAFC"/>
  <rect x="98" y="134" width="14" height="56" rx="7" fill="url(#paint0_linear_1812_2)"/>
  <rect x="542" y="134" width="14" height="56" rx="7" fill="url(#paint1_linear_1812_2)"/>
  <rect x="72" y="224" width="192" height="62" rx="20" fill="#13243F" stroke="#38BDF8" stroke-width="2"/>
  <rect x="376" y="224" width="192" height="62" rx="20" fill="#3F1730" stroke="#F472B6" stroke-width="2"/>
  <text x="72" y="104" fill="#7DD3FC" font-family="Arial, sans-serif" font-size="18" font-weight="700">Left lane</text>
  <text x="376" y="104" fill="#F9A8D4" font-family="Arial, sans-serif" font-size="18" font-weight="700">Right lane</text>
  <text x="102" y="251" fill="#E2E8F0" font-family="Arial, sans-serif" font-size="22" font-weight="700">Hit now</text>
  <text x="406" y="251" fill="#E2E8F0" font-family="Arial, sans-serif" font-size="22" font-weight="700">Window open</text>
  <text x="102" y="274" fill="#93C5FD" font-family="Arial, sans-serif" font-size="15" font-weight="700">4 / 5 hits</text>
  <text x="406" y="274" fill="#F9A8D4" font-family="Arial, sans-serif" font-size="15" font-weight="700">3 / 5 hits</text>
  <text x="242" y="72" fill="#CBD5E1" font-family="Arial, sans-serif" font-size="15" font-weight="700">Density 2</text>
  <defs>
    <linearGradient id="paint0_linear_1812_2" x1="105" y1="134" x2="105" y2="190" gradientUnits="userSpaceOnUse">
      <stop stop-color="#F8FAFC"/>
      <stop offset="0.52" stop-color="#38BDF8"/>
      <stop offset="1" stop-color="#EC4899"/>
    </linearGradient>
    <linearGradient id="paint1_linear_1812_2" x1="549" y1="134" x2="549" y2="190" gradientUnits="userSpaceOnUse">
      <stop stop-color="#F8FAFC"/>
      <stop offset="0.52" stop-color="#38BDF8"/>
      <stop offset="1" stop-color="#EC4899"/>
    </linearGradient>
  </defs>
</svg>
