<svg width="512" height="512" viewBox="0 0 512 512" fill="none" xmlns="http://www.w3.org/2000/svg">
  <title>Tempo Weave dual-lane rhythm board with independent lane markers and center hit zones</title>
  <defs>
    <linearGradient id="tempo-weave-background" x1="48" y1="36" x2="454" y2="474" gradientUnits="userSpaceOnUse">
      <stop stop-color="#412b49" />
      <stop offset="1" stop-color="#1a1127" />
    </linearGradient>
  </defs>
  <rect width="512" height="512" rx="44" fill="url(#tempo-weave-background)" />
  <circle cx="410" cy="92" r="136" fill="rgba(244, 114, 182, 0.16)" />
  <circle cx="104" cy="418" r="118" fill="rgba(56, 189, 248, 0.09)" />
  <rect x="12" y="12" width="488" height="488" rx="42" fill="rgba(49, 37, 59, 0.94)" stroke="rgba(219, 175, 209, 0.16)" stroke-width="2" />
  <g transform="translate(256 256) scale(1.12) translate(-256 -256)"><rect x="88" y="96" width="132" height="278" rx="26" fill="rgba(69, 54, 78, 0.96)" stroke="rgba(219, 175, 209, 0.22)" stroke-width="1.5" /><rect x="292" y="96" width="132" height="278" rx="26" fill="rgba(69, 54, 78, 0.96)" stroke="rgba(219, 175, 209, 0.22)" stroke-width="1.5" /><rect x="116" y="220" width="76" height="22" rx="11" fill="rgba(56, 189, 248, 0.26)" /><rect x="320" y="186" width="76" height="22" rx="11" fill="rgba(244, 114, 182, 0.26)" /><rect x="152" y="142" width="20" height="90" rx="10" fill="#38bdf8" /><rect x="356" y="154" width="20" height="90" rx="10" fill="#f689c2" /><line x1="220" y1="235" x2="292" y2="197" stroke="#cbd5e1" stroke-linecap="round" stroke-width="5" /><polygon points="292,197 272.34700549228955,198.32657712927045 279.8151434052195,212.47673317482196" fill="#cbd5e1" /></g>
</svg>
