<svg width="512" height="512" viewBox="0 0 512 512" fill="none" xmlns="http://www.w3.org/2000/svg">
  <title>Tile Instant target memory board next to a shuffled live reconstruction board</title>
  <defs>
    <linearGradient id="tile-instant-background" x1="48" y1="36" x2="454" y2="474" gradientUnits="userSpaceOnUse">
      <stop stop-color="#103a45" />
      <stop offset="1" stop-color="#041825" />
    </linearGradient>
  </defs>
  <rect width="512" height="512" rx="44" fill="url(#tile-instant-background)" />
  <circle cx="410" cy="92" r="136" fill="rgba(20, 184, 166, 0.16)" />
  <circle cx="104" cy="418" r="118" fill="rgba(56, 189, 248, 0.09)" />
  <rect x="12" y="12" width="488" height="488" rx="42" fill="rgba(17, 46, 57, 0.94)" stroke="rgba(133, 202, 203, 0.16)" stroke-width="2" />
  <g transform="translate(256 256) scale(1.12) translate(-256 -256)"><rect x="62" y="146" width="160" height="160" rx="26" fill="rgba(29, 67, 75, 0.96)" stroke="rgba(133, 202, 203, 0.22)" stroke-width="1.5" /><rect x="80" y="164" width="36" height="36" rx="7" fill="rgba(20, 184, 166, 0.24)" stroke="rgba(133, 202, 203, 0.18)" stroke-width="1.2" /><rect x="124" y="164" width="36" height="36" rx="7" fill="rgba(56, 189, 248, 0.22)" stroke="rgba(133, 202, 203, 0.18)" stroke-width="1.2" /><rect x="168" y="164" width="36" height="36" rx="7" fill="#2c5b67" stroke="rgba(133, 202, 203, 0.18)" stroke-width="1.2" /><rect x="80" y="208" width="36" height="36" rx="7" fill="#2c5b67" stroke="rgba(133, 202, 203, 0.18)" stroke-width="1.2" /><rect x="124" y="208" width="36" height="36" rx="7" fill="rgba(245, 158, 11, 0.22)" stroke="rgba(133, 202, 203, 0.18)" stroke-width="1.2" /><rect x="168" y="208" width="36" height="36" rx="7" fill="#2c5b67" stroke="rgba(133, 202, 203, 0.18)" stroke-width="1.2" /><rect x="80" y="252" width="36" height="36" rx="7" fill="#2c5b67" stroke="rgba(133, 202, 203, 0.18)" stroke-width="1.2" /><rect x="124" y="252" width="36" height="36" rx="7" fill="#2c5b67" stroke="rgba(133, 202, 203, 0.18)" stroke-width="1.2" /><rect x="168" y="252" width="36" height="36" rx="7" fill="rgba(34, 197, 94, 0.22)" stroke="rgba(133, 202, 203, 0.18)" stroke-width="1.2" /><rect x="236" y="146" width="160" height="160" rx="26" fill="rgba(29, 67, 75, 0.96)" stroke="rgba(133, 202, 203, 0.22)" stroke-width="1.5" /><rect x="254" y="164" width="36" height="36" rx="7" fill="#2c5b67" stroke="rgba(133, 202, 203, 0.18)" stroke-width="1.2" /><rect x="298" y="164" width="36" height="36" rx="7" fill="#2c5b67" stroke="rgba(133, 202, 203, 0.18)" stroke-width="1.2" /><rect x="342" y="164" width="36" height="36" rx="7" fill="rgba(20, 184, 166, 0.24)" stroke="rgba(133, 202, 203, 0.18)" stroke-width="1.2" /><rect x="254" y="208" width="36" height="36" rx="7" fill="rgba(56, 189, 248, 0.22)" stroke="rgba(133, 202, 203, 0.18)" stroke-width="1.2" /><rect x="298" y="208" width="36" height="36" rx="7" fill="#2c5b67" stroke="rgba(133, 202, 203, 0.18)" stroke-width="1.2" /><rect x="342" y="208" width="36" height="36" rx="7" fill="rgba(245, 158, 11, 0.22)" stroke="rgba(133, 202, 203, 0.18)" stroke-width="1.2" /><rect x="254" y="252" width="36" height="36" rx="7" fill="#2c5b67" stroke="rgba(133, 202, 203, 0.18)" stroke-width="1.2" /><rect x="298" y="252" width="36" height="36" rx="7" fill="rgba(34, 197, 94, 0.22)" stroke="rgba(133, 202, 203, 0.18)" stroke-width="1.2" /><rect x="342" y="252" width="36" height="36" rx="7" fill="#2c5b67" stroke="rgba(133, 202, 203, 0.18)" stroke-width="1.2" /><path d="M212 154 L256 136 L300 154" fill="none" stroke="#cbd5e1" stroke-dasharray="8 8" stroke-linecap="round" stroke-width="4" /></g>
</svg>
