<svg width="512" height="512" viewBox="0 0 512 512" fill="none" xmlns="http://www.w3.org/2000/svg">
  <title>Zone Lock puzzle board with overlapping zone cards and lock-count targets</title>
  <defs>
    <linearGradient id="zone-lock-background" x1="48" y1="36" x2="454" y2="474" gradientUnits="userSpaceOnUse">
      <stop stop-color="#183c57" />
      <stop offset="1" stop-color="#07182e" />
    </linearGradient>
  </defs>
  <rect width="512" height="512" rx="44" fill="url(#zone-lock-background)" />
  <circle cx="410" cy="92" r="136" fill="rgba(56, 189, 248, 0.16)" />
  <circle cx="104" cy="418" r="118" fill="rgba(56, 189, 248, 0.09)" />
  <rect x="12" y="12" width="488" height="488" rx="42" fill="rgba(22, 47, 68, 0.94)" stroke="rgba(147, 204, 234, 0.16)" stroke-width="2" />
  <g transform="translate(256 256) scale(1.12) translate(-256 -256)"><rect x="84" y="86" width="268" height="268" rx="26" fill="rgba(36, 68, 90, 0.96)" stroke="rgba(147, 204, 234, 0.22)" stroke-width="1.5" /><rect x="102" y="104" width="52" height="52" rx="10" fill="#345c79" stroke="rgba(147, 204, 234, 0.18)" stroke-width="1.2" /><rect x="162" y="104" width="52" height="52" rx="10" fill="#345c79" stroke="rgba(147, 204, 234, 0.18)" stroke-width="1.2" /><rect x="222" y="104" width="52" height="52" rx="10" fill="#345c79" stroke="rgba(147, 204, 234, 0.18)" stroke-width="1.2" /><rect x="282" y="104" width="52" height="52" rx="10" fill="#345c79" stroke="rgba(147, 204, 234, 0.18)" stroke-width="1.2" /><rect x="102" y="164" width="52" height="52" rx="10" fill="#345c79" stroke="rgba(147, 204, 234, 0.18)" stroke-width="1.2" /><rect x="162" y="164" width="52" height="52" rx="10" fill="#345c79" stroke="rgba(147, 204, 234, 0.18)" stroke-width="1.2" /><rect x="222" y="164" width="52" height="52" rx="10" fill="#345c79" stroke="rgba(147, 204, 234, 0.18)" stroke-width="1.2" /><rect x="282" y="164" width="52" height="52" rx="10" fill="#345c79" stroke="rgba(147, 204, 234, 0.18)" stroke-width="1.2" /><rect x="102" y="224" width="52" height="52" rx="10" fill="#345c79" stroke="rgba(147, 204, 234, 0.18)" stroke-width="1.2" /><rect x="162" y="224" width="52" height="52" rx="10" fill="#345c79" stroke="rgba(147, 204, 234, 0.18)" stroke-width="1.2" /><rect x="222" y="224" width="52" height="52" rx="10" fill="#345c79" stroke="rgba(147, 204, 234, 0.18)" stroke-width="1.2" /><rect x="282" y="224" width="52" height="52" rx="10" fill="#345c79" stroke="rgba(147, 204, 234, 0.18)" stroke-width="1.2" /><rect x="102" y="284" width="52" height="52" rx="10" fill="#345c79" stroke="rgba(147, 204, 234, 0.18)" stroke-width="1.2" /><rect x="162" y="284" width="52" height="52" rx="10" fill="#345c79" stroke="rgba(147, 204, 234, 0.18)" stroke-width="1.2" /><rect x="222" y="284" width="52" height="52" rx="10" fill="#345c79" stroke="rgba(147, 204, 234, 0.18)" stroke-width="1.2" /><rect x="282" y="284" width="52" height="52" rx="10" fill="#345c79" stroke="rgba(147, 204, 234, 0.18)" stroke-width="1.2" /><rect x="136" y="138" width="120" height="120" rx="22" fill="rgba(56, 189, 248, 0.22)" /><rect x="214" y="188" width="126" height="120" rx="22" fill="rgba(56, 189, 248, 0.22)" /><rect x="370" y="156" width="56" height="40" rx="16" fill="rgba(56, 189, 248, 0.28)" stroke="rgba(127, 207, 245, 0.85)" stroke-width="1.5" /><text x="398" y="177" font-family="'Avenir Next', 'Trebuchet MS', 'Segoe UI', sans-serif" font-weight="700" text-anchor="middle" dominant-baseline="middle" fill="#f8fafc" font-size="15.680000000000001">2</text><rect x="370" y="212" width="56" height="40" rx="16" fill="rgba(52, 100, 131, 0.92)" stroke="rgba(147, 204, 234, 0.24)" stroke-width="1.5" /><text x="398" y="233" font-family="'Avenir Next', 'Trebuchet MS', 'Segoe UI', sans-serif" font-weight="700" text-anchor="middle" dominant-baseline="middle" fill="#cbd5e1" font-size="15.680000000000001">3</text><rect x="370" y="268" width="56" height="40" rx="16" fill="rgba(52, 100, 131, 0.92)" stroke="rgba(147, 204, 234, 0.24)" stroke-width="1.5" /><text x="398" y="289" font-family="'Avenir Next', 'Trebuchet MS', 'Segoe UI', sans-serif" font-weight="700" text-anchor="middle" dominant-baseline="middle" fill="#cbd5e1" font-size="15.680000000000001">1</text></g>
</svg>
